<svg width="128" height="32" viewBox="0 0 128 32" fill="none" xmlns="http://www.w3.org/2000/svg">
<g clip-path="url(#clip0_151_1291)">
<path d="M15.8026 0.0341787C15.8482 0.0345505 15.8482 0.0345505 15.8947 0.0349299C16.4499 0.041753 16.9984 0.166873 17.5239 0.345477C17.6233 0.378997 17.6233 0.378997 17.746 0.405706C17.9028 0.444724 18.0443 0.51001 18.1904 0.57905C18.3372 0.647687 18.4827 0.715353 18.635 0.770557C18.7495 0.813136 18.8457 0.868337 18.9471 0.938025C19.0523 1.00848 19.1545 1.07404 19.2687 1.1282C19.5364 1.25843 19.7715 1.45857 20.0065 1.64102C20.0314 1.66001 20.0564 1.67901 20.0821 1.69858C20.2271 1.81033 20.3585 1.9264 20.4853 2.05888C20.551 2.1262 20.6184 2.19066 20.6875 2.25426C20.7092 2.27432 20.7309 2.29437 20.7532 2.31503C20.8149 2.36891 20.8149 2.36891 20.9145 2.35897C20.9332 2.33499 20.952 2.31102 20.9713 2.28632C21.0549 2.18056 21.1414 2.11397 21.2487 2.03498C21.3115 1.98782 21.3706 1.93882 21.4295 1.88674C21.8387 1.527 22.2529 1.23163 22.7319 0.976353C22.8189 0.92981 22.904 0.881127 22.9891 0.831187C23.114 0.760466 23.2409 0.704799 23.3744 0.653036C23.4463 0.62486 23.5176 0.595237 23.5886 0.564894C23.8238 0.464524 24.0507 0.384763 24.3014 0.331988C24.4205 0.305847 24.5366 0.272999 24.6539 0.239307C25.2055 0.0909385 25.733 0.0509861 26.3029 0.0531173C26.421 0.0534079 26.539 0.0524217 26.657 0.0513394C27.1448 0.0497539 27.6028 0.0927871 28.0779 0.205119C28.102 0.210775 28.1261 0.216432 28.1509 0.22226C28.2958 0.257058 28.4392 0.296265 28.5824 0.337597C28.6239 0.349397 28.6654 0.361197 28.7082 0.373355C28.9926 0.456151 29.2568 0.55455 29.5241 0.683751C29.5821 0.706213 29.6402 0.728315 29.6985 0.749991C29.8589 0.814015 29.9957 0.90456 30.1389 1.00106C30.2237 1.05554 30.3078 1.09996 30.3985 1.14315C30.5955 1.24046 30.7625 1.37024 30.9366 1.50426C30.9787 1.53541 31.0209 1.56648 31.0631 1.59748C31.4845 1.9092 31.8913 2.25724 32.2272 2.66452C32.3215 2.77595 32.4207 2.86973 32.5347 2.95993C32.5845 3.00854 32.5845 3.00854 32.6168 3.07544C32.659 3.15975 32.7085 3.20268 32.78 3.26281C32.9389 3.40001 33.0804 3.54523 33.2172 3.70512C33.3047 3.80632 33.3935 3.89796 33.4947 3.98503C33.6045 4.07966 33.6957 4.18032 33.7883 4.29206C33.9117 4.4318 34.0451 4.56178 34.1779 4.69237C34.1979 4.71236 34.218 4.73234 34.2386 4.75293C34.2568 4.77088 34.2751 4.78884 34.2938 4.80733C34.3333 4.85469 34.3333 4.85469 34.3333 4.92307C34.3533 4.93211 34.3734 4.94115 34.394 4.95047C34.4707 4.99302 34.5154 5.03453 34.5739 5.10002C34.5941 5.12234 34.6143 5.14467 34.6352 5.16767C34.6569 5.19201 34.6787 5.21636 34.7012 5.24144C34.9498 5.51512 35.2067 5.77918 35.4677 6.0407C35.5907 6.16453 35.7121 6.28776 35.8244 6.42173C35.9946 6.62348 36.1842 6.80694 36.3701 6.99358C36.5846 7.20897 36.7967 7.42265 36.9902 7.65811C37.0458 7.71549 37.1019 7.77244 37.1583 7.82905C37.1973 7.86838 37.1973 7.86838 37.237 7.90851C37.2635 7.93517 37.2899 7.96184 37.3172 7.98931C37.377 8.04985 37.4369 8.11039 37.4968 8.17093C37.527 8.20134 37.5571 8.23175 37.5883 8.26308C37.632 8.30737 37.632 8.30737 37.6766 8.35256C37.703 8.37922 37.7294 8.40588 37.7566 8.43335C37.8315 8.51336 37.8983 8.59702 37.9655 8.68375C38.0601 8.78522 38.1594 8.87746 38.264 8.96794C38.3806 9.07048 38.4805 9.18048 38.5802 9.2998C38.6974 9.43685 38.8276 9.56135 38.9555 9.68803C39.0317 9.76737 39.104 9.84852 39.1762 9.93161C39.2962 10.0697 39.4213 10.1998 39.5517 10.3278C39.6921 10.4676 39.8109 10.5995 39.9161 10.7692C39.968 10.8318 40.0211 10.8928 40.0752 10.9534C40.1179 11.0085 40.1179 11.0085 40.1515 11.1111C40.1708 11.13 40.19 11.1488 40.2098 11.1683C40.3142 11.2773 40.3856 11.4001 40.4626 11.5299C40.4869 11.5707 40.4869 11.5707 40.5118 11.6123C40.6505 11.8479 40.7738 12.089 40.8898 12.3369C40.9162 12.392 40.9437 12.4465 40.9717 12.5008C41.1048 12.7613 41.2061 13.0243 41.295 13.3034C41.3021 13.3257 41.3093 13.3481 41.3166 13.371C41.5825 14.2109 41.7062 15.0914 41.707 15.9722C41.707 16.0105 41.707 16.0105 41.707 16.0496C41.7064 16.507 41.6732 16.9503 41.5977 17.4017C41.5924 17.4352 41.5872 17.4688 41.5818 17.5034C41.4258 18.4864 41.0944 19.5146 40.535 20.3402C40.4425 20.4776 40.3611 20.622 40.2771 20.7649C40.2188 20.8547 40.2188 20.8547 40.1515 20.8889C40.1317 20.9322 40.1317 20.9322 40.1116 20.9765C40.0329 21.1282 39.9285 21.2415 39.8152 21.3675C39.7752 21.4137 39.7352 21.46 39.6954 21.5064C39.6759 21.5289 39.6565 21.5514 39.6364 21.5746C39.5999 21.6174 39.5639 21.6606 39.5284 21.7042C39.4268 21.8289 39.3203 21.9346 39.1979 22.0382C39.0619 22.1545 38.9455 22.2887 38.8273 22.4231C38.7013 22.5662 38.5716 22.7036 38.4363 22.8376C38.3358 22.9372 38.2417 23.0391 38.1505 23.1474C38.0621 23.2514 37.9702 23.3329 37.8646 23.4188C37.8287 23.4594 37.7935 23.5007 37.7587 23.5423C37.6308 23.6925 37.4949 23.8327 37.3559 23.9722C37.3211 24.0074 37.3211 24.0074 37.2856 24.0432C37.1909 24.1389 37.0959 24.2345 37.0008 24.3299C36.9169 24.4164 36.837 24.5059 36.7569 24.5961C36.5275 24.852 36.2851 25.0948 36.0428 25.3379C35.8486 25.5334 35.8486 25.5334 35.6656 25.7397C35.4797 25.9604 35.2705 26.1602 35.0673 26.3643C35.0121 26.4198 34.957 26.4753 34.9019 26.531C34.8843 26.5487 34.8667 26.5665 34.8486 26.5848C34.7317 26.7036 34.6217 26.8263 34.5177 26.9571C34.4679 27.0085 34.4679 27.0085 34.3986 27.0413C34.3158 27.0865 34.3052 27.1283 34.2661 27.2137C34.2242 27.2614 34.1804 27.3074 34.1354 27.352C34.1093 27.3781 34.0833 27.4042 34.0565 27.4311C34.0292 27.4581 34.002 27.485 33.9739 27.5128C33.8006 27.6851 33.6313 27.8578 33.4738 28.0453C33.3676 28.1707 33.2504 28.2797 33.1268 28.3867C33.0072 28.4915 32.9051 28.6047 32.8046 28.7282C32.7527 28.7863 32.7527 28.7863 32.6518 28.8547C32.6379 28.8801 32.624 28.9055 32.6097 28.9316C32.5442 29.0363 32.4728 29.0958 32.3793 29.1736C32.2904 29.2532 32.2157 29.3428 32.1397 29.435C31.7842 29.848 31.3671 30.2128 30.9245 30.525C30.8745 30.5604 30.8253 30.5967 30.7761 30.6331C30.61 30.7553 30.44 30.859 30.2587 30.9561C30.1588 31.0109 30.0625 31.0703 29.9655 31.1303C29.7968 31.2311 29.6272 31.3062 29.4432 31.3731C29.3381 31.4128 29.2364 31.4564 29.1336 31.5016C28.9232 31.5912 28.7106 31.6554 28.4899 31.7137C28.4325 31.729 28.4325 31.729 28.3739 31.7447C27.5459 31.9626 26.7411 31.9761 25.8919 31.9658C25.8622 31.9656 25.8325 31.9653 25.8019 31.9651C25.2581 31.958 24.6992 31.8429 24.1891 31.652C24.1137 31.6254 24.0429 31.6099 23.9644 31.5961C23.7735 31.5568 23.6035 31.4634 23.4295 31.3777C23.3181 31.323 23.205 31.275 23.09 31.2286C22.931 31.1625 22.7879 31.0832 22.6424 30.9906C22.5638 30.941 22.484 30.8954 22.4027 30.8504C22.283 30.7832 22.1678 30.7155 22.058 30.6325C22.058 30.6099 22.058 30.5873 22.058 30.5641C22.0399 30.5613 22.0219 30.5585 22.0033 30.5555C21.8313 30.5003 21.7119 30.3832 21.5871 30.2564C21.5545 30.2345 21.5219 30.2127 21.4883 30.1902C21.3838 30.1186 21.305 30.0402 21.2172 29.9487C21.1895 29.9269 21.1617 29.905 21.1331 29.8825C21.0337 29.7991 20.9611 29.7093 20.8809 29.6068C20.7146 29.7501 20.5521 29.897 20.3909 30.0462C20.3096 30.1192 20.2261 30.188 20.141 30.2564C20.1156 30.2778 20.0902 30.2992 20.064 30.3212C19.889 30.4672 19.7097 30.5962 19.5172 30.7173C19.4551 30.7564 19.3941 30.7976 19.3339 30.8397C19.2103 30.9209 19.0822 30.991 18.9526 31.0617C18.8816 31.1008 18.8124 31.1414 18.7432 31.1838C18.6266 31.2484 18.5108 31.2977 18.3871 31.3459C18.3187 31.3735 18.251 31.4032 18.184 31.434C17.9141 31.5582 17.649 31.6423 17.3603 31.7084C17.2724 31.7288 17.1848 31.7501 17.0971 31.7716C16.3228 31.9612 15.5905 31.9757 14.7937 31.9658C14.7633 31.9656 14.7329 31.9653 14.7016 31.9651C13.8647 31.9548 12.95 31.7135 12.2037 31.3329C12.122 31.2916 12.0442 31.2582 11.9581 31.2286C11.8252 31.176 11.712 31.1092 11.5915 31.0323C11.5129 30.9837 11.4337 30.9387 11.3529 30.8941C11.2023 30.8095 11.0618 30.7149 10.9219 30.6132C10.8976 30.5957 10.8733 30.5781 10.8482 30.56C10.6774 30.4354 10.5104 30.3063 10.3459 30.1731C10.3153 30.1483 10.3153 30.1483 10.284 30.123C10.1206 29.9886 9.97433 29.8436 9.83937 29.6795C9.73713 29.5592 9.62702 29.456 9.50818 29.3531C9.38057 29.2418 9.26967 29.1187 9.16044 28.9893C9.09337 28.9102 9.03339 28.8472 8.95235 28.782C8.87458 28.7179 8.87458 28.7179 8.81362 28.6218C8.73236 28.5014 8.64288 28.4228 8.5317 28.332C8.471 28.2735 8.471 28.2735 8.43764 28.2022C8.39437 28.1187 8.35181 28.1081 8.26922 28.0684C8.21286 28.0091 8.21286 28.0091 8.15781 27.9402C8.08201 27.8488 8.00708 27.768 7.91609 27.6923C7.80395 27.5985 7.71199 27.4935 7.61827 27.381C7.56912 27.3234 7.51835 27.2705 7.46417 27.2179C7.39481 27.1453 7.39481 27.1453 7.39481 27.0769C7.37677 27.0699 7.35874 27.0628 7.34016 27.0555C7.22935 26.9903 7.13943 26.9043 7.0585 26.8034C7.0585 26.7808 7.0585 26.7583 7.0585 26.735C7.02825 26.7212 7.02825 26.7212 6.9974 26.7072C6.92346 26.6664 6.88121 26.6287 6.82531 26.5656C6.80661 26.5448 6.7879 26.524 6.76863 26.5026C6.74845 26.4799 6.72826 26.4572 6.70747 26.4338C6.46551 26.1659 6.21423 25.9086 5.95952 25.6533C5.8355 25.5285 5.7131 25.4042 5.59975 25.2692C5.43573 25.0748 5.25345 24.8978 5.07426 24.7179C4.68013 24.3224 4.68013 24.3224 4.55311 24.1711C4.39019 23.977 4.20808 23.8009 4.0296 23.6218C3.6106 23.2013 3.6106 23.2013 3.42634 22.9744C3.33158 22.873 3.23244 22.7807 3.12786 22.6902C3.01422 22.5899 2.91567 22.4838 2.81835 22.3674C2.74096 22.2754 2.66135 22.1858 2.58136 22.0961C2.55422 22.0657 2.52708 22.0352 2.49912 22.0039C2.39389 21.8888 2.2847 21.7785 2.17371 21.6692C2.03101 21.5278 1.90343 21.386 1.78787 21.2209C1.74279 21.1562 1.74279 21.1562 1.66701 21.0876C1.59786 21.0121 1.58768 20.9558 1.57663 20.8547C1.54333 20.8434 1.51004 20.8321 1.47573 20.8205C1.34399 20.6566 1.24509 20.4647 1.14638 20.279C1.10887 20.2107 1.0684 20.1463 1.02592 20.0812C0.895701 19.8728 0.802117 19.6432 0.702217 19.4188C0.681733 19.3745 0.681733 19.3745 0.660835 19.3293C0.592284 19.1793 0.540932 19.0303 0.497146 18.871C0.474961 18.7966 0.449728 18.7231 0.42279 18.6504C0.29353 18.2985 0.218587 17.9414 0.153609 17.5726C0.149275 17.5482 0.144941 17.5237 0.140475 17.4985C0.0536617 17.004 0.0215213 16.5275 0.0211869 16.0256C0.0211642 15.995 0.0211415 15.9644 0.0211182 15.9329C0.021627 15.5008 0.033384 15.0791 0.113656 14.6535C0.132535 14.5532 0.149393 14.4527 0.166352 14.352C0.241676 13.9232 0.350715 13.5275 0.51007 13.1236C0.539825 13.0445 0.561712 12.9644 0.582406 12.8825C0.64599 12.6532 0.764477 12.4447 0.871998 12.2342C0.914332 12.1505 0.954245 12.0656 0.994387 11.9808C1.05281 11.8616 1.11932 11.7571 1.19801 11.6509C1.26311 11.5568 1.31486 11.4559 1.36775 11.3543C1.41019 11.279 1.45392 11.2113 1.50936 11.1453C1.53156 11.1453 1.55376 11.1453 1.57663 11.1453C1.58495 11.104 1.58495 11.104 1.59344 11.062C1.66594 10.8869 1.78628 10.7699 1.91294 10.6325C1.95379 10.5857 1.99444 10.5387 2.03485 10.4914C2.05397 10.4693 2.07309 10.4471 2.09278 10.4243C2.12921 10.3815 2.16522 10.3383 2.20077 10.2947C2.27947 10.1985 2.3537 10.1166 2.44893 10.0363C2.59654 9.91076 2.71586 9.76381 2.83766 9.61284C2.9455 9.48064 3.06049 9.36759 3.19 9.2572C3.33106 9.13176 3.45757 8.99227 3.58464 8.85256C3.8463 8.56512 4.1165 8.28725 4.3908 8.01228C4.51482 7.88745 4.63721 7.76318 4.75056 7.6282C4.9309 7.41439 5.13291 7.22056 5.32994 7.02283C5.57056 6.78303 5.57056 6.78303 5.79733 6.52991C5.97585 6.31724 6.17693 6.12508 6.37251 5.92881C6.42538 5.87569 6.47817 5.82248 6.53091 5.76922C6.54776 5.75223 6.5646 5.73524 6.58196 5.71773C6.69809 5.59966 6.80681 5.47736 6.91044 5.34788C6.9576 5.29914 6.9576 5.29914 7.0585 5.26495C7.06751 5.24591 7.07653 5.22687 7.08582 5.20726C7.14368 5.09272 7.22954 5.00429 7.32755 4.92307C7.34974 4.92307 7.37194 4.92307 7.39481 4.92307C7.40257 4.90394 7.41033 4.88481 7.41832 4.86511C7.47358 4.76559 7.54298 4.69885 7.62392 4.61965C7.76401 4.48062 7.76401 4.48062 7.89297 4.33119C7.96853 4.23682 8.04905 4.1533 8.13469 4.06837C8.15221 4.04981 8.16972 4.03126 8.18777 4.01214C8.23608 3.96124 8.28617 3.9121 8.33648 3.86324C8.35868 3.86324 8.38087 3.86324 8.40374 3.86324C8.41228 3.84292 8.42082 3.82261 8.42962 3.80167C8.47562 3.7181 8.52162 3.67688 8.59502 3.61751C8.72402 3.50705 8.8215 3.38675 8.9224 3.24999C9.02459 3.11422 9.14672 3.00576 9.27395 2.89529C9.39222 2.79136 9.49374 2.67942 9.59502 2.55862C9.72268 2.40732 9.86726 2.27769 10.0159 2.14849C10.0677 2.10147 10.1177 2.05241 10.1666 2.00239C10.529 1.63567 10.9662 1.30943 11.4194 1.0681C11.5041 1.02224 11.5865 0.972985 11.6692 0.923543C11.847 0.817831 12.0232 0.721045 12.2171 0.648762C12.2796 0.625004 12.3413 0.598916 12.4023 0.571305C12.7008 0.439195 13.0081 0.349892 13.3223 0.264948C13.344 0.259049 13.3657 0.253151 13.388 0.247073C14.1934 0.0292201 14.9732 0.0239042 15.8026 0.0341787ZM19.1972 5.63674C19.1638 5.67013 19.1638 5.67013 19.1296 5.70418C19.1085 5.72556 19.0875 5.74693 19.0657 5.76895C19.0462 5.78865 19.0267 5.80834 19.0066 5.82863C18.9567 5.87781 18.9567 5.87781 18.9639 5.94871C18.9458 5.95558 18.9277 5.96246 18.909 5.96954C18.7962 6.03692 18.7182 6.13263 18.6318 6.23076C18.3891 6.50132 18.1349 6.7594 17.8786 7.01652C17.7497 7.14638 17.6219 7.27534 17.504 7.41572C17.3242 7.62921 17.1224 7.82257 16.9258 8.01989C16.7399 8.20665 16.5553 8.39286 16.386 8.5956C16.2814 8.7202 16.1645 8.82777 16.0422 8.93375C15.9226 9.03855 15.8205 9.15167 15.72 9.27523C15.6681 9.33332 15.6681 9.33332 15.5672 9.4017C15.5533 9.42708 15.5394 9.45247 15.5251 9.47862C15.4596 9.58332 15.3882 9.64281 15.2947 9.72061C15.2039 9.80186 15.1281 9.89384 15.0497 9.98717C14.9398 10.117 14.8191 10.2294 14.6907 10.3397C14.5781 10.4383 14.505 10.54 14.4237 10.6667C14.3754 10.7082 14.3269 10.7496 14.2771 10.7893C14.1892 10.8663 14.1172 10.9565 14.0418 11.0459C13.9263 11.182 13.7985 11.2995 13.6649 11.4167C13.5468 11.522 13.4664 11.6262 13.3811 11.7607C13.3145 11.8184 13.2472 11.8753 13.1794 11.9316C13.1232 11.9999 13.0671 12.0682 13.0112 12.1367C12.9842 12.1586 12.9571 12.1805 12.9292 12.203C12.8365 12.2788 12.7667 12.3611 12.6908 12.4537C12.5999 12.5622 12.4979 12.6593 12.3974 12.7585C12.2869 12.8734 12.1831 12.9935 12.079 13.1144C12.0024 13.1964 11.9212 13.2633 11.8341 13.3333C11.8064 13.3672 11.7786 13.401 11.75 13.4359C11.666 13.5385 11.666 13.5385 11.5861 13.6026C11.4394 13.7233 11.3246 13.8737 11.2033 14.02C11.0936 14.1505 10.9826 14.2675 10.8512 14.3754C10.678 14.5263 10.5265 14.7023 10.3712 14.8718C10.1412 15.1227 10.1412 15.1227 10.0272 15.2384C9.95462 15.3123 9.8874 15.3887 9.82045 15.4679C9.73873 15.5624 9.65747 15.6487 9.56191 15.7286C9.48048 15.7968 9.41143 15.8668 9.34331 15.9487C9.12851 16.2059 8.88382 16.4369 8.64783 16.6737C8.58566 16.7379 8.52754 16.8026 8.471 16.8718C8.36976 16.9958 8.25746 17.1071 8.14433 17.2198C8.08146 17.2825 8.01874 17.3453 7.95603 17.4081C7.92348 17.4403 7.92348 17.4403 7.89028 17.4732C7.86979 17.4938 7.84931 17.5144 7.8282 17.5357C7.80955 17.5543 7.79089 17.5729 7.77167 17.592C7.7239 17.6391 7.7239 17.6391 7.73112 17.7094C7.71131 17.7179 7.69149 17.7265 7.67108 17.7353C7.58674 17.7834 7.54197 17.8344 7.48099 17.9102C7.39196 18.0175 7.30086 18.1003 7.19302 18.188C7.15986 18.226 7.12736 18.2645 7.09528 18.3034C6.9088 18.5224 6.70278 18.7225 6.50014 18.9259C6.25979 19.1653 6.25979 19.1653 6.03341 19.4183C5.9338 19.537 5.8269 19.6473 5.71785 19.7569C5.70028 19.7746 5.6827 19.7923 5.6646 19.8105C5.59149 19.8839 5.51826 19.9571 5.44489 20.0302C5.39069 20.0843 5.33671 20.1385 5.28275 20.1928C5.26618 20.2092 5.24961 20.2256 5.23254 20.2425C5.14928 20.3265 5.08496 20.4017 5.04063 20.5128C5.0581 20.5281 5.07557 20.5434 5.09357 20.5592C5.27078 20.7153 5.43695 20.8739 5.58924 21.0555C5.67015 21.1508 5.75333 21.2349 5.84778 21.3162C5.93548 21.392 6.01313 21.4683 6.0874 21.5577C6.30104 21.8141 6.54499 22.0444 6.78038 22.2799C6.864 22.3665 6.93876 22.4577 7.0137 22.5519C7.02848 22.5672 7.04327 22.5825 7.0585 22.5983C7.08069 22.5983 7.10289 22.5983 7.12576 22.5983C7.13261 22.6164 7.13946 22.6346 7.14652 22.6533C7.21303 22.7702 7.30411 22.8552 7.39901 22.9487C7.41796 22.9677 7.4369 22.9866 7.45642 23.0061C7.503 23.0527 7.54977 23.099 7.59659 23.1453C7.76756 23.0015 7.9197 22.8499 8.06953 22.6838C8.32395 22.4049 8.58726 22.1359 8.8535 21.8688C8.98155 21.7399 9.10832 21.6117 9.22547 21.4723C9.39924 21.2661 9.5936 21.0791 9.78362 20.8886C10.0163 20.6564 10.0163 20.6564 10.2356 20.4113C10.4146 20.1984 10.6159 20.0058 10.8118 19.8092C10.9977 19.6224 11.1823 19.4362 11.3516 19.2334C11.4562 19.1088 11.5731 19.0013 11.6954 18.8953C11.8144 18.7908 11.9168 18.6781 12.0184 18.5563C12.077 18.4869 12.1404 18.4236 12.2041 18.359C12.2372 18.32 12.2701 18.2808 12.3028 18.2414C12.4267 18.0935 12.5589 17.9614 12.7043 17.8355C12.8225 17.7316 12.924 17.62 13.0249 17.4991C13.0947 17.4168 13.1711 17.3418 13.2466 17.2649C13.2688 17.236 13.291 17.2071 13.3139 17.1773C13.3811 17.094 13.3811 17.094 13.461 17.0299C13.5545 16.953 13.6252 16.8701 13.7021 16.7767C13.8144 16.642 13.9415 16.5274 14.0727 16.4124C14.1907 16.307 14.2712 16.2029 14.3564 16.0684C14.4231 16.0107 14.4904 15.9537 14.5582 15.8974C14.6144 15.8292 14.6705 15.7608 14.7264 15.6923C14.7824 15.6467 14.8385 15.6011 14.8945 15.5555C14.9223 15.5217 14.95 15.4879 14.9786 15.453C15.057 15.3574 15.1356 15.2906 15.2309 15.2137C15.3328 15.1086 15.3328 15.1086 15.3654 14.9743C15.3856 14.9654 15.4059 14.9564 15.4267 14.9471C15.5039 14.9037 15.5406 14.8649 15.5945 14.7949C15.6823 14.686 15.7771 14.5988 15.8836 14.5095C15.9563 14.4444 16.0115 14.3675 16.0716 14.2906C16.1204 14.2498 16.1692 14.2091 16.2184 14.1689C16.3462 14.0545 16.4523 13.916 16.5603 13.7826C16.6621 13.6583 16.7683 13.5525 16.8906 13.4491C17.0473 13.3151 17.1795 13.1574 17.3139 13.0011C17.3904 12.915 17.4703 12.8336 17.5514 12.7521C17.5868 12.7162 17.6222 12.6802 17.6576 12.6442C17.7325 12.568 17.8075 12.4918 17.8825 12.4156C17.9004 12.3973 17.9184 12.379 17.9369 12.3602C17.9841 12.3122 18.0315 12.2645 18.079 12.2169C18.1472 12.1466 18.2114 12.075 18.2745 12C18.3816 11.8726 18.4969 11.7554 18.6147 11.6382C18.6731 11.5801 18.7313 11.5219 18.7894 11.4637C18.8196 11.4339 18.8196 11.4339 18.8503 11.4035C18.9007 11.3529 18.9493 11.3005 18.9975 11.2479C18.9975 11.2253 18.9975 11.2027 18.9975 11.1795C19.0174 11.1711 19.0372 11.1627 19.0576 11.1541C19.1675 11.0906 19.2282 10.9959 19.3043 10.895C19.3675 10.8376 19.3675 10.8376 19.4506 10.8202C19.5652 10.8436 19.5978 10.891 19.6702 10.9829C19.7644 11.0982 19.8566 11.1895 19.9728 11.282C20.0289 11.3504 20.0849 11.4188 20.141 11.4872C20.1805 11.5189 20.1805 11.5189 20.2209 11.5513C20.3447 11.6531 20.4415 11.7745 20.5446 11.8974C20.6827 12.0602 20.815 12.209 20.9818 12.3419C21.0378 12.4102 21.0939 12.4786 21.1499 12.547C21.1895 12.5787 21.1895 12.5787 21.2298 12.6111C21.3765 12.7318 21.4913 12.8822 21.6126 13.0286C21.7241 13.1612 21.8381 13.2784 21.9702 13.3898C22.1409 13.5351 22.2828 13.7096 22.4283 13.8799C22.4504 13.9026 22.4724 13.9253 22.4952 13.9487C22.5174 13.9487 22.5396 13.9487 22.5624 13.9487C22.5708 13.9677 22.5791 13.9868 22.5877 14.0064C22.6829 14.1856 22.818 14.3074 22.968 14.4383C23.1284 14.5794 23.266 14.7397 23.4058 14.9012C23.4565 14.9585 23.5094 15.0139 23.563 15.0684C23.6386 15.1453 23.6386 15.1453 23.708 15.235C23.7693 15.3115 23.8278 15.3637 23.9077 15.4188C24.0372 15.3651 24.1134 15.2803 24.2104 15.1795C24.248 15.1471 24.2858 15.1151 24.3239 15.0833C24.4314 14.9907 24.5219 14.89 24.6132 14.7811C24.6971 14.6821 24.7835 14.5856 24.8704 14.4893C24.8857 14.4722 24.901 14.4552 24.9168 14.4376C25.0485 14.2916 25.1809 14.1481 25.3328 14.0235C25.4465 13.9261 25.5416 13.8178 25.6378 13.7028C25.6969 13.633 25.7606 13.5693 25.8247 13.5043C25.8578 13.4653 25.8907 13.4261 25.9235 13.3867C26.0978 13.1787 26.2956 13.0005 26.4973 12.8205C26.4786 12.6958 26.4376 12.6502 26.3417 12.5726C26.2189 12.4685 26.1158 12.3574 26.0123 12.2338C25.9029 12.1042 25.7824 11.9924 25.6544 11.8825C25.5418 11.7838 25.4695 11.6819 25.3875 11.5555C25.3302 11.5017 25.2707 11.452 25.2102 11.402C25.1544 11.3525 25.1098 11.3023 25.0638 11.2436C24.9891 11.1448 24.9891 11.1448 24.9019 11.0791C24.8092 11.0032 24.7394 10.9209 24.6635 10.8284C24.572 10.7191 24.4691 10.6213 24.368 10.5214C24.2906 10.4408 24.2179 10.3584 24.1452 10.2735C24.0681 10.1843 23.9928 10.1018 23.9014 10.0278C23.799 9.94218 23.7231 9.84709 23.6386 9.74358C23.6102 9.72102 23.5818 9.69845 23.5525 9.67521C23.4705 9.60683 23.4705 9.60683 23.4074 9.50854C23.3337 9.39826 23.2586 9.32895 23.1583 9.24518C23.0253 9.13332 22.9131 9.00362 22.8 8.87179C22.695 8.75048 22.5839 8.65023 22.4615 8.547C22.362 8.43884 22.2682 8.32566 22.1758 8.21113C22.0663 8.0769 21.9486 7.96314 21.8182 7.84988C21.655 7.70717 21.517 7.54361 21.3776 7.37753C21.358 7.3573 21.3383 7.33707 21.3181 7.31623C21.2959 7.31623 21.2737 7.31623 21.2508 7.31623C21.2394 7.28873 21.2394 7.28873 21.2277 7.26067C21.1229 7.06787 20.9731 6.93285 20.8106 6.79139C20.6613 6.66038 20.5327 6.51317 20.4048 6.3611C20.3311 6.2773 20.253 6.19897 20.1746 6.11965C20.118 6.06175 20.0615 6.00383 20.0049 5.9459C19.9573 5.89727 19.9097 5.84863 19.862 5.80001C19.8291 5.76639 19.7963 5.73273 19.7634 5.69905C19.7158 5.6502 19.668 5.60147 19.6202 5.55274C19.5919 5.52375 19.5636 5.49476 19.5344 5.46489C19.3976 5.33389 19.3042 5.52813 19.1972 5.63674ZM34.0979 8.85469C34.0516 8.89878 34.0069 8.9445 33.9634 8.99144C33.9634 9.01401 33.9634 9.03657 33.9634 9.05982C33.9454 9.06687 33.9273 9.07392 33.9087 9.08119C33.7979 9.1464 33.708 9.23241 33.6271 9.33332C33.6271 9.35589 33.6271 9.37845 33.6271 9.4017C33.6079 9.40963 33.5888 9.41757 33.569 9.42574C33.4731 9.48136 33.418 9.54759 33.3454 9.63247C33.1238 9.88637 32.8854 10.1234 32.6478 10.3617C32.453 10.5578 32.453 10.5578 32.2696 10.7647C32.1656 10.8883 32.0541 11.0028 31.9404 11.1172C31.9219 11.1358 31.9034 11.1544 31.8844 11.1736C31.8073 11.251 31.7302 11.3282 31.6528 11.4054C31.5958 11.4623 31.539 11.5195 31.4822 11.5766C31.4645 11.5941 31.4469 11.6116 31.4287 11.6296C31.3867 11.672 31.3464 11.7162 31.3065 11.7607C31.3065 11.7832 31.3065 11.8058 31.3065 11.8291C31.2843 11.8291 31.2621 11.8291 31.2393 11.8291C31.1842 11.8844 31.1842 11.8844 31.1279 11.9551C31.0354 12.0673 30.9383 12.1708 30.8357 12.2735C30.7361 12.3738 30.6366 12.4743 30.5372 12.5748C30.5111 12.6011 30.4849 12.6274 30.458 12.6544C30.3141 12.8001 30.1757 12.9482 30.0436 13.105C29.9372 13.2303 29.8201 13.3395 29.6964 13.4466C29.5774 13.5511 29.4751 13.6637 29.3734 13.7855C29.3148 13.855 29.2514 13.9182 29.1878 13.9829C29.1546 14.0219 29.1217 14.0611 29.089 14.1004C28.9651 14.2483 28.8329 14.3805 28.6875 14.5064C28.5691 14.6102 28.4679 14.722 28.3685 14.8445C28.3134 14.906 28.3134 14.906 28.242 14.9603C28.1734 15.006 28.1734 15.006 28.1347 15.0876C28.07 15.1923 27.9973 15.2521 27.9041 15.3297C27.8229 15.4021 27.7563 15.4833 27.6874 15.5676C27.5998 15.6733 27.5037 15.7676 27.4007 15.8578C27.2236 16.0127 27.2236 16.0127 27.0774 16.1966C27.0035 16.3051 26.9351 16.3644 26.8336 16.4444C26.8058 16.4783 26.7781 16.5121 26.7495 16.547C26.671 16.6428 26.5925 16.7089 26.4973 16.7863C26.4695 16.8202 26.4418 16.854 26.4132 16.8889C26.3348 16.9845 26.2562 17.0512 26.161 17.1282C26.059 17.2333 26.059 17.2333 26.0264 17.3675C25.9961 17.381 25.9961 17.381 25.9651 17.3948C25.8879 17.4381 25.8512 17.477 25.7973 17.547C25.7095 17.6559 25.6148 17.743 25.5082 17.8324C25.4356 17.8975 25.3803 17.9743 25.3202 18.0513C25.2714 18.092 25.2227 18.1327 25.1735 18.1729C25.0456 18.2874 24.9396 18.4259 24.8315 18.5593C24.7298 18.6836 24.6235 18.7894 24.5012 18.8928C24.3445 19.0268 24.2123 19.1844 24.0779 19.3408C24.0014 19.4268 23.9216 19.5082 23.8404 19.5897C23.805 19.6257 23.7696 19.6617 23.7343 19.6976C23.6593 19.7739 23.5843 19.8501 23.5094 19.9263C23.4914 19.9446 23.4734 19.9629 23.4549 19.9817C23.4077 20.0296 23.3603 20.0773 23.3128 20.125C23.2446 20.1953 23.1804 20.2669 23.1174 20.3419C23.0092 20.4704 22.8927 20.5886 22.7739 20.7069C22.711 20.7696 22.6483 20.8324 22.5856 20.8953C22.553 20.9275 22.553 20.9275 22.5198 20.9604C22.4993 20.981 22.4788 21.0016 22.4577 21.0228C22.4391 21.0414 22.4204 21.06 22.4012 21.0792C22.3534 21.1262 22.3534 21.1262 22.3607 21.1966C22.157 21.1635 22.157 21.1635 22.0706 21.0676C22.0367 21.0193 22.0034 20.9706 21.9706 20.9215C21.9104 20.8362 21.8368 20.7817 21.7553 20.7179C21.6992 20.6496 21.6432 20.5812 21.5871 20.5128C21.5601 20.491 21.533 20.4691 21.5052 20.4466C21.4125 20.3707 21.3426 20.2885 21.2669 20.1959C21.2233 20.144 21.1763 20.0952 21.1289 20.047C21.049 19.9658 21.049 19.9658 20.9839 19.8803C20.9145 19.7895 20.9145 19.7895 20.8136 19.7094C20.7194 19.6296 20.6544 19.5498 20.5782 19.453C20.5449 19.4248 20.5116 19.3966 20.4773 19.3675C20.3833 19.2878 20.3176 19.2079 20.2419 19.1111C20.2162 19.0907 20.1906 19.0702 20.1641 19.0491C20.0169 18.9273 19.9012 18.7768 19.7792 18.6295C19.6696 18.4991 19.5586 18.382 19.4271 18.2742C19.2296 18.1021 19.0579 17.8986 18.8808 17.7054C18.7894 17.606 18.6979 17.5073 18.6032 17.4112C18.5306 17.3372 18.4633 17.2608 18.3964 17.1816C18.2952 17.0645 18.1903 16.9628 18.0716 16.8644C18.0116 16.811 17.9683 16.749 17.9213 16.6838C17.8992 16.6838 17.877 16.6838 17.8541 16.6838C17.843 16.6499 17.8319 16.6161 17.8205 16.5812C17.6909 16.6348 17.6147 16.7197 17.5178 16.8205C17.4802 16.8529 17.4423 16.8849 17.4043 16.9167C17.2944 17.011 17.2032 17.1149 17.1103 17.2261C17.0417 17.3052 16.9695 17.379 16.8956 17.453C16.8006 17.5481 16.7106 17.6445 16.6244 17.7479C16.527 17.8637 16.4206 17.9601 16.3064 18.0585C16.2153 18.1421 16.1374 18.2349 16.058 18.3299C15.9649 18.4398 15.862 18.5393 15.7584 18.6389C15.6941 18.6951 15.6941 18.6951 15.7017 18.7692C15.6816 18.7781 15.6615 18.7869 15.6407 18.7961C15.5616 18.8407 15.5221 18.8835 15.4663 18.9551C15.3945 19.044 15.3264 19.116 15.2309 19.1795C15.2495 19.3042 15.2905 19.3498 15.3864 19.4273C15.5116 19.5329 15.6146 19.6461 15.7171 19.7743C15.7694 19.838 15.7694 19.838 15.8698 19.8632C15.8935 19.9082 15.9157 19.9539 15.9371 20C16.0734 20.1863 16.2353 20.3381 16.4058 20.4914C16.5253 20.5999 16.6328 20.71 16.7343 20.8357C16.8229 20.9437 16.9248 21.0388 17.0238 21.1367C17.1013 21.2173 17.1739 21.2997 17.2466 21.3846C17.3238 21.4738 17.3991 21.5563 17.4904 21.6303C17.5929 21.7159 17.6687 21.811 17.7532 21.9145C17.7816 21.9371 17.8101 21.9597 17.8394 21.9829C17.9213 22.0513 17.9213 22.0513 17.9865 22.1517C18.0639 22.2684 18.1506 22.3389 18.2577 22.4273C18.3025 22.4843 18.3473 22.5413 18.3922 22.5983C18.4421 22.6406 18.4421 22.6406 18.4931 22.6838C18.5873 22.7636 18.6523 22.8434 18.7285 22.9402C18.7772 22.9809 18.826 23.0216 18.8752 23.0618C19.0027 23.1759 19.1086 23.3138 19.216 23.447C19.3255 23.5812 19.4432 23.695 19.5736 23.8082C19.7368 23.9509 19.8748 24.1145 20.0142 24.2806C20.0339 24.3008 20.0535 24.321 20.0737 24.3419C20.0959 24.3419 20.1181 24.3419 20.141 24.3419C20.1486 24.3602 20.1563 24.3785 20.1641 24.3974C20.2689 24.5902 20.4187 24.7253 20.5812 24.8667C20.7306 24.9977 20.8592 25.1449 20.987 25.297C21.0608 25.3808 21.1387 25.4592 21.2172 25.5385C21.2532 25.5749 21.2893 25.6113 21.3253 25.6478C21.3447 25.6674 21.3641 25.687 21.3841 25.7072C21.471 25.7952 21.5579 25.8832 21.6447 25.9712C21.6906 26.0177 21.7365 26.0641 21.7825 26.1105C21.849 26.1777 21.9154 26.245 21.9818 26.3124C22.0024 26.3332 22.023 26.354 22.0443 26.3754C22.1887 26.5221 22.1887 26.5221 22.2261 26.5983C22.3113 26.5636 22.3524 26.5467 22.3943 26.4615C22.4371 26.3744 22.4781 26.3676 22.5624 26.3248C22.6141 26.2785 22.6141 26.2785 22.6611 26.2237C22.6798 26.2029 22.6985 26.1821 22.7178 26.1607C22.738 26.138 22.7582 26.1153 22.7789 26.0919C23.0209 25.824 23.2722 25.5667 23.5269 25.3114C23.6513 25.1863 23.774 25.0616 23.8877 24.9263C24.0619 24.7198 24.2565 24.5324 24.4468 24.3416C24.6789 24.11 24.6789 24.11 24.8976 23.8655C25.0664 23.6647 25.2553 23.4825 25.44 23.297C25.7613 22.9755 25.7613 22.9755 26.0601 22.6325C26.1548 22.5311 26.254 22.4389 26.3586 22.3483C26.4767 22.2445 26.5782 22.1328 26.6791 22.0119C26.7489 21.9296 26.8253 21.8546 26.9009 21.7778C26.9231 21.7496 26.9452 21.7214 26.9681 21.6923C27.0821 21.5475 27.2134 21.4269 27.3507 21.3055C27.4743 21.1949 27.583 21.0785 27.6892 20.9508C27.7585 20.8689 27.8346 20.7943 27.9098 20.7179C27.932 20.689 27.9542 20.6601 27.9771 20.6303C28.0443 20.547 28.0443 20.547 28.1263 20.4808C28.2177 20.4107 28.2177 20.4107 28.2965 20.3077C28.3751 20.2119 28.4536 20.1458 28.5488 20.0684C28.5765 20.0345 28.6043 20.0007 28.6329 19.9658C28.7112 19.8702 28.7898 19.8035 28.8851 19.7265C28.9871 19.6214 28.9871 19.6214 29.0196 19.4872C29.0394 19.4786 29.0592 19.4701 29.0797 19.4613C29.164 19.4132 29.2088 19.3622 29.2697 19.2863C29.3586 19.1793 29.4494 19.0954 29.5577 19.0085C29.5855 18.9747 29.6132 18.9408 29.6418 18.906C29.7259 18.8034 29.7259 18.8034 29.8057 18.7393C29.9524 18.6186 30.0673 18.4682 30.1886 18.3218C30.3 18.1892 30.414 18.0721 30.546 17.9607C30.7042 17.826 30.8366 17.6662 30.9727 17.5093C31.0661 17.4034 31.1642 17.3042 31.2666 17.2073C31.3141 17.164 31.3141 17.164 31.3065 17.094C31.3261 17.0857 31.3456 17.0774 31.3658 17.0689C31.4547 17.0178 31.5039 16.9599 31.5693 16.8803C31.6685 16.7634 31.7688 16.6602 31.8871 16.5636C32.0352 16.435 32.1654 16.287 32.2965 16.141C32.321 16.1139 32.321 16.1139 32.3459 16.0863C32.4298 15.993 32.5117 15.8987 32.5908 15.8013C32.6799 15.6937 32.7804 15.6038 32.8863 15.5136C33.037 15.3796 33.1709 15.2295 33.3055 15.0791C33.5562 14.8006 33.8204 14.5361 34.0846 14.2711C34.1688 14.1843 34.2489 14.0948 34.3291 14.0043C34.5659 13.7399 34.8168 13.4895 35.067 13.2384C35.2684 13.0359 35.2684 13.0359 35.4583 12.8222C35.6375 12.6091 35.839 12.4163 36.0351 12.2194C36.4027 11.8924 36.4027 11.8924 36.6539 11.4872C36.6199 11.459 36.5859 11.4308 36.5509 11.4017C36.3806 11.2534 36.2404 11.0818 36.1011 10.9038C36.0107 10.7986 35.9141 10.711 35.8099 10.6203C35.6465 10.477 35.5079 10.3133 35.3681 10.1468C35.3485 10.1265 35.3289 10.1063 35.3086 10.0855C35.2864 10.0855 35.2642 10.0855 35.2414 10.0855C35.2337 10.0671 35.2261 10.0488 35.2183 10.0299C35.1134 9.83711 34.9637 9.70208 34.8011 9.56062C34.6501 9.42815 34.5211 9.27866 34.3907 9.12593C34.2603 8.97023 34.2603 8.97023 34.0979 8.85469Z" fill="#06AF7F"/>
<path d="M106.65 5.28639C106.676 5.28624 106.701 5.28609 106.727 5.28594C106.813 5.28556 106.898 5.28592 106.984 5.28628C107.046 5.28616 107.108 5.28599 107.169 5.28579C107.339 5.28536 107.51 5.28557 107.68 5.28589C107.863 5.28612 108.047 5.28577 108.23 5.28548C108.59 5.28503 108.949 5.28513 109.309 5.28542C109.602 5.28565 109.894 5.28569 110.187 5.28557C110.229 5.28556 110.27 5.28554 110.313 5.28553C110.398 5.28549 110.482 5.28546 110.567 5.28543C111.339 5.28514 112.11 5.28544 112.882 5.28597C113.585 5.28646 114.288 5.28642 114.991 5.28593C115.781 5.28538 116.571 5.28516 117.361 5.28548C117.446 5.28551 117.53 5.28554 117.615 5.28557C117.677 5.2856 117.677 5.2856 117.741 5.28562C118.032 5.28571 118.324 5.28556 118.616 5.28532C118.972 5.28503 119.329 5.28511 119.685 5.28566C119.867 5.28592 120.048 5.28604 120.23 5.28569C121.173 5.28406 122.087 5.31723 123.014 5.51084C123.039 5.51585 123.063 5.52087 123.089 5.52603C123.483 5.60713 123.854 5.71708 124.223 5.88233C124.302 5.91704 124.382 5.94834 124.462 5.97972C124.64 6.05172 124.806 6.14062 124.973 6.2352C125.002 6.2508 125.03 6.2664 125.059 6.28247C125.243 6.38558 125.41 6.49991 125.575 6.63263C125.625 6.67289 125.625 6.67289 125.676 6.71396C125.705 6.7386 125.735 6.76323 125.766 6.78862C125.811 6.8257 125.811 6.8257 125.857 6.86354C125.947 6.94218 126.03 7.02515 126.113 7.11126C126.135 7.13295 126.157 7.15463 126.18 7.17697C126.342 7.33742 126.482 7.50768 126.617 7.69246C126.643 7.72651 126.643 7.72651 126.669 7.76124C126.735 7.85319 126.786 7.95055 126.84 8.05037C126.87 8.10782 126.902 8.16481 126.935 8.22131C127.628 9.44661 127.764 11.1493 127.424 12.513C127.274 13.0196 127.091 13.4842 126.785 13.9147C126.749 13.9708 126.714 14.0271 126.678 14.0835C126.601 14.201 126.515 14.2948 126.415 14.3933C126.393 14.4335 126.393 14.4335 126.371 14.4745C126.3 14.5877 126.211 14.6615 126.11 14.7476C126.042 14.8049 126.042 14.8049 125.972 14.8805C125.902 14.9493 125.826 14.992 125.743 15.0429C125.712 15.0752 125.712 15.0752 125.68 15.1083C125.607 15.181 125.538 15.2278 125.449 15.2791C125.403 15.3055 125.403 15.3055 125.357 15.3325C125.325 15.3504 125.294 15.3684 125.261 15.3869C125.215 15.414 125.215 15.414 125.167 15.4417C125.003 15.536 124.841 15.6216 124.666 15.6925C124.689 15.7016 124.712 15.7108 124.736 15.7202C124.944 15.806 125.148 15.8989 125.35 16.0002C125.372 16.0111 125.394 16.022 125.417 16.0333C125.55 16.1012 125.67 16.1782 125.79 16.2686C125.847 16.3119 125.847 16.3119 125.928 16.3573C126.044 16.4308 126.144 16.52 126.247 16.6113C126.267 16.6289 126.288 16.6466 126.309 16.6648C126.428 16.7692 126.544 16.874 126.651 16.9916C126.651 17.0142 126.651 17.0367 126.651 17.06C126.673 17.06 126.695 17.06 126.718 17.06C126.772 17.1237 126.772 17.1237 126.834 17.2074C126.915 17.3192 126.915 17.3192 127.008 17.4212C127.06 17.4758 127.085 17.525 127.115 17.5942C127.165 17.7014 127.222 17.7962 127.29 17.8933C127.378 18.0243 127.437 18.1533 127.491 18.3014C127.529 18.4052 127.571 18.507 127.613 18.6091C127.64 18.6739 127.667 18.7387 127.693 18.8036C127.704 18.8297 127.715 18.8559 127.727 18.8829C127.762 18.9776 127.783 19.0682 127.803 19.1674C127.81 19.204 127.817 19.2406 127.825 19.2783C127.832 19.3163 127.839 19.3542 127.847 19.3933C127.854 19.4307 127.862 19.4681 127.869 19.5067C127.929 19.8138 127.967 20.1128 127.969 20.4259C127.969 20.4524 127.97 20.4788 127.97 20.5061C127.97 20.591 127.971 20.6759 127.971 20.7608C127.971 20.7899 127.971 20.8189 127.971 20.8489C127.97 21.2924 127.948 21.7183 127.861 22.154C127.851 22.2112 127.841 22.2684 127.831 22.3256C127.771 22.6478 127.688 22.9465 127.559 23.248C127.548 23.2752 127.537 23.3023 127.525 23.3303C127.381 23.6752 127.191 23.9967 126.987 24.3078C126.965 24.3078 126.943 24.3078 126.92 24.3078C126.911 24.3262 126.903 24.3445 126.895 24.3634C126.795 24.5553 126.682 24.6898 126.519 24.8272C126.445 24.8906 126.445 24.8906 126.368 24.9721C126.281 25.0593 126.192 25.1378 126.098 25.216C126.067 25.2414 126.037 25.2668 126.006 25.293C125.181 25.9426 124.149 26.311 123.131 26.4875C123.059 26.5001 122.986 26.5131 122.914 26.5262C122.581 26.5857 122.246 26.6357 121.909 26.6668C121.878 26.6697 121.847 26.6726 121.815 26.6755C121.381 26.7099 120.947 26.707 120.513 26.708C120.422 26.7084 120.332 26.7087 120.242 26.7091C120.021 26.7099 119.801 26.7106 119.581 26.7112C119.319 26.7119 119.058 26.7128 118.796 26.7137C118.262 26.7156 117.727 26.7172 117.193 26.7187C116.784 26.7199 116.376 26.7211 115.967 26.7224C113.632 26.7298 111.297 26.7363 108.962 26.7373C108.905 26.7374 108.905 26.7374 108.847 26.7374C107.36 26.7381 105.874 26.7364 104.387 26.7352C104.387 22.7526 104.387 18.7701 104.387 14.6668C107.603 14.6274 107.603 14.6274 108.718 14.6268C108.893 14.6266 109.067 14.6263 109.242 14.626C109.54 14.6255 109.839 14.6251 110.137 14.6248C110.61 14.6242 111.082 14.6234 111.555 14.6226C111.719 14.6223 111.882 14.622 112.045 14.6217C112.107 14.6216 112.107 14.6216 112.169 14.6215C112.627 14.6207 113.084 14.6199 113.542 14.6192C113.604 14.6191 113.604 14.6191 113.667 14.619C114.347 14.6179 115.027 14.617 115.707 14.6162C116.411 14.6153 117.114 14.6141 117.818 14.6127C118.25 14.6118 118.681 14.6112 119.113 14.6109C119.407 14.6106 119.701 14.6101 119.995 14.6094C120.164 14.609 120.333 14.6088 120.502 14.6088C120.657 14.6088 120.812 14.6085 120.967 14.608C121.023 14.6078 121.079 14.6078 121.135 14.6079C122.067 14.6094 122.911 14.3881 123.612 13.7281C124.132 13.185 124.353 12.5035 124.397 11.7608C124.399 11.7279 124.401 11.695 124.404 11.6611C124.406 11.5682 124.403 11.4775 124.397 11.3848C124.396 11.3597 124.395 11.3346 124.394 11.3087C124.371 10.8715 124.303 10.4867 124.128 10.0856C124.103 10.0273 124.103 10.0273 124.077 9.9677C123.84 9.48029 123.499 9.14063 123.052 8.85485C123.02 8.82854 123.02 8.82854 122.988 8.8017C122.889 8.73194 122.78 8.6932 122.668 8.65186C122.643 8.64299 122.619 8.63412 122.595 8.62499C122.546 8.60711 122.497 8.58939 122.448 8.57182C122.389 8.55044 122.33 8.52824 122.271 8.5059C122.061 8.43215 121.857 8.39483 121.637 8.373C121.608 8.37008 121.579 8.36716 121.548 8.36415C121.213 8.33338 120.878 8.33274 120.542 8.33381C120.471 8.33378 120.4 8.33372 120.329 8.33363C120.136 8.33348 119.943 8.33375 119.75 8.3341C119.541 8.3344 119.333 8.33429 119.124 8.33424C118.763 8.33421 118.402 8.33442 118.041 8.3348C117.663 8.33521 117.284 8.33547 116.906 8.33555C116.871 8.33555 116.871 8.33555 116.834 8.33556C116.715 8.33558 116.595 8.3356 116.475 8.33562C115.628 8.33577 114.781 8.33623 113.934 8.33688C113.112 8.3375 112.289 8.33799 111.467 8.33828C111.441 8.33829 111.416 8.3383 111.39 8.33831C111.135 8.3384 110.88 8.33848 110.625 8.33857C110.106 8.33874 109.586 8.33893 109.067 8.33914C109.031 8.33915 109.031 8.33915 108.995 8.33917C107.403 8.3398 105.811 8.34088 104.219 8.34203C104.241 8.17852 104.266 8.10211 104.381 7.98306C104.486 7.86892 104.573 7.75645 104.656 7.62409C104.691 7.57388 104.726 7.52403 104.761 7.47451C104.778 7.45098 104.795 7.42745 104.812 7.4032C104.827 7.38583 104.842 7.36847 104.858 7.35058C104.88 7.35058 104.902 7.35058 104.925 7.35058C104.928 7.33106 104.931 7.31153 104.934 7.29142C104.966 7.19208 105.016 7.14164 105.087 7.06639C105.169 6.97539 105.242 6.89164 105.299 6.78221C105.348 6.69292 105.386 6.63539 105.451 6.56172C105.583 6.40736 105.702 6.24355 105.823 6.07921C105.845 6.04883 105.867 6.01844 105.89 5.98713C105.931 5.93086 105.973 5.87457 106.014 5.81824C106.041 5.78136 106.041 5.78136 106.068 5.74374C106.095 5.70512 106.095 5.70512 106.122 5.66571C106.145 5.63664 106.145 5.63664 106.169 5.60699C106.192 5.60699 106.214 5.60699 106.237 5.60699C106.246 5.57526 106.255 5.54353 106.264 5.51084C106.343 5.29639 106.437 5.28423 106.65 5.28639ZM107.515 17.2651C107.515 19.3974 107.515 21.5297 107.515 23.7266C109.87 23.7296 109.87 23.7296 112.225 23.7317C112.543 23.7319 112.862 23.7321 113.18 23.7323C113.24 23.7323 113.24 23.7323 113.301 23.7324C113.943 23.7328 114.585 23.7336 115.227 23.7346C115.887 23.7355 116.547 23.7361 117.207 23.7363C117.614 23.7364 118.02 23.7369 118.427 23.7377C118.706 23.7383 118.986 23.7384 119.265 23.7383C119.426 23.7382 119.587 23.7383 119.748 23.7389C120.316 23.7407 120.881 23.7396 121.447 23.6819C121.485 23.678 121.523 23.6741 121.562 23.6701C121.894 23.6311 122.201 23.5384 122.511 23.413C122.572 23.3886 122.634 23.3663 122.695 23.3444C123.333 23.1071 123.839 22.613 124.162 22.0173C124.181 21.9858 124.199 21.9543 124.219 21.9219C124.625 21.1904 124.575 20.1979 124.389 19.4067C124.322 19.1676 124.214 18.9512 124.095 18.7352C124.079 18.7066 124.064 18.6779 124.048 18.6484C123.886 18.3657 123.647 18.1081 123.388 17.9147C123.366 17.9147 123.344 17.9147 123.321 17.9147C123.321 17.8921 123.321 17.8696 123.321 17.8463C122.567 17.4155 121.857 17.2478 120.994 17.2528C120.936 17.2527 120.877 17.2526 120.818 17.2525C120.659 17.2523 120.5 17.2527 120.341 17.2532C120.168 17.2537 119.996 17.2535 119.823 17.2534C119.525 17.2534 119.227 17.2537 118.929 17.2543C118.498 17.2551 118.067 17.2554 117.636 17.2555C116.936 17.2557 116.237 17.2564 115.537 17.2574C114.858 17.2583 114.179 17.259 113.5 17.2595C113.458 17.2595 113.415 17.2595 113.372 17.2596C113.04 17.2598 112.709 17.26 112.378 17.2602C110.757 17.2611 109.136 17.2632 107.515 17.2651Z" fill="#E3F6F2"/>
<path d="M59.3161 5.29497C59.4732 5.29512 59.6303 5.29507 59.7875 5.29504C60.0588 5.29503 60.3302 5.29513 60.6016 5.29533C60.9939 5.2956 61.3862 5.29569 61.7786 5.29574C62.4153 5.29581 63.052 5.29604 63.6888 5.29636C64.3068 5.29668 64.9249 5.29692 65.543 5.29706C65.5811 5.29707 65.6193 5.29708 65.6587 5.29709C65.8502 5.29713 66.0418 5.29718 66.2333 5.29722C67.8193 5.29757 69.4052 5.2982 70.9912 5.29894C70.9912 6.29176 70.9912 7.28458 70.9912 8.30749C70.6475 8.30834 70.3038 8.3092 69.9497 8.31008C68.8431 8.31286 67.7365 8.31579 66.6298 8.31881C66.4572 8.31928 66.2846 8.31975 66.112 8.32022C66.0604 8.32036 66.0604 8.32036 66.0079 8.3205C65.4555 8.322 64.9032 8.32339 64.3508 8.32474C63.7818 8.32614 63.2127 8.32765 62.6436 8.32926C62.3249 8.33016 62.0063 8.33101 61.6876 8.33173C60.035 8.33461 60.035 8.33461 58.3825 8.35731C58.3494 8.35796 58.3163 8.35862 58.2822 8.35929C57.9676 8.36572 57.6533 8.37519 57.3391 8.39241C57.3147 8.39374 57.2903 8.39507 57.2651 8.39644C57.0685 8.40809 56.8767 8.43311 56.6833 8.46988C56.6509 8.47581 56.6186 8.48174 56.5852 8.48784C56.2956 8.54281 56.0127 8.61707 55.7291 8.69759C55.6572 8.71724 55.5852 8.73491 55.5127 8.7518C55.2448 8.81443 55.0017 8.89717 54.7508 9.01288C54.6649 9.05136 54.5828 9.0819 54.493 9.10877C54.3194 9.16388 54.1659 9.25646 54.0075 9.34595C53.9066 9.4015 53.9066 9.4015 53.7847 9.45279C53.6457 9.51557 53.5238 9.59649 53.3969 9.68128C53.3276 9.72623 53.2568 9.76862 53.1851 9.80936C53.0044 9.91327 52.8454 10.0477 52.683 10.1783C52.6342 10.2175 52.5851 10.2561 52.5359 10.2947C52.031 10.6991 51.6134 11.1827 51.2405 11.7123C51.205 11.7627 51.1686 11.8125 51.1307 11.861C51.0698 11.9483 51.027 12.0405 50.9807 12.1365C50.9426 12.2031 50.9041 12.2693 50.8651 12.3353C50.7838 12.4763 50.7085 12.6151 50.647 12.7661C50.6196 12.8329 50.5902 12.8988 50.5598 12.9643C50.41 13.2964 50.3166 13.6398 50.2303 13.9934C50.2245 14.0168 50.2188 14.0402 50.2129 14.0643C50.1124 14.4772 50.0325 14.8835 50.018 15.3096C50.0167 15.3424 50.0155 15.3751 50.0142 15.4089C50.0055 15.65 49.9991 15.8909 50.0041 16.1322C50.005 16.185 50.0055 16.2377 50.0056 16.2905C50.0088 17.2197 50.1915 18.2098 50.5984 19.0488C50.6414 19.1388 50.6772 19.2288 50.7116 19.3224C50.7699 19.4744 50.8459 19.6084 50.9309 19.7465C50.9751 19.8197 51.0138 19.8934 51.0521 19.9699C51.1906 20.2259 51.3767 20.4534 51.5524 20.6836C51.5782 20.7176 51.604 20.7517 51.6306 20.7868C52.0769 21.3595 52.6453 21.8875 53.2676 22.2562C53.3384 22.3039 53.4091 22.3516 53.4799 22.3994C53.8682 22.6559 54.282 22.8487 54.7139 23.0163C54.777 23.041 54.8399 23.0662 54.9029 23.0914C55.2304 23.2213 55.5601 23.3222 55.9013 23.4079C55.9273 23.4145 55.9533 23.4212 55.9801 23.428C56.4289 23.5414 56.8728 23.6152 57.3347 23.6499C57.4 23.655 57.4653 23.6605 57.5305 23.6667C57.7742 23.6896 58.0155 23.6973 58.2602 23.6975C58.3004 23.6977 58.3406 23.6978 58.382 23.698C58.4922 23.6985 58.6025 23.6987 58.7128 23.699C58.8322 23.6992 58.9516 23.6997 59.071 23.7001C59.2774 23.7009 59.4839 23.7015 59.6903 23.702C59.9888 23.7028 60.2873 23.7038 60.5858 23.7048C61.0701 23.7064 61.5545 23.7079 62.0388 23.7093C62.5091 23.7106 62.9794 23.7121 63.4497 23.7136C63.479 23.7137 63.5083 23.7138 63.5385 23.7138C63.7679 23.7146 63.9972 23.7153 64.2266 23.7161C65.3492 23.7197 66.4718 23.723 67.5944 23.7263C67.5944 21.5263 67.5944 19.3263 67.5944 17.0596C63.6213 17.0596 59.6481 17.0596 55.5545 17.0596C55.6026 16.9618 55.6402 16.8928 55.7045 16.8096C55.7204 16.7891 55.7363 16.7685 55.7526 16.7474C55.7691 16.7263 55.7856 16.7053 55.8025 16.6836C55.8188 16.6625 55.835 16.6414 55.8517 16.6197C55.9203 16.5314 55.988 16.448 56.0666 16.3687C56.1247 16.309 56.1572 16.2583 56.1935 16.1836C56.2615 16.0669 56.2809 16.0502 56.3953 15.9998C56.4331 15.9371 56.4331 15.9371 56.4625 15.863C56.5194 15.7536 56.5857 15.6642 56.6664 15.5724C56.7876 15.4347 56.8982 15.2897 57.0082 15.1428C57.1167 14.9981 57.2278 14.8559 57.3408 14.7148C57.4108 14.6304 57.4108 14.6304 57.4592 14.5093C57.5264 14.4151 57.5623 14.3951 57.6759 14.3709C57.8184 14.3626 57.9593 14.3622 58.102 14.3642C58.1575 14.3641 58.213 14.3639 58.2685 14.3636C58.4211 14.363 58.5737 14.364 58.7264 14.3652C58.8909 14.3662 59.0554 14.3659 59.22 14.3657C59.5051 14.3656 59.7902 14.3663 60.0753 14.3677C60.4875 14.3696 60.8997 14.3702 61.3119 14.3705C61.9807 14.371 62.6494 14.3726 63.3182 14.3749C63.9679 14.3771 64.6176 14.3788 65.2673 14.3798C65.3077 14.3799 65.3482 14.3799 65.3899 14.38C65.7062 14.3805 66.0225 14.381 66.3388 14.3814C67.8896 14.3837 69.4404 14.3885 70.9912 14.393C70.9912 18.4545 70.9912 22.516 70.9912 26.7007C67.6729 26.7048 67.6729 26.7048 66.2824 26.7057C65.9642 26.7059 65.646 26.7061 65.3278 26.7063C65.288 26.7063 65.2481 26.7063 65.207 26.7064C64.5652 26.7068 63.9233 26.7076 63.2815 26.7086C62.6216 26.7095 61.9618 26.7101 61.302 26.7103C60.8956 26.7104 60.4892 26.7109 60.0828 26.7117C59.8032 26.7123 59.5237 26.7124 59.2442 26.7123C59.0834 26.7122 58.9227 26.7123 58.762 26.7129C57.7924 26.7161 56.85 26.6576 55.8929 26.487C55.8639 26.4819 55.8348 26.4768 55.8049 26.4716C55.3651 26.3943 54.9426 26.2924 54.5201 26.1447C54.4065 26.1067 54.2917 26.0781 54.1756 26.0489C53.9188 25.9813 53.6799 25.8816 53.4358 25.7776C53.379 25.7554 53.3223 25.7333 53.2655 25.7113C53.0858 25.6386 52.9147 25.5488 52.7428 25.4591C52.667 25.4209 52.5902 25.3849 52.5123 25.3513C52.3846 25.2952 52.2633 25.2316 52.141 25.1643C52.1199 25.1529 52.0989 25.1415 52.0772 25.1297C51.8837 25.024 51.6921 24.9145 51.5041 24.7989C51.4812 24.7851 51.4584 24.7713 51.4348 24.757C51.4181 24.7441 51.4014 24.7311 51.3843 24.7177C51.3843 24.6952 51.3843 24.6726 51.3843 24.6494C51.3598 24.646 51.3354 24.6427 51.3102 24.6392C51.2028 24.6118 51.1444 24.5719 51.0563 24.5041C51.0082 24.4671 51.0082 24.4671 50.959 24.4294C50.9323 24.4086 50.9323 24.4086 50.9051 24.3874C50.8401 24.337 50.7747 24.2875 50.7091 24.2379C50.447 24.0385 50.1963 23.8337 49.9587 23.6045C49.8934 23.5425 49.8283 23.4859 49.7588 23.4293C49.7292 23.4032 49.6996 23.3771 49.6691 23.3502C49.6691 23.3277 49.6691 23.3051 49.6691 23.2818C49.6392 23.2683 49.6392 23.2683 49.6087 23.2545C49.5315 23.2118 49.4841 23.1687 49.4241 23.104C49.4036 23.082 49.3832 23.0599 49.3621 23.0373C49.3406 23.0136 49.3192 22.99 49.297 22.9656C49.2747 22.9412 49.2524 22.9169 49.2294 22.8917C49.0262 22.667 48.8415 22.4309 48.6601 22.1878C48.616 22.1315 48.5719 22.0753 48.5277 22.019C48.4507 21.9184 48.3861 21.8166 48.3264 21.7041C48.2824 21.6273 48.2321 21.5569 48.1809 21.4848C47.9174 21.1062 47.7148 20.6899 47.5167 20.2733C47.5003 20.2391 47.5003 20.2391 47.4836 20.2041C47.379 19.9841 47.2804 19.7663 47.2064 19.5334C47.18 19.4516 47.1516 19.3708 47.1226 19.29C47.0185 18.9987 46.9238 18.7139 46.8668 18.4087C46.8459 18.3003 46.8211 18.1941 46.7945 18.087C46.4213 16.5606 46.4485 14.747 46.8727 13.2392C46.9017 13.1356 46.9231 13.0326 46.9419 12.9266C46.977 12.7422 47.0386 12.5735 47.1068 12.3994C47.1312 12.3359 47.1556 12.2725 47.18 12.2091C47.1917 12.1788 47.2034 12.1486 47.2155 12.1174C47.2556 12.0132 47.2935 11.9082 47.3317 11.8032C47.4988 11.3645 47.7046 10.9597 47.9539 10.5639C47.9788 10.5219 48.0036 10.4798 48.0282 10.4377C48.0404 10.417 48.0526 10.3963 48.0652 10.375C48.0992 10.317 48.1331 10.259 48.167 10.2011C48.1854 10.1741 48.2039 10.1472 48.2229 10.1195C48.2451 10.1195 48.2673 10.1195 48.2902 10.1195C48.2985 10.0782 48.2985 10.0782 48.307 10.0361C48.3679 9.8892 48.4528 9.79785 48.5602 9.68342C48.6277 9.6052 48.6751 9.52488 48.7274 9.43569C48.7805 9.37626 48.7805 9.37626 48.8367 9.32244C48.9966 9.16468 49.1415 8.99537 49.2802 8.81817C49.3656 8.71868 49.4545 8.63647 49.5532 8.55121C49.6177 8.49413 49.6805 8.4362 49.7429 8.3768C49.7619 8.35871 49.7809 8.34063 49.8005 8.32199C49.8381 8.28608 49.8757 8.25006 49.9131 8.21392C50.0526 8.08116 50.1913 7.95958 50.3753 7.89723C50.392 7.84646 50.392 7.84646 50.4089 7.79467C50.4984 7.7265 50.5977 7.65791 50.7116 7.65791C50.7283 7.60715 50.7283 7.60715 50.7453 7.55535C50.83 7.49512 50.83 7.49512 50.9407 7.42928C50.981 7.40505 51.0212 7.38074 51.0613 7.35637C51.0919 7.33784 51.0919 7.33784 51.1231 7.31894C51.2117 7.2636 51.2967 7.20316 51.3822 7.14296C51.5976 6.99533 51.823 6.88301 52.0569 6.76903C52.0989 6.74754 52.141 6.72599 52.183 6.70439C52.5671 6.50871 52.9602 6.31226 53.3719 6.18516C53.47 6.15344 53.5654 6.1165 53.6612 6.07835C53.9024 5.98274 54.1429 5.90826 54.3953 5.84835C54.5088 5.82136 54.6212 5.79138 54.7337 5.76021C55.0491 5.67299 55.3574 5.59118 55.6831 5.55508C55.8343 5.53825 55.9841 5.51298 56.1342 5.48843C57.1935 5.31589 58.2457 5.29369 59.3161 5.29497Z" fill="#E3F6F2"/>
<path d="M97.8016 5.2828C97.8545 5.28251 97.8545 5.28251 97.9084 5.28223C97.947 5.28272 97.9855 5.28321 98.0251 5.28372C98.0658 5.2837 98.1065 5.28368 98.1485 5.28366C98.2599 5.28373 98.3713 5.28442 98.4828 5.28538C98.5993 5.28623 98.7158 5.28631 98.8324 5.28647C99.0529 5.2869 99.2735 5.28802 99.4941 5.28939C99.7453 5.29092 99.9964 5.29167 100.248 5.29236C100.764 5.29379 101.281 5.29619 101.797 5.29924C101.797 5.40181 101.797 5.40181 101.746 5.45456C101.711 5.48239 101.711 5.48239 101.675 5.51078C101.554 5.61414 101.464 5.72126 101.372 5.85199C101.309 5.9392 101.235 6.01082 101.158 6.08557C100.998 6.24489 100.842 6.40452 100.699 6.57942C100.632 6.65838 100.558 6.72993 100.486 6.80351C100.464 6.83243 100.441 6.86134 100.418 6.89112C100.351 6.97445 100.351 6.97445 100.269 7.04069C100.169 7.12263 100.096 7.21523 100.015 7.31634C99.9588 7.37332 99.9028 7.4303 99.8467 7.48728C99.8155 7.52853 99.8155 7.52853 99.7837 7.57061C99.7246 7.64306 99.6714 7.69521 99.6008 7.75437C99.4654 7.86906 99.3544 7.9999 99.2414 8.13685C99.2064 8.17892 99.1714 8.22095 99.1363 8.26292C99.1216 8.28068 99.107 8.29844 99.0919 8.31674C99.0066 8.41358 98.9148 8.50356 98.8239 8.59482C98.6396 8.77993 98.4579 8.9643 98.2898 9.16503C98.1991 9.26904 98.1007 9.36499 98.0034 9.46257C97.9156 9.55316 97.8345 9.64836 97.753 9.74489C97.6699 9.83995 97.5806 9.928 97.4915 10.0172C97.4068 10.1047 97.3288 10.1972 97.2502 10.2903C97.1646 10.3879 97.0729 10.4785 96.9811 10.5699C96.9147 10.6367 96.9147 10.6367 96.8409 10.7351C96.8229 10.7577 96.8049 10.7803 96.7863 10.8035C96.7641 10.8035 96.7419 10.8035 96.719 10.8035C96.7121 10.8218 96.7051 10.8402 96.698 10.8591C96.6339 10.9717 96.5492 11.0631 96.45 11.1454C96.4278 11.1454 96.4056 11.1454 96.3827 11.1454C96.3797 11.1657 96.3766 11.186 96.3735 11.207C96.3428 11.3013 96.3037 11.3303 96.2272 11.3911C96.0967 11.5014 95.9992 11.6211 95.8977 11.7586C95.8131 11.871 95.7171 11.9652 95.611 12.0563C95.4712 12.1767 95.3736 12.2875 95.2729 12.4445C95.224 12.4858 95.224 12.4858 95.1741 12.5279C95.0902 12.5993 95.0458 12.6462 94.987 12.7351C94.9075 12.855 94.8117 12.9344 94.7012 13.0257C94.6443 13.0934 94.5882 13.1618 94.533 13.2309C94.4769 13.2878 94.4209 13.3448 94.3648 13.4018C94.3326 13.4441 94.3326 13.4441 94.2997 13.4873C94.2339 13.5683 94.1638 13.6289 94.0836 13.6944C93.9553 13.8093 93.8491 13.9483 93.7404 14.082C93.6617 14.1778 93.5876 14.2597 93.4925 14.3398C93.3421 14.4678 93.2212 14.6182 93.0967 14.7717C93.07 14.8044 93.07 14.8044 93.0427 14.8377C93.0269 14.8574 93.0111 14.8772 92.9948 14.8975C92.9523 14.9403 92.9523 14.9403 92.8851 14.9403C92.8779 14.9588 92.8708 14.9773 92.8634 14.9964C92.8013 15.1062 92.7156 15.1866 92.6265 15.2736C92.4893 15.4101 92.3585 15.5485 92.234 15.6972C92.1523 15.7913 92.0639 15.8779 91.976 15.9659C91.8913 16.0533 91.8134 16.1457 91.7349 16.2387C91.6484 16.3374 91.5558 16.4292 91.4625 16.5211C91.3989 16.5845 91.3989 16.5845 91.338 16.6839C91.3158 16.6839 91.2936 16.6839 91.2708 16.6839C91.2638 16.7022 91.2569 16.7205 91.2498 16.7394C91.1856 16.8521 91.101 16.9435 91.0017 17.0257C90.9795 17.0257 90.9573 17.0257 90.9345 17.0257C90.9282 17.0497 90.922 17.0737 90.9156 17.0984C90.8586 17.2141 90.7934 17.2653 90.696 17.3456C90.6095 17.4213 90.5385 17.5067 90.4646 17.5949C90.3799 17.6947 90.2927 17.7919 90.2051 17.889C90.1895 17.9063 90.1739 17.9237 90.1578 17.9416C90.0909 18.0157 90.0232 18.0888 89.9531 18.16C89.886 18.2264 89.886 18.2264 89.8099 18.3227C89.705 18.4503 89.5961 18.5659 89.4676 18.669C89.3555 18.8094 89.3639 18.9151 89.3659 19.091C89.3657 19.1235 89.3654 19.1561 89.3651 19.1896C89.3643 19.2987 89.3648 19.4077 89.3653 19.5168C89.365 19.595 89.3646 19.6732 89.3642 19.7513C89.3632 19.9637 89.3633 20.176 89.3636 20.3883C89.3637 20.6101 89.3629 20.832 89.3621 21.0538C89.361 21.4262 89.3605 21.7986 89.3604 22.171C89.3603 22.5545 89.3599 22.938 89.3589 23.3216C89.3589 23.3452 89.3588 23.3689 89.3588 23.3932C89.3585 23.5119 89.3582 23.6305 89.3579 23.7491C89.3555 24.7331 89.3544 25.717 89.3538 26.701C88.2773 26.701 87.2007 26.701 86.0916 26.701C86.0529 25.3253 86.0529 25.3253 86.0541 24.7503C86.0541 24.6837 86.0541 24.6172 86.0541 24.5507C86.0541 24.3748 86.0543 24.1989 86.0545 24.023C86.0548 23.8375 86.0548 23.6519 86.0548 23.4664C86.0549 23.1171 86.0552 22.7678 86.0555 22.4185C86.0559 22.02 86.0561 21.6215 86.0563 21.2229C86.0566 20.4051 86.0572 19.5872 86.058 18.7693C86.0247 18.758 85.9914 18.7468 85.9571 18.7351C85.9125 18.6804 85.9125 18.6804 85.8667 18.6112C85.7738 18.4799 85.671 18.3803 85.5496 18.2765C85.3987 18.1474 85.2758 17.9998 85.1499 17.8463C85.1236 17.8195 85.0972 17.7927 85.07 17.7651C84.9992 17.693 84.9351 17.6204 84.8704 17.5428C84.7698 17.4244 84.6613 17.3247 84.544 17.2238C84.4523 17.1395 84.3735 17.0462 84.2938 16.9503C84.2389 16.8837 84.2389 16.8837 84.1599 16.8078C84.1074 16.7522 84.1074 16.7522 84.1074 16.6839C84.0803 16.6733 84.0803 16.6733 84.0527 16.6625C83.9419 16.5973 83.852 16.5113 83.771 16.4104C83.771 16.3878 83.771 16.3652 83.771 16.342C83.7511 16.3333 83.7312 16.3245 83.7106 16.3155C83.6289 16.2693 83.5863 16.2229 83.5272 16.1497C83.4029 16.0004 83.2694 15.8635 83.1321 15.7266C82.9771 15.5721 82.829 15.4152 82.6874 15.248C82.5831 15.1287 82.4706 15.0178 82.3585 14.9061C82.2033 14.7513 82.0549 14.5941 81.9129 14.4265C81.8136 14.3127 81.7066 14.207 81.5997 14.1005C81.4578 13.9592 81.3222 13.8164 81.1943 13.6618C81.1269 13.5822 81.0537 13.5093 80.9797 13.436C80.9467 13.4026 80.9138 13.3691 80.8809 13.3356C80.864 13.3184 80.8471 13.3012 80.8296 13.2835C80.6749 13.1262 80.6749 13.1262 80.6246 13.0749C80.5791 13.0288 80.5335 12.9829 80.4878 12.9371C80.4134 12.8605 80.343 12.782 80.2734 12.701C80.1758 12.5886 80.0763 12.4808 79.9707 12.3762C79.6746 12.0806 79.6746 12.0806 79.5756 11.9574C79.4557 11.8084 79.3213 11.6832 79.1783 11.5578C79.0601 11.4523 78.9806 11.3479 78.8945 11.2138C78.8366 11.1592 78.7763 11.1087 78.7151 11.0579C78.641 10.9927 78.5852 10.9158 78.5246 10.8377C78.4968 10.8158 78.4691 10.794 78.4405 10.7715C78.3564 10.701 78.3564 10.701 78.2934 10.6027C78.2192 10.4918 78.1433 10.4236 78.0423 10.3398C77.9683 10.2747 77.9128 10.1976 77.852 10.1198C77.8032 10.079 77.7544 10.0383 77.7052 9.99809C77.5778 9.88401 77.4719 9.74614 77.3644 9.61294C77.255 9.47879 77.1373 9.36512 77.0071 9.25183C76.8819 9.14254 76.777 9.02934 76.6812 8.89326C76.5896 8.76591 76.4866 8.66821 76.3681 8.567C76.2094 8.43114 76.058 8.27321 75.935 8.10266C75.935 8.0801 75.935 8.05753 75.935 8.03428C75.9079 8.02371 75.9079 8.02371 75.8803 8.01292C75.7695 7.9477 75.6796 7.8617 75.5987 7.76078C75.5987 7.73822 75.5987 7.71565 75.5987 7.6924C75.5789 7.68363 75.5592 7.67486 75.5389 7.66583C75.4572 7.62016 75.408 7.57185 75.3451 7.50223C75.323 7.47795 75.3008 7.45367 75.278 7.42866C75.2548 7.40287 75.2316 7.37709 75.2077 7.35052C75.1597 7.29773 75.1116 7.24498 75.0635 7.19227C75.0401 7.16666 75.0167 7.14105 74.9926 7.11466C74.8802 6.9933 74.7628 6.87738 74.6444 6.76198C74.5897 6.70095 74.5897 6.70095 74.5897 6.63257C74.5698 6.62385 74.5499 6.61512 74.5293 6.60613C74.4476 6.55988 74.405 6.51348 74.3459 6.44027C74.2216 6.29096 74.0881 6.1541 73.9508 6.01719C73.4816 5.54944 73.4816 5.54944 73.379 5.33343C73.9301 5.32543 74.4812 5.31941 75.0323 5.31572C75.2882 5.31396 75.5441 5.31156 75.8 5.30764C76.0231 5.30422 76.2463 5.30202 76.4695 5.30126C76.5875 5.30082 76.7056 5.29978 76.8236 5.29728C76.9557 5.29451 77.0878 5.29446 77.2199 5.29462C77.2587 5.29339 77.2974 5.29216 77.3373 5.29089C77.5641 5.29382 77.675 5.33464 77.8383 5.49865C77.8888 5.55657 77.9383 5.6154 77.9865 5.67531C78.0236 5.71877 78.0607 5.76222 78.0979 5.80565C78.1135 5.82465 78.1291 5.84364 78.1452 5.86321C78.2112 5.942 78.2836 6.01326 78.3564 6.08557C78.653 6.38153 78.653 6.38153 78.7516 6.50651C78.8227 6.59923 78.8227 6.59923 78.9071 6.66249C79.0309 6.76436 79.1278 6.8857 79.2308 7.00864C79.3689 7.17147 79.5013 7.3202 79.668 7.45309C79.7248 7.52087 79.7808 7.58927 79.8362 7.65822C79.8646 7.68713 79.8931 7.71604 79.9224 7.74582C80.0044 7.82916 80.0044 7.82916 80.0695 7.91463C80.1385 8.00508 80.1385 8.00508 80.2377 8.08343C80.343 8.17302 80.4224 8.26803 80.5088 8.37616C80.5888 8.45951 80.6705 8.54072 80.7526 8.62189C80.8632 8.73678 80.967 8.8569 81.0711 8.97779C81.1476 9.05968 81.2293 9.12637 81.316 9.19668C81.3305 9.22277 81.3451 9.24886 81.3601 9.27574C81.4308 9.39012 81.5184 9.46247 81.6192 9.54924C81.763 9.67357 81.885 9.81339 82.0065 9.9595C82.0489 10.0091 82.0942 10.0562 82.1399 10.1027C82.2049 10.1687 82.2624 10.234 82.3207 10.3057C82.3892 10.3883 82.4593 10.4592 82.5414 10.5279C82.6248 10.5982 82.6963 10.6703 82.7663 10.7544C82.8762 10.8861 82.9944 11.0071 83.1152 11.1283C83.2305 11.2442 83.3447 11.3591 83.4494 11.4851C83.5607 11.6186 83.6824 11.7404 83.8047 11.8633C83.946 12.0055 84.0826 12.1481 84.2106 12.3028C84.3242 12.4312 84.4471 12.5506 84.5693 12.6705C84.6183 12.7193 84.6657 12.7698 84.7127 12.8206C84.7127 12.8432 84.7127 12.8657 84.7127 12.889C84.7349 12.889 84.7571 12.889 84.78 12.889C84.8215 12.932 84.8215 12.932 84.8725 12.9958C84.9916 13.1389 85.1197 13.2702 85.2508 13.4018C85.3983 13.5501 85.5412 13.6995 85.6757 13.8603C85.7429 13.9398 85.816 14.0124 85.8898 14.0856C86.0384 14.2335 86.1813 14.3827 86.3152 14.5446C86.3822 14.624 86.4552 14.6962 86.5288 14.7693C86.8254 15.0653 86.8254 15.0653 86.924 15.1903C86.9955 15.2833 86.9955 15.2833 87.0816 15.3484C87.1743 15.4242 87.2441 15.5065 87.32 15.5991C87.3882 15.6805 87.4624 15.7546 87.5377 15.8292C87.5662 15.8609 87.5946 15.8926 87.6239 15.9253C87.7042 16.0153 87.7042 16.0153 87.8404 16.0001C87.9032 15.9428 87.9032 15.9428 87.9581 15.8676C88.037 15.7659 88.0964 15.7141 88.2103 15.6582C88.2194 15.6328 88.2284 15.6074 88.2377 15.5813C88.2793 15.4833 88.3053 15.4579 88.3848 15.3933C88.5093 15.2915 88.5986 15.1754 88.6942 15.046C88.7617 14.957 88.8365 14.881 88.9166 14.8035C89.0747 14.6466 89.2257 14.4864 89.3698 14.3161C89.4288 14.2475 89.4922 14.1842 89.5556 14.1198C89.5826 14.0859 89.6097 14.0521 89.6376 14.0172C89.7237 13.9146 89.7237 13.9146 89.812 13.8441C89.8952 13.7831 89.8952 13.7831 89.9381 13.6967C89.9894 13.6125 90.0283 13.5723 90.1021 13.5108C90.239 13.3965 90.35 13.2659 90.4636 13.1283C90.5823 12.9855 90.7034 12.8503 90.8336 12.718C90.8658 12.6757 90.8658 12.6757 90.8987 12.6326C90.9646 12.5514 91.0349 12.4907 91.1154 12.425C91.1759 12.3707 91.2268 12.3125 91.2792 12.2501C91.3984 12.1099 91.5218 11.9745 91.647 11.8398C91.6914 11.792 91.7357 11.7441 91.78 11.6961C91.8018 11.6725 91.8236 11.6489 91.8461 11.6246C91.9399 11.523 92.0332 11.4208 92.1263 11.3185C92.1426 11.3005 92.159 11.2826 92.1758 11.2641C92.2972 11.1303 92.4151 10.9938 92.5312 10.8552C92.5824 10.8035 92.5824 10.8035 92.6497 10.8035C92.6573 10.7852 92.6649 10.7668 92.6728 10.748C92.7934 10.5261 92.9846 10.3477 93.1751 10.1881C93.2477 10.1261 93.2897 10.0838 93.3391 10.0001C93.3891 9.91535 93.4308 9.87571 93.5051 9.8142C93.6151 9.72298 93.6812 9.62506 93.7595 9.50437C93.7921 9.47687 93.8247 9.44937 93.8583 9.42104C93.9585 9.33581 94.0168 9.25781 94.0887 9.14954C94.1468 9.07044 94.2213 9.01791 94.2976 8.95736C94.3517 8.89473 94.4035 8.83079 94.4546 8.76559C94.4694 8.7499 94.4841 8.73421 94.4994 8.71804C94.5216 8.71804 94.5438 8.71804 94.5666 8.71804C94.5743 8.69971 94.5819 8.68138 94.5898 8.66249C94.6672 8.52002 94.7629 8.40725 94.8882 8.30779C94.9754 8.24205 94.9754 8.24205 95.0333 8.14112C95.1061 8.0322 95.1785 7.96727 95.2775 7.88498C95.408 7.76869 95.5169 7.62992 95.6254 7.49262C95.6636 7.44425 95.7035 7.39723 95.7437 7.35052C95.7659 7.35052 95.7881 7.35052 95.811 7.35052C95.8188 7.33131 95.8267 7.31209 95.8348 7.2923C95.889 7.19438 95.9562 7.12924 96.0359 7.05138C96.1605 6.9292 96.2756 6.80225 96.3888 6.66932C96.487 6.55543 96.5894 6.44561 96.6917 6.33557C96.8203 6.19701 96.9487 6.05838 97.0745 5.91716C97.1022 5.88617 97.1022 5.88617 97.1305 5.85455C97.1652 5.81557 97.1998 5.77645 97.2342 5.73718C97.2741 5.69249 97.3159 5.64951 97.358 5.60693C97.3802 5.60693 97.4024 5.60693 97.4253 5.60693C97.4336 5.58155 97.4419 5.55616 97.4505 5.53001C97.5286 5.35537 97.6116 5.28201 97.8016 5.2828Z" fill="#E3F6F2"/>
</g>
<defs>
<clipPath id="clip0_151_1291">
<rect width="128" height="32" fill="white"/>
</clipPath>
</defs>
</svg>
