<svg width="128" height="32" viewBox="0 0 128 32" fill="none" xmlns="http://www.w3.org/2000/svg">
<g clip-path="url(#clip0_151_841)">
<path d="M15.8026 0.0341787C15.8482 0.0345505 15.8482 0.0345505 15.8947 0.0349299C16.4499 0.041753 16.9984 0.166873 17.5239 0.345477C17.6233 0.378997 17.6233 0.378997 17.746 0.405706C17.9028 0.444724 18.0443 0.51001 18.1904 0.57905C18.3372 0.647687 18.4827 0.715353 18.635 0.770557C18.7495 0.813136 18.8457 0.868337 18.9471 0.938025C19.0523 1.00848 19.1545 1.07404 19.2687 1.1282C19.5364 1.25843 19.7715 1.45857 20.0065 1.64102C20.0314 1.66001 20.0564 1.67901 20.0821 1.69858C20.2271 1.81033 20.3585 1.9264 20.4853 2.05888C20.551 2.1262 20.6184 2.19066 20.6875 2.25426C20.7092 2.27432 20.7309 2.29437 20.7532 2.31503C20.8149 2.36891 20.8149 2.36891 20.9145 2.35897C20.9332 2.33499 20.952 2.31102 20.9713 2.28632C21.0549 2.18056 21.1414 2.11397 21.2487 2.03498C21.3115 1.98782 21.3706 1.93882 21.4295 1.88674C21.8387 1.527 22.2529 1.23163 22.7319 0.976353C22.8189 0.92981 22.904 0.881127 22.9891 0.831187C23.114 0.760466 23.2409 0.704799 23.3744 0.653036C23.4463 0.62486 23.5176 0.595237 23.5886 0.564894C23.8238 0.464524 24.0507 0.384763 24.3014 0.331988C24.4205 0.305847 24.5366 0.272999 24.6539 0.239307C25.2055 0.0909385 25.733 0.0509861 26.3029 0.0531173C26.421 0.0534079 26.539 0.0524217 26.657 0.0513394C27.1448 0.0497539 27.6028 0.0927871 28.0779 0.205119C28.102 0.210775 28.1261 0.216432 28.1509 0.22226C28.2958 0.257058 28.4392 0.296265 28.5824 0.337597C28.6239 0.349397 28.6654 0.361197 28.7082 0.373355C28.9926 0.456151 29.2568 0.55455 29.5241 0.683751C29.5821 0.706213 29.6402 0.728315 29.6985 0.749991C29.8589 0.814015 29.9957 0.90456 30.1389 1.00106C30.2237 1.05554 30.3078 1.09996 30.3985 1.14315C30.5955 1.24046 30.7625 1.37024 30.9366 1.50426C30.9787 1.53541 31.0209 1.56648 31.0631 1.59748C31.4845 1.9092 31.8913 2.25724 32.2272 2.66452C32.3215 2.77595 32.4207 2.86973 32.5347 2.95993C32.5845 3.00854 32.5845 3.00854 32.6168 3.07544C32.659 3.15975 32.7085 3.20268 32.78 3.26281C32.9389 3.40001 33.0804 3.54523 33.2172 3.70512C33.3047 3.80632 33.3935 3.89796 33.4947 3.98503C33.6045 4.07966 33.6957 4.18032 33.7883 4.29206C33.9117 4.4318 34.0451 4.56178 34.1779 4.69237C34.1979 4.71236 34.218 4.73234 34.2386 4.75293C34.2568 4.77088 34.2751 4.78884 34.2938 4.80733C34.3333 4.85469 34.3333 4.85469 34.3333 4.92307C34.3533 4.93211 34.3734 4.94115 34.394 4.95047C34.4707 4.99302 34.5154 5.03453 34.5739 5.10002C34.5941 5.12234 34.6143 5.14467 34.6352 5.16767C34.6569 5.19201 34.6787 5.21636 34.7012 5.24144C34.9498 5.51512 35.2067 5.77918 35.4677 6.0407C35.5907 6.16453 35.7121 6.28776 35.8244 6.42173C35.9946 6.62348 36.1842 6.80694 36.3701 6.99358C36.5846 7.20897 36.7967 7.42265 36.9902 7.65811C37.0458 7.71549 37.1019 7.77244 37.1583 7.82905C37.1973 7.86838 37.1973 7.86838 37.237 7.90851C37.2635 7.93517 37.2899 7.96184 37.3172 7.98931C37.377 8.04985 37.4369 8.11039 37.4968 8.17093C37.527 8.20134 37.5571 8.23175 37.5883 8.26308C37.632 8.30737 37.632 8.30737 37.6766 8.35256C37.703 8.37922 37.7294 8.40588 37.7566 8.43335C37.8315 8.51336 37.8983 8.59702 37.9655 8.68375C38.0601 8.78522 38.1594 8.87746 38.264 8.96794C38.3806 9.07048 38.4805 9.18048 38.5802 9.2998C38.6974 9.43685 38.8276 9.56135 38.9555 9.68803C39.0317 9.76737 39.104 9.84852 39.1762 9.93161C39.2962 10.0697 39.4213 10.1998 39.5517 10.3278C39.6921 10.4676 39.8109 10.5995 39.9161 10.7692C39.968 10.8318 40.0211 10.8928 40.0752 10.9534C40.1179 11.0085 40.1179 11.0085 40.1515 11.1111C40.1708 11.13 40.19 11.1488 40.2098 11.1683C40.3142 11.2773 40.3856 11.4001 40.4626 11.5299C40.4869 11.5707 40.4869 11.5707 40.5118 11.6123C40.6505 11.8479 40.7738 12.089 40.8898 12.3369C40.9162 12.392 40.9437 12.4465 40.9717 12.5008C41.1048 12.7613 41.2061 13.0243 41.295 13.3034C41.3021 13.3257 41.3093 13.3481 41.3166 13.371C41.5825 14.2109 41.7062 15.0914 41.707 15.9722C41.707 16.0105 41.707 16.0105 41.707 16.0496C41.7064 16.507 41.6732 16.9503 41.5977 17.4017C41.5924 17.4352 41.5872 17.4688 41.5818 17.5034C41.4258 18.4864 41.0944 19.5146 40.535 20.3402C40.4425 20.4776 40.3611 20.622 40.2771 20.7649C40.2188 20.8547 40.2188 20.8547 40.1515 20.8889C40.1317 20.9322 40.1317 20.9322 40.1116 20.9765C40.0329 21.1282 39.9285 21.2415 39.8152 21.3675C39.7752 21.4137 39.7352 21.46 39.6954 21.5064C39.6759 21.5289 39.6565 21.5514 39.6364 21.5746C39.5999 21.6174 39.5639 21.6606 39.5284 21.7042C39.4268 21.8289 39.3203 21.9346 39.1979 22.0382C39.0619 22.1545 38.9455 22.2887 38.8273 22.4231C38.7013 22.5662 38.5716 22.7036 38.4363 22.8376C38.3358 22.9372 38.2417 23.0391 38.1505 23.1474C38.0621 23.2514 37.9702 23.3329 37.8646 23.4188C37.8287 23.4594 37.7935 23.5007 37.7587 23.5423C37.6308 23.6925 37.4949 23.8327 37.3559 23.9722C37.3211 24.0074 37.3211 24.0074 37.2856 24.0432C37.1909 24.1389 37.0959 24.2345 37.0008 24.3299C36.9169 24.4164 36.837 24.5059 36.7569 24.5961C36.5275 24.852 36.2851 25.0948 36.0428 25.3379C35.8486 25.5334 35.8486 25.5334 35.6656 25.7397C35.4797 25.9604 35.2705 26.1602 35.0673 26.3643C35.0121 26.4198 34.957 26.4753 34.9019 26.531C34.8843 26.5487 34.8667 26.5665 34.8486 26.5848C34.7317 26.7036 34.6217 26.8263 34.5177 26.9571C34.4679 27.0085 34.4679 27.0085 34.3986 27.0413C34.3158 27.0865 34.3052 27.1283 34.2661 27.2137C34.2242 27.2614 34.1804 27.3074 34.1354 27.352C34.1093 27.3781 34.0833 27.4042 34.0565 27.4311C34.0292 27.4581 34.002 27.485 33.9739 27.5128C33.8006 27.6851 33.6313 27.8578 33.4738 28.0453C33.3676 28.1707 33.2504 28.2797 33.1268 28.3867C33.0072 28.4915 32.9051 28.6047 32.8046 28.7282C32.7527 28.7863 32.7527 28.7863 32.6518 28.8547C32.6379 28.8801 32.624 28.9055 32.6097 28.9316C32.5442 29.0363 32.4728 29.0958 32.3793 29.1736C32.2904 29.2532 32.2157 29.3428 32.1397 29.435C31.7842 29.848 31.3671 30.2128 30.9245 30.525C30.8745 30.5604 30.8253 30.5967 30.7761 30.6331C30.61 30.7553 30.44 30.859 30.2587 30.9561C30.1588 31.0109 30.0625 31.0703 29.9655 31.1303C29.7968 31.2311 29.6272 31.3062 29.4432 31.3731C29.3381 31.4128 29.2364 31.4564 29.1336 31.5016C28.9232 31.5912 28.7106 31.6554 28.4899 31.7137C28.4325 31.729 28.4325 31.729 28.3739 31.7447C27.5459 31.9626 26.7411 31.9761 25.8919 31.9658C25.8622 31.9656 25.8325 31.9653 25.8019 31.9651C25.2581 31.958 24.6992 31.8429 24.1891 31.652C24.1137 31.6254 24.0429 31.6099 23.9644 31.5961C23.7735 31.5568 23.6035 31.4634 23.4295 31.3777C23.3181 31.323 23.205 31.275 23.09 31.2286C22.931 31.1625 22.7879 31.0832 22.6424 30.9906C22.5638 30.941 22.484 30.8954 22.4027 30.8504C22.283 30.7832 22.1678 30.7155 22.058 30.6325C22.058 30.6099 22.058 30.5873 22.058 30.5641C22.0399 30.5613 22.0219 30.5585 22.0033 30.5555C21.8313 30.5003 21.7119 30.3832 21.5871 30.2564C21.5545 30.2345 21.5219 30.2127 21.4883 30.1902C21.3838 30.1186 21.305 30.0402 21.2172 29.9487C21.1895 29.9269 21.1617 29.905 21.1331 29.8825C21.0337 29.7991 20.9611 29.7093 20.8809 29.6068C20.7146 29.7501 20.5521 29.897 20.3909 30.0462C20.3096 30.1192 20.2261 30.188 20.141 30.2564C20.1156 30.2778 20.0902 30.2992 20.064 30.3212C19.889 30.4672 19.7097 30.5962 19.5172 30.7173C19.4551 30.7564 19.3941 30.7976 19.3339 30.8397C19.2103 30.9209 19.0822 30.991 18.9526 31.0617C18.8816 31.1008 18.8124 31.1414 18.7432 31.1838C18.6266 31.2484 18.5108 31.2977 18.3871 31.3459C18.3187 31.3735 18.251 31.4032 18.184 31.434C17.9141 31.5582 17.649 31.6423 17.3603 31.7084C17.2724 31.7288 17.1848 31.7501 17.0971 31.7716C16.3228 31.9612 15.5905 31.9757 14.7937 31.9658C14.7633 31.9656 14.7329 31.9653 14.7016 31.9651C13.8647 31.9548 12.95 31.7135 12.2037 31.3329C12.122 31.2916 12.0442 31.2582 11.9581 31.2286C11.8252 31.176 11.712 31.1092 11.5915 31.0323C11.5129 30.9837 11.4337 30.9387 11.3529 30.8941C11.2023 30.8095 11.0618 30.7149 10.9219 30.6132C10.8976 30.5957 10.8733 30.5781 10.8482 30.56C10.6774 30.4354 10.5104 30.3063 10.3459 30.1731C10.3153 30.1483 10.3153 30.1483 10.284 30.123C10.1206 29.9886 9.97433 29.8436 9.83937 29.6795C9.73713 29.5592 9.62702 29.456 9.50818 29.3531C9.38057 29.2418 9.26967 29.1187 9.16044 28.9893C9.09337 28.9102 9.03339 28.8472 8.95235 28.782C8.87458 28.7179 8.87458 28.7179 8.81362 28.6218C8.73236 28.5014 8.64288 28.4228 8.5317 28.332C8.471 28.2735 8.471 28.2735 8.43764 28.2022C8.39437 28.1187 8.35181 28.1081 8.26922 28.0684C8.21286 28.0091 8.21286 28.0091 8.15781 27.9402C8.08201 27.8488 8.00708 27.768 7.91609 27.6923C7.80395 27.5985 7.71199 27.4935 7.61827 27.381C7.56912 27.3234 7.51835 27.2705 7.46417 27.2179C7.39481 27.1453 7.39481 27.1453 7.39481 27.0769C7.37677 27.0699 7.35874 27.0628 7.34016 27.0555C7.22935 26.9903 7.13943 26.9043 7.0585 26.8034C7.0585 26.7808 7.0585 26.7583 7.0585 26.735C7.02825 26.7212 7.02825 26.7212 6.9974 26.7072C6.92346 26.6664 6.88121 26.6287 6.82531 26.5656C6.80661 26.5448 6.7879 26.524 6.76863 26.5026C6.74845 26.4799 6.72826 26.4572 6.70747 26.4338C6.46551 26.1659 6.21423 25.9086 5.95952 25.6533C5.8355 25.5285 5.7131 25.4042 5.59975 25.2692C5.43573 25.0748 5.25345 24.8978 5.07426 24.7179C4.68013 24.3224 4.68013 24.3224 4.55311 24.1711C4.39019 23.977 4.20808 23.8009 4.0296 23.6218C3.6106 23.2013 3.6106 23.2013 3.42634 22.9744C3.33158 22.873 3.23244 22.7807 3.12786 22.6902C3.01422 22.5899 2.91567 22.4838 2.81835 22.3674C2.74096 22.2754 2.66135 22.1858 2.58136 22.0961C2.55422 22.0657 2.52708 22.0352 2.49912 22.0039C2.39389 21.8888 2.2847 21.7785 2.17371 21.6692C2.03101 21.5278 1.90343 21.386 1.78787 21.2209C1.74279 21.1562 1.74279 21.1562 1.66701 21.0876C1.59786 21.0121 1.58768 20.9558 1.57663 20.8547C1.54333 20.8434 1.51004 20.8321 1.47573 20.8205C1.34399 20.6566 1.24509 20.4647 1.14638 20.279C1.10887 20.2107 1.0684 20.1463 1.02592 20.0812C0.895701 19.8728 0.802117 19.6432 0.702217 19.4188C0.681733 19.3745 0.681733 19.3745 0.660835 19.3293C0.592284 19.1793 0.540932 19.0303 0.497146 18.871C0.474961 18.7966 0.449728 18.7231 0.42279 18.6504C0.29353 18.2985 0.218587 17.9414 0.153609 17.5726C0.149275 17.5482 0.144941 17.5237 0.140475 17.4985C0.0536617 17.004 0.0215213 16.5275 0.0211869 16.0256C0.0211642 15.995 0.0211415 15.9644 0.0211182 15.9329C0.021627 15.5008 0.033384 15.0791 0.113656 14.6535C0.132535 14.5532 0.149393 14.4527 0.166352 14.352C0.241676 13.9232 0.350715 13.5275 0.51007 13.1236C0.539825 13.0445 0.561712 12.9644 0.582406 12.8825C0.64599 12.6532 0.764477 12.4447 0.871998 12.2342C0.914332 12.1505 0.954245 12.0656 0.994387 11.9808C1.05281 11.8616 1.11932 11.7571 1.19801 11.6509C1.26311 11.5568 1.31486 11.4559 1.36775 11.3543C1.41019 11.279 1.45392 11.2113 1.50936 11.1453C1.53156 11.1453 1.55376 11.1453 1.57663 11.1453C1.58495 11.104 1.58495 11.104 1.59344 11.062C1.66594 10.8869 1.78628 10.7699 1.91294 10.6325C1.95379 10.5857 1.99444 10.5387 2.03485 10.4914C2.05397 10.4693 2.07309 10.4471 2.09278 10.4243C2.12921 10.3815 2.16522 10.3383 2.20077 10.2947C2.27947 10.1985 2.3537 10.1166 2.44893 10.0363C2.59654 9.91076 2.71586 9.76381 2.83766 9.61284C2.9455 9.48064 3.06049 9.36759 3.19 9.2572C3.33106 9.13176 3.45757 8.99227 3.58464 8.85256C3.8463 8.56512 4.1165 8.28725 4.3908 8.01228C4.51482 7.88745 4.63721 7.76318 4.75056 7.6282C4.9309 7.41439 5.13291 7.22056 5.32994 7.02283C5.57056 6.78303 5.57056 6.78303 5.79733 6.52991C5.97585 6.31724 6.17693 6.12508 6.37251 5.92881C6.42538 5.87569 6.47817 5.82248 6.53091 5.76922C6.54776 5.75223 6.5646 5.73524 6.58196 5.71773C6.69809 5.59966 6.80681 5.47736 6.91044 5.34788C6.9576 5.29914 6.9576 5.29914 7.0585 5.26495C7.06751 5.24591 7.07653 5.22687 7.08582 5.20726C7.14368 5.09272 7.22954 5.00429 7.32755 4.92307C7.34974 4.92307 7.37194 4.92307 7.39481 4.92307C7.40257 4.90394 7.41033 4.88481 7.41832 4.86511C7.47358 4.76559 7.54298 4.69885 7.62392 4.61965C7.76401 4.48062 7.76401 4.48062 7.89297 4.33119C7.96853 4.23682 8.04905 4.1533 8.13469 4.06837C8.15221 4.04981 8.16972 4.03126 8.18777 4.01214C8.23608 3.96124 8.28617 3.9121 8.33648 3.86324C8.35868 3.86324 8.38087 3.86324 8.40374 3.86324C8.41228 3.84292 8.42082 3.82261 8.42962 3.80167C8.47562 3.7181 8.52162 3.67688 8.59502 3.61751C8.72402 3.50705 8.8215 3.38675 8.9224 3.24999C9.02459 3.11422 9.14672 3.00576 9.27395 2.89529C9.39222 2.79136 9.49374 2.67942 9.59502 2.55862C9.72268 2.40732 9.86726 2.27769 10.0159 2.14849C10.0677 2.10147 10.1177 2.05241 10.1666 2.00239C10.529 1.63567 10.9662 1.30943 11.4194 1.0681C11.5041 1.02224 11.5865 0.972985 11.6692 0.923543C11.847 0.817831 12.0232 0.721045 12.2171 0.648762C12.2796 0.625004 12.3413 0.598916 12.4023 0.571305C12.7008 0.439195 13.0081 0.349892 13.3223 0.264948C13.344 0.259049 13.3657 0.253151 13.388 0.247073C14.1934 0.0292201 14.9732 0.0239042 15.8026 0.0341787ZM19.1972 5.63674C19.1638 5.67013 19.1638 5.67013 19.1296 5.70418C19.1085 5.72556 19.0875 5.74693 19.0657 5.76895C19.0462 5.78865 19.0267 5.80834 19.0066 5.82863C18.9567 5.87781 18.9567 5.87781 18.9639 5.94871C18.9458 5.95558 18.9277 5.96246 18.909 5.96954C18.7962 6.03692 18.7182 6.13263 18.6318 6.23076C18.3891 6.50132 18.1349 6.7594 17.8786 7.01652C17.7497 7.14638 17.6219 7.27534 17.504 7.41572C17.3242 7.62921 17.1224 7.82257 16.9258 8.01989C16.7399 8.20665 16.5553 8.39286 16.386 8.5956C16.2814 8.7202 16.1645 8.82777 16.0422 8.93375C15.9226 9.03855 15.8205 9.15167 15.72 9.27523C15.6681 9.33332 15.6681 9.33332 15.5672 9.4017C15.5533 9.42708 15.5394 9.45247 15.5251 9.47862C15.4596 9.58332 15.3882 9.64281 15.2947 9.72061C15.2039 9.80186 15.1281 9.89384 15.0497 9.98717C14.9398 10.117 14.8191 10.2294 14.6907 10.3397C14.5781 10.4383 14.505 10.54 14.4237 10.6667C14.3754 10.7082 14.3269 10.7496 14.2771 10.7893C14.1892 10.8663 14.1172 10.9565 14.0418 11.0459C13.9263 11.182 13.7985 11.2995 13.6649 11.4167C13.5468 11.522 13.4664 11.6262 13.3811 11.7607C13.3145 11.8184 13.2472 11.8753 13.1794 11.9316C13.1232 11.9999 13.0671 12.0682 13.0112 12.1367C12.9842 12.1586 12.9571 12.1805 12.9292 12.203C12.8365 12.2788 12.7667 12.3611 12.6908 12.4537C12.5999 12.5622 12.4979 12.6593 12.3974 12.7585C12.2869 12.8734 12.1831 12.9935 12.079 13.1144C12.0024 13.1964 11.9212 13.2633 11.8341 13.3333C11.8064 13.3672 11.7786 13.401 11.75 13.4359C11.666 13.5385 11.666 13.5385 11.5861 13.6026C11.4394 13.7233 11.3246 13.8737 11.2033 14.02C11.0936 14.1505 10.9826 14.2675 10.8512 14.3754C10.678 14.5263 10.5265 14.7023 10.3712 14.8718C10.1412 15.1227 10.1412 15.1227 10.0272 15.2384C9.95462 15.3123 9.8874 15.3887 9.82045 15.4679C9.73873 15.5624 9.65747 15.6487 9.56191 15.7286C9.48048 15.7968 9.41143 15.8668 9.34331 15.9487C9.12851 16.2059 8.88382 16.4369 8.64783 16.6737C8.58566 16.7379 8.52754 16.8026 8.471 16.8718C8.36976 16.9958 8.25746 17.1071 8.14433 17.2198C8.08146 17.2825 8.01874 17.3453 7.95603 17.4081C7.92348 17.4403 7.92348 17.4403 7.89028 17.4732C7.86979 17.4938 7.84931 17.5144 7.8282 17.5357C7.80955 17.5543 7.79089 17.5729 7.77167 17.592C7.7239 17.6391 7.7239 17.6391 7.73112 17.7094C7.71131 17.7179 7.69149 17.7265 7.67108 17.7353C7.58674 17.7834 7.54197 17.8344 7.48099 17.9102C7.39196 18.0175 7.30086 18.1003 7.19302 18.188C7.15986 18.226 7.12736 18.2645 7.09528 18.3034C6.9088 18.5224 6.70278 18.7225 6.50014 18.9259C6.25979 19.1653 6.25979 19.1653 6.03341 19.4183C5.9338 19.537 5.8269 19.6473 5.71785 19.7569C5.70028 19.7746 5.6827 19.7923 5.6646 19.8105C5.59149 19.8839 5.51826 19.9571 5.44489 20.0302C5.39069 20.0843 5.33671 20.1385 5.28275 20.1928C5.26618 20.2092 5.24961 20.2256 5.23254 20.2425C5.14928 20.3265 5.08496 20.4017 5.04063 20.5128C5.0581 20.5281 5.07557 20.5434 5.09357 20.5592C5.27078 20.7153 5.43695 20.8739 5.58924 21.0555C5.67015 21.1508 5.75333 21.2349 5.84778 21.3162C5.93548 21.392 6.01313 21.4683 6.0874 21.5577C6.30104 21.8141 6.54499 22.0444 6.78038 22.2799C6.864 22.3665 6.93876 22.4577 7.0137 22.5519C7.02848 22.5672 7.04327 22.5825 7.0585 22.5983C7.08069 22.5983 7.10289 22.5983 7.12576 22.5983C7.13261 22.6164 7.13946 22.6346 7.14652 22.6533C7.21303 22.7702 7.30411 22.8552 7.39901 22.9487C7.41796 22.9677 7.4369 22.9866 7.45642 23.0061C7.503 23.0527 7.54977 23.099 7.59659 23.1453C7.76756 23.0015 7.9197 22.8499 8.06953 22.6838C8.32395 22.4049 8.58726 22.1359 8.8535 21.8688C8.98155 21.7399 9.10832 21.6117 9.22547 21.4723C9.39924 21.2661 9.5936 21.0791 9.78362 20.8886C10.0163 20.6564 10.0163 20.6564 10.2356 20.4113C10.4146 20.1984 10.6159 20.0058 10.8118 19.8092C10.9977 19.6224 11.1823 19.4362 11.3516 19.2334C11.4562 19.1088 11.5731 19.0013 11.6954 18.8953C11.8144 18.7908 11.9168 18.6781 12.0184 18.5563C12.077 18.4869 12.1404 18.4236 12.2041 18.359C12.2372 18.32 12.2701 18.2808 12.3028 18.2414C12.4267 18.0935 12.5589 17.9614 12.7043 17.8355C12.8225 17.7316 12.924 17.62 13.0249 17.4991C13.0947 17.4168 13.1711 17.3418 13.2466 17.2649C13.2688 17.236 13.291 17.2071 13.3139 17.1773C13.3811 17.094 13.3811 17.094 13.461 17.0299C13.5545 16.953 13.6252 16.8701 13.7021 16.7767C13.8144 16.642 13.9415 16.5274 14.0727 16.4124C14.1907 16.307 14.2712 16.2029 14.3564 16.0684C14.4231 16.0107 14.4904 15.9537 14.5582 15.8974C14.6144 15.8292 14.6705 15.7608 14.7264 15.6923C14.7824 15.6467 14.8385 15.6011 14.8945 15.5555C14.9223 15.5217 14.95 15.4879 14.9786 15.453C15.057 15.3574 15.1356 15.2906 15.2309 15.2137C15.3328 15.1086 15.3328 15.1086 15.3654 14.9743C15.3856 14.9654 15.4059 14.9564 15.4267 14.9471C15.5039 14.9037 15.5406 14.8649 15.5945 14.7949C15.6823 14.686 15.7771 14.5988 15.8836 14.5095C15.9563 14.4444 16.0115 14.3675 16.0716 14.2906C16.1204 14.2498 16.1692 14.2091 16.2184 14.1689C16.3462 14.0545 16.4523 13.916 16.5603 13.7826C16.6621 13.6583 16.7683 13.5525 16.8906 13.4491C17.0473 13.3151 17.1795 13.1574 17.3139 13.0011C17.3904 12.915 17.4703 12.8336 17.5514 12.7521C17.5868 12.7162 17.6222 12.6802 17.6576 12.6442C17.7325 12.568 17.8075 12.4918 17.8825 12.4156C17.9004 12.3973 17.9184 12.379 17.9369 12.3602C17.9841 12.3122 18.0315 12.2645 18.079 12.2169C18.1472 12.1466 18.2114 12.075 18.2745 12C18.3816 11.8726 18.4969 11.7554 18.6147 11.6382C18.6731 11.5801 18.7313 11.5219 18.7894 11.4637C18.8196 11.4339 18.8196 11.4339 18.8503 11.4035C18.9007 11.3529 18.9493 11.3005 18.9975 11.2479C18.9975 11.2253 18.9975 11.2027 18.9975 11.1795C19.0174 11.1711 19.0372 11.1627 19.0576 11.1541C19.1675 11.0906 19.2282 10.9959 19.3043 10.895C19.3675 10.8376 19.3675 10.8376 19.4506 10.8202C19.5652 10.8436 19.5978 10.891 19.6702 10.9829C19.7644 11.0982 19.8566 11.1895 19.9728 11.282C20.0289 11.3504 20.0849 11.4188 20.141 11.4872C20.1805 11.5189 20.1805 11.5189 20.2209 11.5513C20.3447 11.6531 20.4415 11.7745 20.5446 11.8974C20.6827 12.0602 20.815 12.209 20.9818 12.3419C21.0378 12.4102 21.0939 12.4786 21.1499 12.547C21.1895 12.5787 21.1895 12.5787 21.2298 12.6111C21.3765 12.7318 21.4913 12.8822 21.6126 13.0286C21.7241 13.1612 21.8381 13.2784 21.9702 13.3898C22.1409 13.5351 22.2828 13.7096 22.4283 13.8799C22.4504 13.9026 22.4724 13.9253 22.4952 13.9487C22.5174 13.9487 22.5396 13.9487 22.5624 13.9487C22.5708 13.9677 22.5791 13.9868 22.5877 14.0064C22.6829 14.1856 22.818 14.3074 22.968 14.4383C23.1284 14.5794 23.266 14.7397 23.4058 14.9012C23.4565 14.9585 23.5094 15.0139 23.563 15.0684C23.6386 15.1453 23.6386 15.1453 23.708 15.235C23.7693 15.3115 23.8278 15.3637 23.9077 15.4188C24.0372 15.3651 24.1134 15.2803 24.2104 15.1795C24.248 15.1471 24.2858 15.1151 24.3239 15.0833C24.4314 14.9907 24.5219 14.89 24.6132 14.7811C24.6971 14.6821 24.7835 14.5856 24.8704 14.4893C24.8857 14.4722 24.901 14.4552 24.9168 14.4376C25.0485 14.2916 25.1809 14.1481 25.3328 14.0235C25.4465 13.9261 25.5416 13.8178 25.6378 13.7028C25.6969 13.633 25.7606 13.5693 25.8247 13.5043C25.8578 13.4653 25.8907 13.4261 25.9235 13.3867C26.0978 13.1787 26.2956 13.0005 26.4973 12.8205C26.4786 12.6958 26.4376 12.6502 26.3417 12.5726C26.2189 12.4685 26.1158 12.3574 26.0123 12.2338C25.9029 12.1042 25.7824 11.9924 25.6544 11.8825C25.5418 11.7838 25.4695 11.6819 25.3875 11.5555C25.3302 11.5017 25.2707 11.452 25.2102 11.402C25.1544 11.3525 25.1098 11.3023 25.0638 11.2436C24.9891 11.1448 24.9891 11.1448 24.9019 11.0791C24.8092 11.0032 24.7394 10.9209 24.6635 10.8284C24.572 10.7191 24.4691 10.6213 24.368 10.5214C24.2906 10.4408 24.2179 10.3584 24.1452 10.2735C24.0681 10.1843 23.9928 10.1018 23.9014 10.0278C23.799 9.94218 23.7231 9.84709 23.6386 9.74358C23.6102 9.72102 23.5818 9.69845 23.5525 9.67521C23.4705 9.60683 23.4705 9.60683 23.4074 9.50854C23.3337 9.39826 23.2586 9.32895 23.1583 9.24518C23.0253 9.13332 22.9131 9.00362 22.8 8.87179C22.695 8.75048 22.5839 8.65023 22.4615 8.547C22.362 8.43884 22.2682 8.32566 22.1758 8.21113C22.0663 8.0769 21.9486 7.96314 21.8182 7.84988C21.655 7.70717 21.517 7.54361 21.3776 7.37753C21.358 7.3573 21.3383 7.33707 21.3181 7.31623C21.2959 7.31623 21.2737 7.31623 21.2508 7.31623C21.2394 7.28873 21.2394 7.28873 21.2277 7.26067C21.1229 7.06787 20.9731 6.93285 20.8106 6.79139C20.6613 6.66038 20.5327 6.51317 20.4048 6.3611C20.3311 6.2773 20.253 6.19897 20.1746 6.11965C20.118 6.06175 20.0615 6.00383 20.0049 5.9459C19.9573 5.89727 19.9097 5.84863 19.862 5.80001C19.8291 5.76639 19.7963 5.73273 19.7634 5.69905C19.7158 5.6502 19.668 5.60147 19.6202 5.55274C19.5919 5.52375 19.5636 5.49476 19.5344 5.46489C19.3976 5.33389 19.3042 5.52813 19.1972 5.63674ZM34.0979 8.85469C34.0516 8.89878 34.0069 8.9445 33.9634 8.99144C33.9634 9.01401 33.9634 9.03657 33.9634 9.05982C33.9454 9.06687 33.9273 9.07392 33.9087 9.08119C33.7979 9.1464 33.708 9.23241 33.6271 9.33332C33.6271 9.35589 33.6271 9.37845 33.6271 9.4017C33.6079 9.40963 33.5888 9.41757 33.569 9.42574C33.4731 9.48136 33.418 9.54759 33.3454 9.63247C33.1238 9.88637 32.8854 10.1234 32.6478 10.3617C32.453 10.5578 32.453 10.5578 32.2696 10.7647C32.1656 10.8883 32.0541 11.0028 31.9404 11.1172C31.9219 11.1358 31.9034 11.1544 31.8844 11.1736C31.8073 11.251 31.7302 11.3282 31.6528 11.4054C31.5958 11.4623 31.539 11.5195 31.4822 11.5766C31.4645 11.5941 31.4469 11.6116 31.4287 11.6296C31.3867 11.672 31.3464 11.7162 31.3065 11.7607C31.3065 11.7832 31.3065 11.8058 31.3065 11.8291C31.2843 11.8291 31.2621 11.8291 31.2393 11.8291C31.1842 11.8844 31.1842 11.8844 31.1279 11.9551C31.0354 12.0673 30.9383 12.1708 30.8357 12.2735C30.7361 12.3738 30.6366 12.4743 30.5372 12.5748C30.5111 12.6011 30.4849 12.6274 30.458 12.6544C30.3141 12.8001 30.1757 12.9482 30.0436 13.105C29.9372 13.2303 29.8201 13.3395 29.6964 13.4466C29.5774 13.5511 29.4751 13.6637 29.3734 13.7855C29.3148 13.855 29.2514 13.9182 29.1878 13.9829C29.1546 14.0219 29.1217 14.0611 29.089 14.1004C28.9651 14.2483 28.8329 14.3805 28.6875 14.5064C28.5691 14.6102 28.4679 14.722 28.3685 14.8445C28.3134 14.906 28.3134 14.906 28.242 14.9603C28.1734 15.006 28.1734 15.006 28.1347 15.0876C28.07 15.1923 27.9973 15.2521 27.9041 15.3297C27.8229 15.4021 27.7563 15.4833 27.6874 15.5676C27.5998 15.6733 27.5037 15.7676 27.4007 15.8578C27.2236 16.0127 27.2236 16.0127 27.0774 16.1966C27.0035 16.3051 26.9351 16.3644 26.8336 16.4444C26.8058 16.4783 26.7781 16.5121 26.7495 16.547C26.671 16.6428 26.5925 16.7089 26.4973 16.7863C26.4695 16.8202 26.4418 16.854 26.4132 16.8889C26.3348 16.9845 26.2562 17.0512 26.161 17.1282C26.059 17.2333 26.059 17.2333 26.0264 17.3675C25.9961 17.381 25.9961 17.381 25.9651 17.3948C25.8879 17.4381 25.8512 17.477 25.7973 17.547C25.7095 17.6559 25.6148 17.743 25.5082 17.8324C25.4356 17.8975 25.3803 17.9743 25.3202 18.0513C25.2714 18.092 25.2227 18.1327 25.1735 18.1729C25.0456 18.2874 24.9396 18.4259 24.8315 18.5593C24.7298 18.6836 24.6235 18.7894 24.5012 18.8928C24.3445 19.0268 24.2123 19.1844 24.0779 19.3408C24.0014 19.4268 23.9216 19.5082 23.8404 19.5897C23.805 19.6257 23.7696 19.6617 23.7343 19.6976C23.6593 19.7739 23.5843 19.8501 23.5094 19.9263C23.4914 19.9446 23.4734 19.9629 23.4549 19.9817C23.4077 20.0296 23.3603 20.0773 23.3128 20.125C23.2446 20.1953 23.1804 20.2669 23.1174 20.3419C23.0092 20.4704 22.8927 20.5886 22.7739 20.7069C22.711 20.7696 22.6483 20.8324 22.5856 20.8953C22.553 20.9275 22.553 20.9275 22.5198 20.9604C22.4993 20.981 22.4788 21.0016 22.4577 21.0228C22.4391 21.0414 22.4204 21.06 22.4012 21.0792C22.3534 21.1262 22.3534 21.1262 22.3607 21.1966C22.157 21.1635 22.157 21.1635 22.0706 21.0676C22.0367 21.0193 22.0034 20.9706 21.9706 20.9215C21.9104 20.8362 21.8368 20.7817 21.7553 20.7179C21.6992 20.6496 21.6432 20.5812 21.5871 20.5128C21.5601 20.491 21.533 20.4691 21.5052 20.4466C21.4125 20.3707 21.3426 20.2885 21.2669 20.1959C21.2233 20.144 21.1763 20.0952 21.1289 20.047C21.049 19.9658 21.049 19.9658 20.9839 19.8803C20.9145 19.7895 20.9145 19.7895 20.8136 19.7094C20.7194 19.6296 20.6544 19.5498 20.5782 19.453C20.5449 19.4248 20.5116 19.3966 20.4773 19.3675C20.3833 19.2878 20.3176 19.2079 20.2419 19.1111C20.2162 19.0907 20.1906 19.0702 20.1641 19.0491C20.0169 18.9273 19.9012 18.7768 19.7792 18.6295C19.6696 18.4991 19.5586 18.382 19.4271 18.2742C19.2296 18.1021 19.0579 17.8986 18.8808 17.7054C18.7894 17.606 18.6979 17.5073 18.6032 17.4112C18.5306 17.3372 18.4633 17.2608 18.3964 17.1816C18.2952 17.0645 18.1903 16.9628 18.0716 16.8644C18.0116 16.811 17.9683 16.749 17.9213 16.6838C17.8992 16.6838 17.877 16.6838 17.8541 16.6838C17.843 16.6499 17.8319 16.6161 17.8205 16.5812C17.6909 16.6348 17.6147 16.7197 17.5178 16.8205C17.4802 16.8529 17.4423 16.8849 17.4043 16.9167C17.2944 17.011 17.2032 17.1149 17.1103 17.2261C17.0417 17.3052 16.9695 17.379 16.8956 17.453C16.8006 17.5481 16.7106 17.6445 16.6244 17.7479C16.527 17.8637 16.4206 17.9601 16.3064 18.0585C16.2153 18.1421 16.1374 18.2349 16.058 18.3299C15.9649 18.4398 15.862 18.5393 15.7584 18.6389C15.6941 18.6951 15.6941 18.6951 15.7017 18.7692C15.6816 18.7781 15.6615 18.7869 15.6407 18.7961C15.5616 18.8407 15.5221 18.8835 15.4663 18.9551C15.3945 19.044 15.3264 19.116 15.2309 19.1795C15.2495 19.3042 15.2905 19.3498 15.3864 19.4273C15.5116 19.5329 15.6146 19.6461 15.7171 19.7743C15.7694 19.838 15.7694 19.838 15.8698 19.8632C15.8935 19.9082 15.9157 19.9539 15.9371 20C16.0734 20.1863 16.2353 20.3381 16.4058 20.4914C16.5253 20.5999 16.6328 20.71 16.7343 20.8357C16.8229 20.9437 16.9248 21.0388 17.0238 21.1367C17.1013 21.2173 17.1739 21.2997 17.2466 21.3846C17.3238 21.4738 17.3991 21.5563 17.4904 21.6303C17.5929 21.7159 17.6687 21.811 17.7532 21.9145C17.7816 21.9371 17.8101 21.9597 17.8394 21.9829C17.9213 22.0513 17.9213 22.0513 17.9865 22.1517C18.0639 22.2684 18.1506 22.3389 18.2577 22.4273C18.3025 22.4843 18.3473 22.5413 18.3922 22.5983C18.4421 22.6406 18.4421 22.6406 18.4931 22.6838C18.5873 22.7636 18.6523 22.8434 18.7285 22.9402C18.7772 22.9809 18.826 23.0216 18.8752 23.0618C19.0027 23.1759 19.1086 23.3138 19.216 23.447C19.3255 23.5812 19.4432 23.695 19.5736 23.8082C19.7368 23.9509 19.8748 24.1145 20.0142 24.2806C20.0339 24.3008 20.0535 24.321 20.0737 24.3419C20.0959 24.3419 20.1181 24.3419 20.141 24.3419C20.1486 24.3602 20.1563 24.3785 20.1641 24.3974C20.2689 24.5902 20.4187 24.7253 20.5812 24.8667C20.7306 24.9977 20.8592 25.1449 20.987 25.297C21.0608 25.3808 21.1387 25.4592 21.2172 25.5385C21.2532 25.5749 21.2893 25.6113 21.3253 25.6478C21.3447 25.6674 21.3641 25.687 21.3841 25.7072C21.471 25.7952 21.5579 25.8832 21.6447 25.9712C21.6906 26.0177 21.7365 26.0641 21.7825 26.1105C21.849 26.1777 21.9154 26.245 21.9818 26.3124C22.0024 26.3332 22.023 26.354 22.0443 26.3754C22.1887 26.5221 22.1887 26.5221 22.2261 26.5983C22.3113 26.5636 22.3524 26.5467 22.3943 26.4615C22.4371 26.3744 22.4781 26.3676 22.5624 26.3248C22.6141 26.2785 22.6141 26.2785 22.6611 26.2237C22.6798 26.2029 22.6985 26.1821 22.7178 26.1607C22.738 26.138 22.7582 26.1153 22.7789 26.0919C23.0209 25.824 23.2722 25.5667 23.5269 25.3114C23.6513 25.1863 23.774 25.0616 23.8877 24.9263C24.0619 24.7198 24.2565 24.5324 24.4468 24.3416C24.6789 24.11 24.6789 24.11 24.8976 23.8655C25.0664 23.6647 25.2553 23.4825 25.44 23.297C25.7613 22.9755 25.7613 22.9755 26.0601 22.6325C26.1548 22.5311 26.254 22.4389 26.3586 22.3483C26.4767 22.2445 26.5782 22.1328 26.6791 22.0119C26.7489 21.9296 26.8253 21.8546 26.9009 21.7778C26.9231 21.7496 26.9452 21.7214 26.9681 21.6923C27.0821 21.5475 27.2134 21.4269 27.3507 21.3055C27.4743 21.1949 27.583 21.0785 27.6892 20.9508C27.7585 20.8689 27.8346 20.7943 27.9098 20.7179C27.932 20.689 27.9542 20.6601 27.9771 20.6303C28.0443 20.547 28.0443 20.547 28.1263 20.4808C28.2177 20.4107 28.2177 20.4107 28.2965 20.3077C28.3751 20.2119 28.4536 20.1458 28.5488 20.0684C28.5765 20.0345 28.6043 20.0007 28.6329 19.9658C28.7112 19.8702 28.7898 19.8035 28.8851 19.7265C28.9871 19.6214 28.9871 19.6214 29.0196 19.4872C29.0394 19.4786 29.0592 19.4701 29.0797 19.4613C29.164 19.4132 29.2088 19.3622 29.2697 19.2863C29.3586 19.1793 29.4494 19.0954 29.5577 19.0085C29.5855 18.9747 29.6132 18.9408 29.6418 18.906C29.7259 18.8034 29.7259 18.8034 29.8057 18.7393C29.9524 18.6186 30.0673 18.4682 30.1886 18.3218C30.3 18.1892 30.414 18.0721 30.546 17.9607C30.7042 17.826 30.8366 17.6662 30.9727 17.5093C31.0661 17.4034 31.1642 17.3042 31.2666 17.2073C31.3141 17.164 31.3141 17.164 31.3065 17.094C31.3261 17.0857 31.3456 17.0774 31.3658 17.0689C31.4547 17.0178 31.5039 16.9599 31.5693 16.8803C31.6685 16.7634 31.7688 16.6602 31.8871 16.5636C32.0352 16.435 32.1654 16.287 32.2965 16.141C32.321 16.1139 32.321 16.1139 32.3459 16.0863C32.4298 15.993 32.5117 15.8987 32.5908 15.8013C32.6799 15.6937 32.7804 15.6038 32.8863 15.5136C33.037 15.3796 33.1709 15.2295 33.3055 15.0791C33.5562 14.8006 33.8204 14.5361 34.0846 14.2711C34.1688 14.1843 34.2489 14.0948 34.3291 14.0043C34.5659 13.7399 34.8168 13.4895 35.067 13.2384C35.2684 13.0359 35.2684 13.0359 35.4583 12.8222C35.6375 12.6091 35.839 12.4163 36.0351 12.2194C36.4027 11.8924 36.4027 11.8924 36.6539 11.4872C36.6199 11.459 36.5859 11.4308 36.5509 11.4017C36.3806 11.2534 36.2404 11.0818 36.1011 10.9038C36.0107 10.7986 35.9141 10.711 35.8099 10.6203C35.6465 10.477 35.5079 10.3133 35.3681 10.1468C35.3485 10.1265 35.3289 10.1063 35.3086 10.0855C35.2864 10.0855 35.2642 10.0855 35.2414 10.0855C35.2337 10.0671 35.2261 10.0488 35.2183 10.0299C35.1134 9.83711 34.9637 9.70208 34.8011 9.56062C34.6501 9.42815 34.5211 9.27866 34.3907 9.12593C34.2603 8.97023 34.2603 8.97023 34.0979 8.85469Z" fill="#06AF7F"/>
<path d="M106.65 5.28624C106.676 5.28609 106.701 5.28594 106.727 5.28579C106.813 5.28541 106.898 5.28577 106.984 5.28612C107.046 5.286 107.108 5.28584 107.169 5.28564C107.339 5.28521 107.51 5.28542 107.68 5.28574C107.863 5.28597 108.047 5.28561 108.23 5.28533C108.59 5.28487 108.949 5.28497 109.309 5.28527C109.602 5.2855 109.894 5.28553 110.187 5.28542C110.229 5.28541 110.27 5.28539 110.313 5.28537C110.398 5.28534 110.482 5.28531 110.567 5.28527C111.339 5.28499 112.11 5.28529 112.882 5.28582C113.585 5.28631 114.288 5.28627 114.991 5.28578C115.781 5.28522 116.571 5.28501 117.361 5.28533C117.446 5.28536 117.53 5.28539 117.615 5.28542C117.677 5.28545 117.677 5.28545 117.741 5.28547C118.032 5.28556 118.324 5.28541 118.616 5.28517C118.972 5.28488 119.329 5.28496 119.685 5.2855C119.867 5.28577 120.048 5.28588 120.23 5.28554C121.173 5.28391 122.087 5.31707 123.014 5.51068C123.039 5.5157 123.063 5.52071 123.089 5.52588C123.483 5.60698 123.854 5.71692 124.223 5.88218C124.302 5.91688 124.382 5.94819 124.462 5.97957C124.64 6.05156 124.806 6.14047 124.973 6.23504C125.002 6.25064 125.03 6.26625 125.059 6.28232C125.243 6.38543 125.41 6.49976 125.575 6.63248C125.625 6.67274 125.625 6.67274 125.676 6.71381C125.705 6.73845 125.735 6.76308 125.766 6.78846C125.811 6.82555 125.811 6.82555 125.857 6.86338C125.947 6.94203 126.03 7.025 126.113 7.11111C126.135 7.1328 126.157 7.15448 126.18 7.17682C126.342 7.33727 126.482 7.50753 126.617 7.69231C126.643 7.72635 126.643 7.72635 126.669 7.76109C126.735 7.85304 126.786 7.9504 126.84 8.05022C126.87 8.10766 126.902 8.16466 126.935 8.22116C127.628 9.44646 127.764 11.1491 127.424 12.5128C127.274 13.0195 127.091 13.484 126.785 13.9145C126.749 13.9707 126.714 14.0269 126.678 14.0833C126.601 14.2008 126.515 14.2947 126.415 14.3932C126.393 14.4334 126.393 14.4334 126.371 14.4744C126.3 14.5875 126.211 14.6613 126.11 14.7475C126.042 14.8047 126.042 14.8047 125.972 14.8803C125.902 14.9492 125.826 14.9919 125.743 15.0427C125.712 15.0751 125.712 15.0751 125.68 15.1081C125.607 15.1809 125.538 15.2276 125.449 15.279C125.403 15.3054 125.403 15.3054 125.357 15.3323C125.325 15.3503 125.294 15.3683 125.261 15.3868C125.215 15.4139 125.215 15.4139 125.167 15.4416C125.003 15.5358 124.841 15.6215 124.666 15.6923C124.689 15.7015 124.712 15.7106 124.736 15.7201C124.944 15.8058 125.148 15.8987 125.35 16C125.372 16.0109 125.394 16.0219 125.417 16.0331C125.55 16.1011 125.67 16.178 125.79 16.2684C125.847 16.3117 125.847 16.3117 125.928 16.3571C126.044 16.4307 126.144 16.5199 126.247 16.6111C126.267 16.6288 126.288 16.6465 126.309 16.6647C126.428 16.769 126.544 16.8738 126.651 16.9915C126.651 17.014 126.651 17.0366 126.651 17.0598C126.673 17.0598 126.695 17.0598 126.718 17.0598C126.772 17.1235 126.772 17.1235 126.834 17.2073C126.915 17.3191 126.915 17.3191 127.008 17.4211C127.06 17.4757 127.085 17.5248 127.115 17.594C127.165 17.7013 127.222 17.796 127.29 17.8932C127.378 18.0241 127.437 18.1531 127.491 18.3013C127.529 18.405 127.571 18.5069 127.613 18.609C127.64 18.6738 127.667 18.7386 127.693 18.8034C127.704 18.8296 127.715 18.8558 127.727 18.8827C127.762 18.9774 127.783 19.0681 127.803 19.1672C127.81 19.2038 127.817 19.2404 127.825 19.2782C127.832 19.3161 127.839 19.3541 127.847 19.3932C127.854 19.4306 127.862 19.468 127.869 19.5065C127.929 19.8136 127.967 20.1126 127.969 20.4258C127.969 20.4522 127.97 20.4787 127.97 20.506C127.97 20.5909 127.971 20.6758 127.971 20.7607C127.971 20.7897 127.971 20.8188 127.971 20.8487C127.97 21.2922 127.948 21.7181 127.861 22.1538C127.851 22.211 127.841 22.2682 127.831 22.3255C127.771 22.6476 127.688 22.9464 127.559 23.2479C127.548 23.275 127.537 23.3022 127.525 23.3301C127.381 23.6751 127.191 23.9965 126.987 24.3077C126.965 24.3077 126.943 24.3077 126.92 24.3077C126.911 24.326 126.903 24.3444 126.895 24.3632C126.795 24.5551 126.682 24.6897 126.519 24.8271C126.445 24.8904 126.445 24.8904 126.368 24.972C126.281 25.0591 126.192 25.1377 126.098 25.2158C126.067 25.2412 126.037 25.2667 126.006 25.2929C125.181 25.9425 124.149 26.3109 123.131 26.4874C123.059 26.4999 122.986 26.513 122.914 26.526C122.581 26.5855 122.246 26.6355 121.909 26.6667C121.878 26.6695 121.847 26.6724 121.815 26.6754C121.381 26.7098 120.947 26.7069 120.513 26.7079C120.422 26.7082 120.332 26.7085 120.242 26.7089C120.021 26.7097 119.801 26.7104 119.581 26.711C119.319 26.7117 119.058 26.7126 118.796 26.7136C118.262 26.7154 117.727 26.717 117.193 26.7186C116.784 26.7197 116.376 26.721 115.967 26.7223C113.632 26.7297 111.297 26.7361 108.962 26.7372C108.905 26.7372 108.905 26.7372 108.847 26.7372C107.36 26.7379 105.874 26.7362 104.387 26.735C104.387 22.7525 104.387 18.7699 104.387 14.6667C107.603 14.6273 107.603 14.6273 108.718 14.6266C108.893 14.6265 109.067 14.6262 109.242 14.6259C109.54 14.6254 109.839 14.625 110.137 14.6246C110.61 14.6241 111.082 14.6233 111.555 14.6224C111.719 14.6221 111.882 14.6218 112.045 14.6215C112.107 14.6214 112.107 14.6214 112.169 14.6213C112.627 14.6205 113.084 14.6198 113.542 14.6191C113.604 14.619 113.604 14.619 113.667 14.6189C114.347 14.6178 115.027 14.6169 115.707 14.616C116.411 14.6151 117.114 14.6139 117.818 14.6125C118.25 14.6117 118.681 14.6111 119.113 14.6107C119.407 14.6105 119.701 14.61 119.995 14.6093C120.164 14.6089 120.333 14.6086 120.502 14.6086C120.657 14.6086 120.812 14.6083 120.967 14.6078C121.023 14.6077 121.079 14.6076 121.135 14.6077C122.067 14.6092 122.911 14.388 123.612 13.728C124.132 13.1848 124.353 12.5034 124.397 11.7607C124.399 11.7278 124.401 11.6948 124.404 11.6609C124.406 11.5681 124.403 11.4774 124.397 11.3846C124.396 11.3595 124.395 11.3344 124.394 11.3086C124.371 10.8713 124.303 10.4866 124.128 10.0855C124.103 10.0271 124.103 10.0271 124.077 9.96755C123.84 9.48013 123.499 9.14048 123.052 8.8547C123.02 8.82839 123.02 8.82839 122.988 8.80155C122.889 8.73179 122.78 8.69304 122.668 8.65171C122.643 8.64284 122.619 8.63397 122.595 8.62483C122.546 8.60696 122.497 8.58924 122.448 8.57167C122.389 8.55028 122.33 8.52809 122.271 8.50574C122.061 8.432 121.857 8.39467 121.637 8.37284C121.608 8.36992 121.579 8.367 121.548 8.364C121.213 8.33323 120.878 8.33259 120.542 8.33366C120.471 8.33363 120.4 8.33357 120.329 8.33348C120.136 8.33333 119.943 8.3336 119.75 8.33395C119.541 8.33424 119.333 8.33414 119.124 8.33409C118.763 8.33405 118.402 8.33426 118.041 8.33465C117.663 8.33506 117.284 8.33532 116.906 8.33539C116.871 8.3354 116.871 8.3354 116.834 8.33541C116.715 8.33543 116.595 8.33545 116.475 8.33547C115.628 8.33562 114.781 8.33608 113.934 8.33672C113.112 8.33735 112.289 8.33784 111.467 8.33813C111.441 8.33813 111.416 8.33814 111.39 8.33815C111.135 8.33824 110.88 8.33833 110.625 8.33842C110.106 8.33859 109.586 8.33878 109.067 8.33899C109.031 8.339 109.031 8.339 108.995 8.33902C107.403 8.33964 105.811 8.34073 104.219 8.34188C104.241 8.17836 104.266 8.10196 104.381 7.98291C104.486 7.86877 104.573 7.7563 104.656 7.62393C104.691 7.57373 104.726 7.52388 104.761 7.47436C104.778 7.45083 104.795 7.42729 104.812 7.40305C104.827 7.38568 104.842 7.36832 104.858 7.35043C104.88 7.35043 104.902 7.35043 104.925 7.35043C104.928 7.33091 104.931 7.31138 104.934 7.29127C104.966 7.19192 105.016 7.14149 105.087 7.06624C105.169 6.97524 105.242 6.89148 105.299 6.78205C105.348 6.69277 105.386 6.63524 105.451 6.56157C105.583 6.4072 105.702 6.2434 105.823 6.07906C105.845 6.04867 105.867 6.01829 105.89 5.98698C105.931 5.93071 105.973 5.87442 106.014 5.81809C106.041 5.78121 106.041 5.78121 106.068 5.74359C106.095 5.70496 106.095 5.70496 106.122 5.66556C106.145 5.63649 106.145 5.63649 106.169 5.60684C106.192 5.60684 106.214 5.60684 106.237 5.60684C106.246 5.57511 106.255 5.54338 106.264 5.51068C106.343 5.29624 106.437 5.28408 106.65 5.28624ZM107.515 17.265C107.515 19.3973 107.515 21.5296 107.515 23.7265C109.87 23.7295 109.87 23.7295 112.225 23.7315C112.543 23.7317 112.862 23.7319 113.18 23.7321C113.24 23.7322 113.24 23.7322 113.301 23.7322C113.943 23.7327 114.585 23.7335 115.227 23.7344C115.887 23.7354 116.547 23.7359 117.207 23.7361C117.614 23.7363 118.02 23.7367 118.427 23.7376C118.706 23.7381 118.986 23.7383 119.265 23.7381C119.426 23.7381 119.587 23.7382 119.748 23.7387C120.316 23.7406 120.881 23.7394 121.447 23.6817C121.485 23.6778 121.523 23.674 121.562 23.67C121.894 23.631 122.201 23.5383 122.511 23.4129C122.572 23.3884 122.634 23.3661 122.695 23.3443C123.333 23.1069 123.839 22.6128 124.162 22.0171C124.181 21.9856 124.199 21.9542 124.219 21.9217C124.625 21.1902 124.575 20.1977 124.389 19.4065C124.322 19.1675 124.214 18.9511 124.095 18.735C124.079 18.7064 124.064 18.6778 124.048 18.6482C123.886 18.3656 123.647 18.108 123.388 17.9145C123.366 17.9145 123.344 17.9145 123.321 17.9145C123.321 17.892 123.321 17.8694 123.321 17.8462C122.567 17.4153 121.857 17.2476 120.994 17.2526C120.936 17.2526 120.877 17.2525 120.818 17.2524C120.659 17.2521 120.5 17.2525 120.341 17.2531C120.168 17.2535 119.996 17.2533 119.823 17.2533C119.525 17.2532 119.227 17.2535 118.929 17.2541C118.498 17.255 118.067 17.2552 117.636 17.2553C116.936 17.2556 116.237 17.2563 115.537 17.2572C114.858 17.2582 114.179 17.2589 113.5 17.2593C113.458 17.2594 113.415 17.2594 113.372 17.2594C113.04 17.2596 112.709 17.2598 112.378 17.26C110.757 17.261 109.136 17.263 107.515 17.265Z" fill="#0F1413"/>
<path d="M59.3161 5.29519C59.4732 5.29533 59.6303 5.29528 59.7875 5.29526C60.0588 5.29524 60.3302 5.29535 60.6016 5.29554C60.9939 5.29582 61.3862 5.29591 61.7786 5.29595C62.4153 5.29602 63.052 5.29625 63.6888 5.29657C64.3068 5.29689 64.9249 5.29713 65.543 5.29728C65.5811 5.29728 65.6193 5.29729 65.6587 5.2973C65.8502 5.29735 66.0418 5.29739 66.2333 5.29743C67.8193 5.29779 69.4052 5.29842 70.9912 5.29915C70.9912 6.29197 70.9912 7.28479 70.9912 8.3077C70.6475 8.30856 70.3038 8.30941 69.9497 8.3103C68.8431 8.31308 67.7365 8.316 66.6298 8.31902C66.4572 8.31949 66.2846 8.31996 66.112 8.32043C66.0604 8.32057 66.0604 8.32057 66.0079 8.32071C65.4555 8.32221 64.9032 8.3236 64.3508 8.32495C63.7818 8.32635 63.2127 8.32786 62.6436 8.32947C62.3249 8.33037 62.0063 8.33122 61.6876 8.33194C60.035 8.33482 60.035 8.33482 58.3825 8.35752C58.3494 8.35818 58.3163 8.35883 58.2822 8.3595C57.9676 8.36593 57.6533 8.3754 57.3391 8.39263C57.3147 8.39396 57.2903 8.39529 57.2651 8.39666C57.0685 8.4083 56.8767 8.43333 56.6833 8.47009C56.6509 8.47602 56.6186 8.48195 56.5852 8.48806C56.2956 8.54302 56.0127 8.61728 55.7291 8.69781C55.6572 8.71746 55.5852 8.73512 55.5127 8.75201C55.2448 8.81465 55.0017 8.89738 54.7508 9.0131C54.6649 9.05158 54.5828 9.08211 54.493 9.10898C54.3194 9.16409 54.1659 9.25667 54.0075 9.34616C53.9066 9.40172 53.9066 9.40172 53.7847 9.453C53.6457 9.51579 53.5238 9.59671 53.3969 9.6815C53.3276 9.72645 53.2568 9.76884 53.1851 9.80957C53.0044 9.91349 52.8454 10.0479 52.683 10.1786C52.6342 10.2177 52.5851 10.2563 52.5359 10.2949C52.031 10.6993 51.6134 11.1829 51.2405 11.7125C51.205 11.7629 51.1686 11.8127 51.1307 11.8613C51.0698 11.9485 51.027 12.0407 50.9807 12.1368C50.9426 12.2033 50.9041 12.2695 50.8651 12.3355C50.7838 12.4765 50.7085 12.6153 50.647 12.7663C50.6196 12.8331 50.5902 12.899 50.5598 12.9645C50.41 13.2966 50.3166 13.64 50.2303 13.9936C50.2245 14.017 50.2188 14.0404 50.2129 14.0645C50.1124 14.4774 50.0325 14.8837 50.018 15.3098C50.0167 15.3426 50.0155 15.3753 50.0142 15.4091C50.0055 15.6502 49.9991 15.8911 50.0041 16.1324C50.005 16.1852 50.0055 16.2379 50.0056 16.2907C50.0088 17.2199 50.1915 18.21 50.5984 19.049C50.6414 19.139 50.6772 19.229 50.7116 19.3227C50.7699 19.4746 50.8459 19.6087 50.9309 19.7467C50.9751 19.8199 51.0138 19.8936 51.0521 19.9701C51.1906 20.2261 51.3767 20.4536 51.5524 20.6838C51.5782 20.7178 51.604 20.7519 51.6306 20.787C52.0769 21.3597 52.6453 21.8877 53.2676 22.2564C53.3384 22.3041 53.4091 22.3518 53.4799 22.3996C53.8682 22.6561 54.282 22.849 54.7139 23.0165C54.777 23.0412 54.8399 23.0664 54.9029 23.0916C55.2304 23.2216 55.5601 23.3224 55.9013 23.4081C55.9273 23.4147 55.9533 23.4214 55.9801 23.4282C56.4289 23.5416 56.8728 23.6154 57.3347 23.6501C57.4 23.6552 57.4653 23.6607 57.5305 23.6669C57.7742 23.6898 58.0155 23.6975 58.2602 23.6977C58.3004 23.6979 58.3406 23.6981 58.382 23.6982C58.4922 23.6987 58.6025 23.699 58.7128 23.6992C58.8322 23.6994 58.9516 23.6999 59.071 23.7004C59.2774 23.7011 59.4839 23.7017 59.6903 23.7023C59.9888 23.703 60.2873 23.704 60.5858 23.705C61.0701 23.7066 61.5545 23.7081 62.0388 23.7095C62.5091 23.7109 62.9794 23.7123 63.4497 23.7138C63.479 23.7139 63.5083 23.714 63.5385 23.7141C63.7679 23.7148 63.9972 23.7155 64.2266 23.7163C65.3492 23.7199 66.4718 23.7232 67.5944 23.7265C67.5944 21.5265 67.5944 19.3265 67.5944 17.0598C63.6213 17.0598 59.6481 17.0598 55.5545 17.0598C55.6026 16.962 55.6402 16.893 55.7045 16.8098C55.7204 16.7893 55.7363 16.7688 55.7526 16.7476C55.7691 16.7265 55.7856 16.7055 55.8025 16.6838C55.8188 16.6627 55.835 16.6416 55.8517 16.6199C55.9203 16.5316 55.988 16.4482 56.0666 16.3689C56.1247 16.3092 56.1572 16.2585 56.1935 16.1838C56.2615 16.0671 56.2809 16.0504 56.3953 16C56.4331 15.9373 56.4331 15.9373 56.4625 15.8633C56.5194 15.7538 56.5857 15.6644 56.6664 15.5727C56.7876 15.4349 56.8982 15.2899 57.0082 15.143C57.1167 14.9983 57.2278 14.8561 57.3408 14.715C57.4108 14.6306 57.4108 14.6306 57.4592 14.5095C57.5264 14.4153 57.5623 14.3953 57.6759 14.3711C57.8184 14.3628 57.9593 14.3624 58.102 14.3644C58.1575 14.3643 58.213 14.3641 58.2685 14.3638C58.4211 14.3632 58.5737 14.3642 58.7264 14.3654C58.8909 14.3664 59.0554 14.3661 59.22 14.3659C59.5051 14.3658 59.7902 14.3665 60.0753 14.3679C60.4875 14.3698 60.8997 14.3704 61.3119 14.3707C61.9807 14.3713 62.6494 14.3729 63.3182 14.3751C63.9679 14.3773 64.6176 14.379 65.2673 14.38C65.3077 14.3801 65.3482 14.3802 65.3899 14.3802C65.7062 14.3807 66.0225 14.3812 66.3388 14.3816C67.8896 14.3839 69.4404 14.3887 70.9912 14.3932C70.9912 18.4547 70.9912 22.5162 70.9912 26.7009C67.6729 26.705 67.6729 26.705 66.2824 26.7059C65.9642 26.7061 65.646 26.7063 65.3278 26.7065C65.288 26.7065 65.2481 26.7066 65.207 26.7066C64.5652 26.707 63.9233 26.7078 63.2815 26.7088C62.6216 26.7097 61.9618 26.7103 61.302 26.7105C60.8956 26.7107 60.4892 26.7111 60.0828 26.7119C59.8032 26.7125 59.5237 26.7126 59.2442 26.7125C59.0834 26.7124 58.9227 26.7125 58.762 26.7131C57.7924 26.7163 56.85 26.6578 55.8929 26.4872C55.8639 26.4821 55.8348 26.477 55.8049 26.4718C55.3651 26.3946 54.9426 26.2926 54.5201 26.1449C54.4065 26.1069 54.2917 26.0783 54.1756 26.0492C53.9188 25.9815 53.6799 25.8818 53.4358 25.7778C53.379 25.7556 53.3223 25.7335 53.2655 25.7115C53.0858 25.6388 52.9147 25.549 52.7428 25.4593C52.667 25.4211 52.5902 25.3851 52.5123 25.3515C52.3846 25.2954 52.2633 25.2318 52.141 25.1645C52.1199 25.1531 52.0989 25.1417 52.0772 25.1299C51.8837 25.0242 51.6921 24.9147 51.5041 24.7992C51.4812 24.7853 51.4584 24.7715 51.4348 24.7572C51.4181 24.7443 51.4014 24.7313 51.3843 24.718C51.3843 24.6954 51.3843 24.6728 51.3843 24.6496C51.3598 24.6462 51.3354 24.6429 51.3102 24.6394C51.2028 24.612 51.1444 24.5721 51.0563 24.5043C51.0082 24.4673 51.0082 24.4673 50.959 24.4296C50.9323 24.4088 50.9323 24.4088 50.9051 24.3876C50.8401 24.3372 50.7747 24.2877 50.7091 24.2381C50.447 24.0387 50.1963 23.8339 49.9587 23.6047C49.8934 23.5428 49.8283 23.4861 49.7588 23.4295C49.7292 23.4034 49.6996 23.3773 49.6691 23.3504C49.6691 23.3279 49.6691 23.3053 49.6691 23.2821C49.6392 23.2685 49.6392 23.2685 49.6087 23.2547C49.5315 23.212 49.4841 23.169 49.4241 23.1042C49.4036 23.0822 49.3832 23.0602 49.3621 23.0375C49.3406 23.0138 49.3192 22.9902 49.297 22.9658C49.2747 22.9414 49.2524 22.9171 49.2294 22.892C49.0262 22.6672 48.8415 22.4311 48.6601 22.188C48.616 22.1317 48.5719 22.0755 48.5277 22.0192C48.4507 21.9186 48.3861 21.8169 48.3264 21.7043C48.2824 21.6275 48.2321 21.5571 48.1809 21.4851C47.9174 21.1064 47.7148 20.6901 47.5167 20.2735C47.5003 20.2393 47.5003 20.2393 47.4836 20.2043C47.379 19.9843 47.2804 19.7665 47.2064 19.5336C47.18 19.4519 47.1516 19.3711 47.1226 19.2902C47.0185 18.9989 46.9238 18.7142 46.8668 18.4089C46.8459 18.3005 46.8211 18.1943 46.7945 18.0872C46.4213 16.5608 46.4485 14.7472 46.8727 13.2395C46.9017 13.1358 46.9231 13.0328 46.9419 12.9268C46.977 12.7424 47.0386 12.5737 47.1068 12.3996C47.1312 12.3361 47.1556 12.2727 47.18 12.2093C47.1917 12.179 47.2034 12.1488 47.2155 12.1176C47.2556 12.0134 47.2935 11.9084 47.3317 11.8034C47.4988 11.3647 47.7046 10.9599 47.9539 10.5641C47.9788 10.5221 48.0036 10.4801 48.0282 10.4379C48.0404 10.4172 48.0526 10.3965 48.0652 10.3752C48.0992 10.3173 48.1331 10.2593 48.167 10.2013C48.1854 10.1743 48.2039 10.1474 48.2229 10.1197C48.2451 10.1197 48.2673 10.1197 48.2902 10.1197C48.2985 10.0784 48.2985 10.0784 48.307 10.0363C48.3679 9.88942 48.4528 9.79806 48.5602 9.68364C48.6277 9.60541 48.6751 9.52509 48.7274 9.43591C48.7805 9.37648 48.7805 9.37648 48.8367 9.32266C48.9966 9.16489 49.1415 8.99558 49.2802 8.81838C49.3656 8.7189 49.4545 8.63668 49.5532 8.55142C49.6177 8.49434 49.6805 8.43642 49.7429 8.37701C49.7619 8.35893 49.7809 8.34084 49.8005 8.32221C49.8381 8.28629 49.8757 8.25027 49.9131 8.21413C50.0526 8.08138 50.1913 7.95979 50.3753 7.89744C50.392 7.84668 50.392 7.84668 50.4089 7.79488C50.4984 7.72671 50.5977 7.65813 50.7116 7.65813C50.7283 7.60736 50.7283 7.60736 50.7453 7.55556C50.83 7.49533 50.83 7.49533 50.9407 7.4295C50.981 7.40527 51.0212 7.38096 51.0613 7.35658C51.0919 7.33805 51.0919 7.33805 51.1231 7.31915C51.2117 7.26382 51.2967 7.20337 51.3822 7.14317C51.5976 6.99554 51.823 6.88322 52.0569 6.76924C52.0989 6.74775 52.141 6.7262 52.183 6.7046C52.5671 6.50892 52.9602 6.31247 53.3719 6.18537C53.47 6.15365 53.5654 6.11671 53.6612 6.07857C53.9024 5.98296 54.1429 5.90847 54.3953 5.84857C54.5088 5.82157 54.6212 5.79159 54.7337 5.76042C55.0491 5.67321 55.3574 5.59139 55.6831 5.5553C55.8343 5.53846 55.9841 5.51319 56.1342 5.48865C57.1935 5.31611 58.2457 5.29391 59.3161 5.29519Z" fill="#0F1413"/>
<path d="M97.8016 5.2827C97.8545 5.28242 97.8545 5.28242 97.9084 5.28214C97.947 5.28263 97.9855 5.28312 98.0251 5.28362C98.0658 5.2836 98.1065 5.28358 98.1485 5.28356C98.2599 5.28364 98.3713 5.28433 98.4828 5.28528C98.5993 5.28614 98.7158 5.28622 98.8324 5.28638C99.0529 5.28681 99.2735 5.28793 99.4941 5.2893C99.7453 5.29083 99.9964 5.29158 100.248 5.29227C100.764 5.2937 101.281 5.2961 101.797 5.29915C101.797 5.40171 101.797 5.40171 101.746 5.45446C101.711 5.4823 101.711 5.4823 101.675 5.51069C101.554 5.61405 101.464 5.72117 101.372 5.8519C101.309 5.93911 101.235 6.01072 101.158 6.08547C100.998 6.2448 100.842 6.40442 100.699 6.57933C100.632 6.65829 100.558 6.72983 100.486 6.80342C100.464 6.83233 100.441 6.86124 100.418 6.89103C100.351 6.97436 100.351 6.97436 100.269 7.0406C100.169 7.12254 100.096 7.21514 100.015 7.31624C99.9588 7.37322 99.9028 7.4302 99.8467 7.48718C99.8155 7.52843 99.8155 7.52843 99.7837 7.57052C99.7246 7.64296 99.6714 7.69512 99.6008 7.75428C99.4654 7.86897 99.3544 7.99981 99.2414 8.13676C99.2064 8.17883 99.1714 8.22085 99.1363 8.26283C99.1216 8.28059 99.107 8.29835 99.0919 8.31664C99.0066 8.41349 98.9148 8.50347 98.8239 8.59473C98.6396 8.77984 98.4579 8.96421 98.2898 9.16494C98.1991 9.26895 98.1007 9.3649 98.0034 9.46248C97.9156 9.55306 97.8345 9.64827 97.753 9.7448C97.6699 9.83985 97.5806 9.92791 97.4915 10.0171C97.4068 10.1046 97.3288 10.1971 97.2502 10.2902C97.1646 10.3878 97.0729 10.4784 96.9811 10.5698C96.9147 10.6366 96.9147 10.6366 96.8409 10.735C96.8229 10.7576 96.8049 10.7802 96.7863 10.8034C96.7641 10.8034 96.7419 10.8034 96.719 10.8034C96.7121 10.8218 96.7051 10.8401 96.698 10.859C96.6339 10.9716 96.5492 11.063 96.45 11.1453C96.4278 11.1453 96.4056 11.1453 96.3827 11.1453C96.3797 11.1656 96.3766 11.1859 96.3735 11.2069C96.3428 11.3013 96.3037 11.3302 96.2272 11.391C96.0967 11.5013 95.9992 11.621 95.8977 11.7586C95.8131 11.8709 95.7171 11.9651 95.611 12.0562C95.4712 12.1766 95.3736 12.2875 95.2729 12.4444C95.224 12.4857 95.224 12.4857 95.1741 12.5278C95.0902 12.5992 95.0458 12.6461 94.987 12.735C94.9075 12.8549 94.8117 12.9344 94.7012 13.0256C94.6443 13.0933 94.5882 13.1617 94.533 13.2308C94.4769 13.2878 94.4209 13.3447 94.3648 13.4017C94.3326 13.444 94.3326 13.444 94.2997 13.4872C94.2339 13.5682 94.1638 13.6288 94.0836 13.6943C93.9553 13.8092 93.8491 13.9482 93.7404 14.0819C93.6617 14.1778 93.5876 14.2596 93.4925 14.3397C93.3421 14.4677 93.2212 14.6182 93.0967 14.7716C93.07 14.8043 93.07 14.8043 93.0427 14.8376C93.0269 14.8574 93.0111 14.8771 92.9948 14.8974C92.9523 14.9402 92.9523 14.9402 92.8851 14.9402C92.8779 14.9587 92.8708 14.9772 92.8634 14.9963C92.8013 15.1061 92.7156 15.1865 92.6265 15.2735C92.4893 15.41 92.3585 15.5484 92.234 15.6971C92.1523 15.7912 92.0639 15.8778 91.976 15.9658C91.8913 16.0532 91.8134 16.1456 91.7349 16.2387C91.6484 16.3373 91.5558 16.4291 91.4625 16.521C91.3989 16.5844 91.3989 16.5844 91.338 16.6838C91.3158 16.6838 91.2936 16.6838 91.2708 16.6838C91.2638 16.7021 91.2569 16.7204 91.2498 16.7393C91.1856 16.852 91.101 16.9434 91.0017 17.0256C90.9795 17.0256 90.9573 17.0256 90.9345 17.0256C90.9282 17.0496 90.922 17.0736 90.9156 17.0983C90.8586 17.214 90.7934 17.2652 90.696 17.3455C90.6095 17.4212 90.5385 17.5066 90.4646 17.5948C90.3799 17.6946 90.2927 17.7918 90.2051 17.8889C90.1895 17.9062 90.1739 17.9236 90.1578 17.9415C90.0909 18.0157 90.0232 18.0887 89.9531 18.1599C89.886 18.2263 89.886 18.2263 89.8099 18.3227C89.705 18.4502 89.5961 18.5658 89.4676 18.6689C89.3555 18.8093 89.3639 18.915 89.3659 19.0909C89.3657 19.1234 89.3654 19.156 89.3651 19.1895C89.3643 19.2986 89.3648 19.4076 89.3653 19.5167C89.365 19.5949 89.3646 19.6731 89.3642 19.7512C89.3632 19.9636 89.3633 20.1759 89.3636 20.3882C89.3637 20.61 89.3629 20.8319 89.3621 21.0537C89.361 21.4261 89.3605 21.7985 89.3604 22.1709C89.3603 22.5544 89.3599 22.938 89.3589 23.3215C89.3589 23.3451 89.3588 23.3688 89.3588 23.3932C89.3585 23.5118 89.3582 23.6304 89.3579 23.749C89.3555 24.733 89.3544 25.7169 89.3538 26.7009C88.2773 26.7009 87.2007 26.7009 86.0916 26.7009C86.0529 25.3252 86.0529 25.3252 86.0541 24.7502C86.0541 24.6836 86.0541 24.6171 86.0541 24.5506C86.0541 24.3747 86.0543 24.1988 86.0545 24.023C86.0548 23.8374 86.0548 23.6518 86.0548 23.4663C86.0549 23.117 86.0552 22.7677 86.0555 22.4184C86.0559 22.0199 86.0561 21.6214 86.0563 21.2228C86.0566 20.405 86.0572 19.5871 86.058 18.7692C86.0247 18.758 85.9914 18.7467 85.9571 18.735C85.9125 18.6803 85.9125 18.6803 85.8667 18.6111C85.7738 18.4798 85.671 18.3802 85.5496 18.2764C85.3987 18.1473 85.2758 17.9997 85.1499 17.8462C85.1236 17.8194 85.0972 17.7926 85.07 17.765C84.9992 17.6929 84.9351 17.6203 84.8704 17.5427C84.7698 17.4243 84.6613 17.3246 84.544 17.2237C84.4523 17.1394 84.3735 17.0461 84.2938 16.9502C84.2389 16.8836 84.2389 16.8836 84.1599 16.8077C84.1074 16.7521 84.1074 16.7521 84.1074 16.6838C84.0803 16.6732 84.0803 16.6732 84.0527 16.6624C83.9419 16.5972 83.852 16.5112 83.771 16.4103C83.771 16.3877 83.771 16.3651 83.771 16.3419C83.7511 16.3332 83.7312 16.3244 83.7106 16.3154C83.6289 16.2692 83.5863 16.2228 83.5272 16.1496C83.4029 16.0003 83.2694 15.8634 83.1321 15.7265C82.9771 15.572 82.829 15.4151 82.6874 15.2479C82.5831 15.1286 82.4706 15.0177 82.3585 14.906C82.2033 14.7512 82.0549 14.594 81.9129 14.4264C81.8136 14.3126 81.7066 14.2069 81.5997 14.1004C81.4578 13.9591 81.3222 13.8163 81.1943 13.6617C81.1269 13.5821 81.0537 13.5092 80.9797 13.4359C80.9467 13.4025 80.9138 13.369 80.8809 13.3355C80.864 13.3183 80.8471 13.3011 80.8296 13.2834C80.6749 13.1261 80.6749 13.1261 80.6246 13.0749C80.5791 13.0287 80.5335 12.9828 80.4878 12.937C80.4134 12.8604 80.343 12.7819 80.2734 12.7009C80.1758 12.5886 80.0763 12.4808 79.9707 12.3761C79.6746 12.0806 79.6746 12.0806 79.5756 11.9573C79.4557 11.8083 79.3213 11.6831 79.1783 11.5577C79.0601 11.4522 78.9806 11.3478 78.8945 11.2137C78.8366 11.1591 78.7763 11.1086 78.7151 11.0578C78.641 10.9926 78.5852 10.9157 78.5246 10.8376C78.4968 10.8158 78.4691 10.7939 78.4405 10.7714C78.3564 10.7009 78.3564 10.7009 78.2934 10.6026C78.2192 10.4917 78.1433 10.4235 78.0423 10.3397C77.9683 10.2746 77.9128 10.1975 77.852 10.1197C77.8032 10.0789 77.7544 10.0382 77.7052 9.998C77.5778 9.88392 77.4719 9.74604 77.3644 9.61285C77.255 9.4787 77.1373 9.36503 77.0071 9.25174C76.8819 9.14245 76.777 9.02924 76.6812 8.89317C76.5896 8.76581 76.4866 8.66812 76.3681 8.56691C76.2094 8.43105 76.058 8.27312 75.935 8.10257C75.935 8.08 75.935 8.05744 75.935 8.03419C75.9079 8.02362 75.9079 8.02362 75.8803 8.01283C75.7695 7.94761 75.6796 7.8616 75.5987 7.76069C75.5987 7.73812 75.5987 7.71556 75.5987 7.69231C75.5789 7.68354 75.5592 7.67477 75.5389 7.66574C75.4572 7.62007 75.408 7.57175 75.3451 7.50214C75.323 7.47786 75.3008 7.45358 75.278 7.42857C75.2548 7.40278 75.2316 7.377 75.2077 7.35043C75.1597 7.29764 75.1116 7.24489 75.0635 7.19218C75.0401 7.16657 75.0167 7.14096 74.9926 7.11457C74.8802 6.99321 74.7628 6.87729 74.6444 6.76189C74.5897 6.70086 74.5897 6.70086 74.5897 6.63248C74.5698 6.62376 74.5499 6.61503 74.5293 6.60604C74.4476 6.55979 74.405 6.51339 74.3459 6.44018C74.2216 6.29087 74.0881 6.15401 73.9508 6.0171C73.4816 5.54935 73.4816 5.54935 73.379 5.33334C73.9301 5.32534 74.4812 5.31931 75.0323 5.31562C75.2882 5.31386 75.5441 5.31147 75.8 5.30755C76.0231 5.30413 76.2463 5.30193 76.4695 5.30117C76.5875 5.30073 76.7056 5.29969 76.8236 5.29719C76.9557 5.29442 77.0878 5.29437 77.2199 5.29453C77.2587 5.2933 77.2974 5.29207 77.3373 5.2908C77.5641 5.29373 77.675 5.33455 77.8383 5.49856C77.8888 5.55648 77.9383 5.61531 77.9865 5.67522C78.0236 5.71868 78.0607 5.76213 78.0979 5.80556C78.1135 5.82455 78.1291 5.84355 78.1452 5.86312C78.2112 5.94191 78.2836 6.01317 78.3564 6.08547C78.653 6.38144 78.653 6.38144 78.7516 6.50641C78.8227 6.59914 78.8227 6.59914 78.9071 6.6624C79.0309 6.76427 79.1278 6.88561 79.2308 7.00855C79.3689 7.17137 79.5013 7.32011 79.668 7.453C79.7248 7.52078 79.7808 7.58917 79.8362 7.65812C79.8646 7.68703 79.8931 7.71594 79.9224 7.74573C80.0044 7.82906 80.0044 7.82906 80.0695 7.91453C80.1385 8.00499 80.1385 8.00499 80.2377 8.08334C80.343 8.17292 80.4224 8.26794 80.5088 8.37607C80.5888 8.45942 80.6705 8.54063 80.7526 8.6218C80.8632 8.73669 80.967 8.85681 81.0711 8.9777C81.1476 9.05959 81.2293 9.12628 81.316 9.19659C81.3305 9.22268 81.3451 9.24877 81.3601 9.27565C81.4308 9.39003 81.5184 9.46238 81.6192 9.54915C81.763 9.67348 81.885 9.81329 82.0065 9.95941C82.0489 10.009 82.0942 10.0561 82.1399 10.1026C82.2049 10.1686 82.2624 10.2339 82.3207 10.3056C82.3892 10.3883 82.4593 10.4591 82.5414 10.5278C82.6248 10.5981 82.6963 10.6702 82.7663 10.7543C82.8762 10.886 82.9944 11.007 83.1152 11.1282C83.2305 11.2441 83.3447 11.359 83.4494 11.485C83.5607 11.6186 83.6824 11.7403 83.8047 11.8633C83.946 12.0054 84.0826 12.148 84.2106 12.3028C84.3242 12.4311 84.4471 12.5505 84.5693 12.6704C84.6183 12.7192 84.6657 12.7697 84.7127 12.8205C84.7127 12.8431 84.7127 12.8656 84.7127 12.8889C84.7349 12.8889 84.7571 12.8889 84.78 12.8889C84.8215 12.9319 84.8215 12.9319 84.8725 12.9957C84.9916 13.1388 85.1197 13.2702 85.2508 13.4017C85.3983 13.55 85.5412 13.6994 85.6757 13.8602C85.7429 13.9397 85.816 14.0123 85.8898 14.0855C86.0384 14.2334 86.1813 14.3826 86.3152 14.5445C86.3822 14.6239 86.4552 14.6961 86.5288 14.7692C86.8254 15.0652 86.8254 15.0652 86.924 15.1902C86.9955 15.2832 86.9955 15.2832 87.0816 15.3483C87.1743 15.4241 87.2441 15.5064 87.32 15.599C87.3882 15.6804 87.4624 15.7545 87.5377 15.8291C87.5662 15.8608 87.5946 15.8925 87.6239 15.9252C87.7042 16.0152 87.7042 16.0152 87.8404 16C87.9032 15.9427 87.9032 15.9427 87.9581 15.8675C88.037 15.7658 88.0964 15.714 88.2103 15.6581C88.2194 15.6327 88.2284 15.6074 88.2377 15.5812C88.2793 15.4832 88.3053 15.4578 88.3848 15.3932C88.5093 15.2914 88.5986 15.1753 88.6942 15.0459C88.7617 14.9569 88.8365 14.8809 88.9166 14.8034C89.0747 14.6465 89.2257 14.4863 89.3698 14.316C89.4288 14.2474 89.4922 14.1841 89.5556 14.1197C89.5826 14.0858 89.6097 14.052 89.6376 14.0171C89.7237 13.9145 89.7237 13.9145 89.812 13.844C89.8952 13.783 89.8952 13.783 89.9381 13.6966C89.9894 13.6124 90.0283 13.5722 90.1021 13.5107C90.239 13.3964 90.35 13.2658 90.4636 13.1282C90.5823 12.9854 90.7034 12.8502 90.8336 12.718C90.8658 12.6756 90.8658 12.6756 90.8987 12.6325C90.9646 12.5513 91.0349 12.4906 91.1154 12.425C91.1759 12.3706 91.2268 12.3124 91.2792 12.25C91.3984 12.1098 91.5218 11.9744 91.647 11.8397C91.6914 11.7919 91.7357 11.744 91.78 11.6961C91.8018 11.6725 91.8236 11.6489 91.8461 11.6245C91.9399 11.5229 92.0332 11.4208 92.1263 11.3184C92.1426 11.3004 92.159 11.2825 92.1758 11.264C92.2972 11.1302 92.4151 10.9937 92.5312 10.8551C92.5824 10.8034 92.5824 10.8034 92.6497 10.8034C92.6573 10.7851 92.6649 10.7668 92.6728 10.7479C92.7934 10.5261 92.9846 10.3476 93.1751 10.188C93.2477 10.126 93.2897 10.0837 93.3391 10C93.3891 9.91526 93.4308 9.87562 93.5051 9.81411C93.6151 9.72289 93.6812 9.62497 93.7595 9.50428C93.7921 9.47678 93.8247 9.44928 93.8583 9.42094C93.9585 9.33572 94.0168 9.25772 94.0887 9.14944C94.1468 9.07035 94.2213 9.01782 94.2976 8.95727C94.3517 8.89464 94.4035 8.8307 94.4546 8.7655C94.4694 8.74981 94.4841 8.73412 94.4994 8.71795C94.5216 8.71795 94.5438 8.71795 94.5666 8.71795C94.5743 8.69962 94.5819 8.68129 94.5898 8.6624C94.6672 8.51993 94.7629 8.40716 94.8882 8.3077C94.9754 8.24196 94.9754 8.24196 95.0333 8.14103C95.1061 8.03211 95.1785 7.96718 95.2775 7.88489C95.408 7.7686 95.5169 7.62983 95.6254 7.49253C95.6636 7.44416 95.7035 7.39714 95.7437 7.35043C95.7659 7.35043 95.7881 7.35043 95.811 7.35043C95.8188 7.33122 95.8267 7.312 95.8348 7.29221C95.889 7.19428 95.9562 7.12915 96.0359 7.05129C96.1605 6.92911 96.2756 6.80216 96.3888 6.66923C96.487 6.55534 96.5894 6.44552 96.6917 6.33547C96.8203 6.19692 96.9487 6.05829 97.0745 5.91707C97.1022 5.88608 97.1022 5.88608 97.1305 5.85446C97.1652 5.81548 97.1998 5.77636 97.2342 5.73709C97.2741 5.6924 97.3159 5.64942 97.358 5.60684C97.3802 5.60684 97.4024 5.60684 97.4253 5.60684C97.4336 5.58146 97.4419 5.55607 97.4505 5.52992C97.5286 5.35528 97.6116 5.28192 97.8016 5.2827Z" fill="#0F1413"/>
</g>
<defs>
<clipPath id="clip0_151_841">
<rect width="128" height="32" fill="white"/>
</clipPath>
</defs>
</svg>
