<svg width="113" height="28" viewBox="0 0 113 28" fill="none" xmlns="http://www.w3.org/2000/svg">
<g id="Brand/Logo" clip-path="url(#clip0_266_75)">
<path id="Vector" d="M13.9506 0.0299063C13.9909 0.0302317 13.9909 0.0302317 14.0319 0.0305636C14.5221 0.0365339 15.0063 0.146013 15.4703 0.302292C15.558 0.331622 15.558 0.331622 15.6663 0.354993C15.8048 0.389134 15.9297 0.446259 16.0586 0.506669C16.1882 0.566726 16.3166 0.625934 16.4511 0.674237C16.5522 0.711494 16.6371 0.759795 16.7266 0.820772C16.8195 0.882424 16.9098 0.939785 17.0106 0.987171C17.2469 1.10113 17.4544 1.27625 17.6619 1.43589C17.6839 1.45251 17.706 1.46913 17.7287 1.48625C17.8566 1.58404 17.9727 1.6856 18.0846 1.80152C18.1426 1.86042 18.2021 1.91683 18.2631 1.97248C18.2822 1.99003 18.3014 2.00757 18.3211 2.02565C18.3756 2.0728 18.3756 2.0728 18.4635 2.06409C18.48 2.04312 18.4966 2.02214 18.5136 2.00053C18.5875 1.90799 18.6638 1.84972 18.7586 1.78061C18.814 1.73934 18.8662 1.69647 18.9181 1.6509C19.2794 1.33613 19.645 1.07768 20.0679 0.854309C20.1447 0.813584 20.2199 0.770986 20.295 0.727289C20.4053 0.665408 20.5173 0.616699 20.6352 0.571406C20.6986 0.546752 20.7615 0.520832 20.8242 0.494283C21.0318 0.406458 21.2322 0.336668 21.4535 0.29049C21.5586 0.267617 21.6612 0.238874 21.7647 0.209393C22.2516 0.0795712 22.7173 0.0446129 23.2205 0.0464776C23.3247 0.0467319 23.4289 0.045869 23.5331 0.044922C23.9636 0.0435346 24.368 0.0811887 24.7875 0.179479C24.8087 0.184428 24.83 0.189378 24.8519 0.194477C24.9798 0.224926 25.1064 0.259232 25.2328 0.295398C25.2695 0.305723 25.3061 0.316048 25.3438 0.326685C25.5949 0.399132 25.8282 0.485232 26.0641 0.598282C26.1154 0.617936 26.1667 0.637275 26.2182 0.656242C26.3597 0.712263 26.4805 0.79149 26.6069 0.875927C26.6817 0.923597 26.756 0.962468 26.8361 1.00026C27.01 1.0854 27.1574 1.19896 27.3111 1.31623C27.3483 1.34348 27.3855 1.37067 27.4228 1.39779C27.7948 1.67055 28.1539 1.97509 28.4505 2.33146C28.5338 2.42896 28.6213 2.51101 28.722 2.58994C28.7659 2.63247 28.7659 2.63247 28.7945 2.69101C28.8317 2.76478 28.8754 2.80234 28.9385 2.85496C29.0788 2.97501 29.2037 3.10208 29.3245 3.24198C29.4017 3.33053 29.4801 3.41072 29.5694 3.4869C29.6663 3.56971 29.7469 3.65778 29.8286 3.75555C29.9376 3.87782 30.0554 3.99156 30.1726 4.10583C30.1903 4.12331 30.208 4.1408 30.2262 4.15881C30.2423 4.17452 30.2584 4.19023 30.2749 4.20642C30.3098 4.24786 30.3098 4.24786 30.3098 4.30768C30.3275 4.3156 30.3451 4.32351 30.3633 4.33166C30.4311 4.3689 30.4705 4.40522 30.5222 4.46252C30.54 4.48205 30.5579 4.50158 30.5763 4.52171C30.5955 4.54301 30.6147 4.56431 30.6345 4.58626C30.854 4.82573 31.0808 5.05678 31.3112 5.28561C31.4198 5.39396 31.527 5.50179 31.6261 5.61902C31.7764 5.79554 31.9438 5.95607 32.1079 6.11938C32.2973 6.30785 32.4845 6.49482 32.6553 6.70085C32.7044 6.75105 32.754 6.80088 32.8038 6.85042C32.8382 6.88484 32.8382 6.88484 32.8732 6.91995C32.8966 6.94328 32.9199 6.96661 32.944 6.99064C32.9968 7.04362 33.0497 7.09659 33.1025 7.14956C33.1292 7.17617 33.1558 7.20278 33.1833 7.23019C33.2219 7.26895 33.2219 7.26895 33.2613 7.30849C33.2846 7.33182 33.3079 7.35514 33.3319 7.37918C33.398 7.44919 33.457 7.5224 33.5163 7.59828C33.5998 7.68707 33.6875 7.76777 33.7798 7.84695C33.8828 7.93667 33.971 8.03292 34.059 8.13733C34.1625 8.25725 34.2774 8.36618 34.3903 8.47702C34.4576 8.54644 34.5215 8.61746 34.5852 8.69016C34.6911 8.811 34.8015 8.92486 34.9166 9.03687C35.0406 9.15917 35.1454 9.27459 35.2383 9.42307C35.2841 9.4778 35.331 9.53122 35.3788 9.58421C35.4165 9.63247 35.4165 9.63247 35.4462 9.72221C35.4632 9.73872 35.4802 9.75522 35.4977 9.77223C35.5898 9.8676 35.6528 9.97506 35.7208 10.0887C35.7423 10.1243 35.7423 10.1243 35.7642 10.1607C35.8867 10.3669 35.9955 10.5778 36.0979 10.7948C36.1213 10.843 36.1455 10.8907 36.1703 10.9382C36.2878 11.1661 36.3772 11.3963 36.4556 11.6405C36.4619 11.66 36.4682 11.6795 36.4747 11.6997C36.7095 12.4345 36.8187 13.205 36.8193 13.9757C36.8194 14.0092 36.8194 14.0092 36.8194 14.0434C36.8188 14.4436 36.7895 14.8315 36.7228 15.2265C36.7182 15.2558 36.7136 15.2852 36.7088 15.3154C36.5712 16.1756 36.2786 17.0753 35.7847 17.7976C35.7031 17.9179 35.6312 18.0443 35.557 18.1693C35.5055 18.2479 35.5055 18.2479 35.4462 18.2778C35.4287 18.3157 35.4287 18.3157 35.4109 18.3544C35.3414 18.4872 35.2492 18.5863 35.1493 18.6966C35.1139 18.737 35.0787 18.7775 35.0435 18.8181C35.0263 18.8378 35.0091 18.8575 34.9914 18.8778C34.9592 18.9152 34.9274 18.953 34.8961 18.9912C34.8064 19.1003 34.7123 19.1928 34.6043 19.2834C34.4842 19.3851 34.3815 19.5026 34.2771 19.6202C34.1659 19.7454 34.0514 19.8656 33.932 19.9829C33.8433 20.0701 33.7601 20.1592 33.6796 20.254C33.6016 20.345 33.5205 20.4163 33.4272 20.4914C33.3955 20.527 33.3645 20.5631 33.3338 20.5995C33.2209 20.7309 33.1009 20.8536 32.9782 20.9757C32.9475 21.0064 32.9475 21.0064 32.9161 21.0378C32.8325 21.1215 32.7487 21.2051 32.6647 21.2886C32.5906 21.3644 32.5201 21.4427 32.4493 21.5216C32.2469 21.7455 32.0329 21.9579 31.819 22.1706C31.6475 22.3418 31.6475 22.3418 31.4859 22.5222C31.3218 22.7154 31.1372 22.8902 30.9578 23.0687C30.909 23.1173 30.8604 23.1659 30.8118 23.2146C30.7962 23.2301 30.7807 23.2457 30.7647 23.2617C30.6615 23.3657 30.5644 23.473 30.4726 23.5874C30.4286 23.6325 30.4286 23.6325 30.3674 23.6612C30.2943 23.7007 30.285 23.7373 30.2504 23.812C30.2134 23.8537 30.1748 23.8939 30.135 23.933C30.112 23.9558 30.0891 23.9787 30.0654 24.0022C30.0413 24.0258 30.0173 24.0494 29.9925 24.0737C29.8395 24.2245 29.69 24.3756 29.551 24.5396C29.4573 24.6493 29.3538 24.7447 29.2447 24.8384C29.1391 24.9301 29.0489 25.0291 28.9602 25.1372C28.9144 25.188 28.9144 25.188 28.8253 25.2479C28.8131 25.2701 28.8008 25.2923 28.7882 25.3152C28.7303 25.4068 28.6673 25.4588 28.5848 25.5269C28.5062 25.5966 28.4404 25.6749 28.3732 25.7556C28.0594 26.117 27.6912 26.4362 27.3004 26.7094C27.2563 26.7403 27.2128 26.7721 27.1694 26.804C27.0228 26.9109 26.8727 27.0016 26.7127 27.0865C26.6245 27.1345 26.5394 27.1865 26.4538 27.239C26.3049 27.3273 26.1552 27.3929 25.9927 27.4515C25.9 27.4862 25.8102 27.5243 25.7195 27.5639C25.5336 27.6423 25.346 27.6985 25.1512 27.7495C25.1005 27.7629 25.1005 27.7629 25.0488 27.7766C24.3178 27.9673 23.6073 27.9791 22.8576 27.9701C22.8314 27.9699 22.8052 27.9696 22.7782 27.9694C22.2981 27.9633 21.8046 27.8625 21.3543 27.6955C21.2878 27.6722 21.2253 27.6586 21.156 27.6466C20.9875 27.6122 20.8374 27.5304 20.6838 27.4555C20.5854 27.4076 20.4856 27.3656 20.3841 27.325C20.2437 27.2672 20.1174 27.1978 19.9889 27.1168C19.9195 27.0734 19.849 27.0335 19.7773 26.9941C19.6716 26.9353 19.5699 26.876 19.473 26.8034C19.473 26.7837 19.473 26.7639 19.473 26.7436C19.457 26.7411 19.4411 26.7386 19.4247 26.7361C19.2729 26.6878 19.1674 26.5853 19.0573 26.4744C19.0285 26.4552 18.9997 26.4361 18.9701 26.4164C18.8778 26.3538 18.8082 26.2852 18.7307 26.2051C18.7062 26.186 18.6817 26.1669 18.6565 26.1472C18.5687 26.0742 18.5046 25.9956 18.4338 25.906C18.287 26.0314 18.1435 26.1599 18.0012 26.2904C17.9295 26.3543 17.8557 26.4145 17.7806 26.4744C17.7582 26.4931 17.7358 26.5118 17.7127 26.531C17.5582 26.6588 17.3999 26.7717 17.23 26.8776C17.1751 26.9119 17.1213 26.9479 17.0681 26.9848C16.959 27.0558 16.8459 27.1171 16.7315 27.179C16.6688 27.2132 16.6077 27.2488 16.5466 27.2858C16.4437 27.3423 16.3415 27.3855 16.2322 27.4276C16.1719 27.4518 16.1121 27.4778 16.0529 27.5048C15.8147 27.6134 15.5807 27.687 15.3258 27.7449C15.2482 27.7627 15.1708 27.7814 15.0935 27.8002C14.4098 27.9661 13.7634 27.9787 13.0599 27.9701C13.0331 27.9699 13.0063 27.9696 12.9786 27.9694C12.2399 27.9604 11.4323 27.7493 10.7735 27.4163C10.7014 27.3802 10.6327 27.3509 10.5567 27.325C10.4394 27.279 10.3394 27.2206 10.233 27.1533C10.1636 27.1107 10.0938 27.0713 10.0224 27.0323C9.88944 26.9583 9.76538 26.8755 9.64188 26.7866C9.62041 26.7712 9.59895 26.7558 9.57684 26.74C9.42602 26.6309 9.27861 26.518 9.13344 26.4014C9.10639 26.3797 9.10639 26.3797 9.0788 26.3576C8.93455 26.24 8.80537 26.1131 8.68623 25.9695C8.59598 25.8643 8.49876 25.774 8.39385 25.684C8.2812 25.5866 8.18329 25.4789 8.08686 25.3656C8.02765 25.2964 7.9747 25.2413 7.90316 25.1843C7.8345 25.1282 7.8345 25.1282 7.78069 25.0441C7.70895 24.9387 7.62995 24.87 7.5318 24.7905C7.47822 24.7393 7.47822 24.7393 7.44876 24.6769C7.41057 24.6038 7.37299 24.5946 7.30008 24.5598C7.25033 24.5079 7.25033 24.5079 7.20173 24.4476C7.13481 24.3677 7.06866 24.297 6.98833 24.2308C6.88934 24.1487 6.80816 24.0568 6.72542 23.9584C6.68202 23.908 6.63721 23.8617 6.58938 23.8157C6.52814 23.7521 6.52814 23.7521 6.52814 23.6923C6.51222 23.6861 6.4963 23.68 6.47989 23.6736C6.38207 23.6165 6.30269 23.5413 6.23124 23.453C6.23124 23.4332 6.23124 23.4135 6.23124 23.3932C6.20454 23.3811 6.20454 23.3811 6.1773 23.3688C6.11203 23.3331 6.07473 23.3001 6.02538 23.2449C6.00887 23.2267 5.99235 23.2085 5.97534 23.1898C5.95752 23.1699 5.93971 23.15 5.92135 23.1295C5.70774 22.8952 5.48591 22.67 5.26105 22.4467C5.15157 22.3374 5.04351 22.2287 4.94344 22.1106C4.79864 21.9404 4.63772 21.7855 4.47953 21.6282C4.13159 21.2821 4.13159 21.2821 4.01945 21.1497C3.87563 20.9798 3.71486 20.8258 3.55729 20.6691C3.18739 20.3011 3.18739 20.3011 3.02472 20.1026C2.94108 20.0138 2.85355 19.9331 2.76123 19.8539C2.6609 19.7662 2.5739 19.6733 2.48799 19.5715C2.41966 19.491 2.34938 19.4125 2.27876 19.3341C2.25481 19.3075 2.23085 19.2808 2.20616 19.2534C2.11327 19.1527 2.01687 19.0562 1.91889 18.9605C1.79291 18.8368 1.68029 18.7127 1.57827 18.5683C1.53847 18.5117 1.53847 18.5117 1.47157 18.4516C1.41052 18.3856 1.40153 18.3363 1.39178 18.2479C1.36238 18.238 1.33299 18.2281 1.30271 18.2179C1.1864 18.0745 1.09909 17.9066 1.01195 17.7441C0.978834 17.6844 0.943105 17.628 0.905603 17.571C0.790647 17.3887 0.70803 17.1878 0.619837 16.9914C0.601754 16.9527 0.601754 16.9527 0.583305 16.9132C0.522787 16.7819 0.477453 16.6515 0.438798 16.5121C0.419213 16.447 0.396937 16.3827 0.373155 16.3191C0.259044 16.0112 0.192883 15.6987 0.13552 15.3761C0.131693 15.3547 0.127867 15.3332 0.123925 15.3112C0.0472845 14.8785 0.0189106 14.4616 0.0186154 14.0224C0.0185954 13.9957 0.0185753 13.9689 0.0185547 13.9413C0.0190039 13.5632 0.0293831 13.1943 0.100248 12.8218C0.116915 12.7341 0.131797 12.6461 0.146769 12.558C0.213266 12.1828 0.309526 11.8366 0.450207 11.4831C0.476476 11.4139 0.495798 11.3439 0.514067 11.2722C0.570199 11.0716 0.674801 10.8891 0.769722 10.705C0.807095 10.6317 0.84233 10.5574 0.877769 10.4832C0.929343 10.3789 0.988058 10.2874 1.05753 10.1945C1.115 10.1122 1.16068 10.0239 1.20737 9.935C1.24485 9.86911 1.28345 9.80993 1.3324 9.75213C1.35199 9.75213 1.37159 9.75213 1.39178 9.75213C1.39912 9.71603 1.39912 9.71603 1.40662 9.67921C1.47063 9.52605 1.57686 9.42363 1.68868 9.30341C1.72474 9.26245 1.76063 9.22132 1.7963 9.18001C1.81318 9.16062 1.83006 9.14122 1.84745 9.12124C1.8796 9.08378 1.9114 9.04601 1.94278 9.00789C2.01225 8.92371 2.07779 8.85206 2.16186 8.78178C2.29217 8.67192 2.3975 8.54334 2.50503 8.41123C2.60023 8.29556 2.70175 8.19664 2.81608 8.10005C2.94061 7.99029 3.05229 7.86824 3.16448 7.74599C3.39547 7.49448 3.63401 7.25135 3.87617 7.01074C3.98565 6.90152 4.0937 6.79278 4.19377 6.67467C4.35297 6.48759 4.53131 6.31799 4.70525 6.14497C4.91767 5.93515 4.91767 5.93515 5.11787 5.71367C5.27546 5.52758 5.45298 5.35945 5.62564 5.18771C5.67232 5.14123 5.71892 5.09467 5.76548 5.04807C5.78035 5.0332 5.79523 5.01833 5.81055 5.00301C5.91307 4.8997 6.00904 4.79269 6.10054 4.6794C6.14217 4.63674 6.14217 4.63674 6.23124 4.60683C6.2392 4.59017 6.24716 4.57351 6.25536 4.55635C6.30644 4.45613 6.38224 4.37875 6.46876 4.30768C6.48836 4.30768 6.50795 4.30768 6.52814 4.30768C6.53499 4.29095 6.54184 4.27421 6.5489 4.25697C6.59768 4.16989 6.65895 4.11149 6.7304 4.04219C6.85408 3.92054 6.85408 3.92054 6.96792 3.78979C7.03463 3.70722 7.10572 3.63414 7.18132 3.55982C7.19678 3.54359 7.21224 3.52735 7.22817 3.51063C7.27083 3.46609 7.31505 3.42309 7.35946 3.38033C7.37906 3.38033 7.39865 3.38033 7.41884 3.38033C7.42638 3.36256 7.43392 3.34478 7.44169 3.32646C7.48229 3.25334 7.52291 3.21727 7.5877 3.16532C7.70158 3.06866 7.78764 2.9634 7.87671 2.84374C7.96693 2.72494 8.07475 2.63004 8.18707 2.53338C8.29148 2.44244 8.38111 2.3445 8.47051 2.23879C8.58321 2.10641 8.71085 1.99298 8.8421 1.87993C8.88779 1.83879 8.9319 1.79586 8.97513 1.7521C9.29505 1.43121 9.68104 1.14575 10.0811 0.934587C10.1558 0.894464 10.2286 0.851362 10.3016 0.8081C10.4586 0.715602 10.6142 0.630914 10.7853 0.567667C10.8405 0.546879 10.895 0.524051 10.9488 0.499892C11.2123 0.384295 11.4837 0.306155 11.761 0.231829C11.7801 0.226668 11.7993 0.221507 11.819 0.216189C12.53 0.0255676 13.2184 0.0209162 13.9506 0.0299063ZM16.9475 4.93215C16.9179 4.96136 16.9179 4.96136 16.8878 4.99116C16.8692 5.00986 16.8506 5.02857 16.8314 5.04783C16.8141 5.06507 16.7969 5.0823 16.7792 5.10005C16.7351 5.14309 16.7351 5.14309 16.7415 5.20512C16.7255 5.21114 16.7095 5.21715 16.693 5.22335C16.5934 5.28231 16.5246 5.36605 16.4483 5.45191C16.234 5.68866 16.0097 5.91448 15.7834 6.13945C15.6696 6.25308 15.5567 6.36592 15.4526 6.48876C15.2939 6.67556 15.1158 6.84475 14.9422 7.0174C14.7781 7.18082 14.6151 7.34375 14.4657 7.52115C14.3733 7.63017 14.2702 7.7243 14.1622 7.81703C14.0566 7.90873 13.9664 8.00771 13.8777 8.11583C13.8319 8.16666 13.8319 8.16666 13.7428 8.22649C13.7306 8.2487 13.7183 8.27091 13.7057 8.2938C13.6478 8.3854 13.5848 8.43746 13.5023 8.50553C13.4221 8.57662 13.3552 8.65711 13.286 8.73877C13.1889 8.85239 13.0824 8.95075 12.969 9.04727C12.8697 9.13351 12.8051 9.22246 12.7333 9.33333C12.6907 9.36964 12.6479 9.4059 12.6039 9.4406C12.5263 9.50799 12.4627 9.58693 12.3962 9.66519C12.2943 9.78426 12.1814 9.88706 12.0635 9.98958C11.9592 10.0818 11.8882 10.1729 11.813 10.2906C11.7541 10.3411 11.6947 10.3909 11.6348 10.4402C11.5852 10.4999 11.5357 10.5597 11.4864 10.6196C11.4625 10.6388 11.4386 10.6579 11.414 10.6776C11.3322 10.744 11.2705 10.816 11.2035 10.8969C11.1233 10.9919 11.0332 11.0769 10.9445 11.1637C10.847 11.2642 10.7553 11.3694 10.6634 11.4751C10.5958 11.5469 10.5241 11.6054 10.4472 11.6667C10.4227 11.6963 10.3982 11.7259 10.373 11.7564C10.2988 11.8461 10.2988 11.8461 10.2283 11.9022C10.0988 12.0079 9.99738 12.1395 9.8903 12.2675C9.7935 12.3817 9.69552 12.4841 9.57948 12.5785C9.42655 12.7105 9.29281 12.8645 9.1557 13.0128C8.9527 13.2323 8.9527 13.2323 8.85208 13.3336C8.78798 13.3983 8.72863 13.4651 8.66953 13.5344C8.59738 13.6171 8.52565 13.6926 8.44129 13.7625C8.3694 13.8222 8.30844 13.8835 8.2483 13.9551C8.05867 14.1801 7.84266 14.3823 7.63432 14.5895C7.57944 14.6457 7.52813 14.7022 7.47822 14.7628C7.38884 14.8713 7.2897 14.9687 7.18983 15.0673C7.13432 15.1221 7.07895 15.1771 7.02359 15.2321C6.99486 15.2603 6.99486 15.2603 6.96555 15.2891C6.94746 15.3071 6.92938 15.3251 6.91075 15.3437C6.89428 15.36 6.87781 15.3763 6.86084 15.393C6.81867 15.4342 6.81867 15.4342 6.82504 15.4957C6.80755 15.5032 6.79006 15.5107 6.77204 15.5184C6.69758 15.5605 6.65806 15.6051 6.60422 15.6715C6.52562 15.7653 6.4452 15.8378 6.35 15.9145C6.32072 15.9477 6.29204 15.9815 6.26371 16.0155C6.09909 16.2071 5.91721 16.3822 5.73831 16.5601C5.52613 16.7697 5.52613 16.7697 5.32628 16.991C5.23835 17.0949 5.14397 17.1914 5.0477 17.2873C5.03219 17.3028 5.01667 17.3183 5.00069 17.3342C4.93615 17.3984 4.8715 17.4625 4.80672 17.5264C4.75888 17.5737 4.71122 17.6212 4.66359 17.6687C4.64896 17.6831 4.63433 17.6974 4.61926 17.7122C4.54576 17.7857 4.48897 17.8515 4.44984 17.9487C4.46527 17.9621 4.48069 17.9755 4.49658 17.9893C4.65302 18.1259 4.79972 18.2647 4.93416 18.4236C5.00559 18.507 5.07902 18.5805 5.1624 18.6517C5.23983 18.718 5.30837 18.7848 5.37394 18.863C5.56255 19.0873 5.77791 19.2888 5.98572 19.4949C6.05953 19.5707 6.12553 19.6505 6.19169 19.7329C6.20474 19.7463 6.21779 19.7597 6.23124 19.7735C6.25084 19.7735 6.27043 19.7735 6.29062 19.7735C6.29667 19.7894 6.30271 19.8053 6.30894 19.8216C6.36767 19.9239 6.44807 19.9983 6.53185 20.0801C6.54858 20.0967 6.5653 20.1133 6.58253 20.1304C6.62365 20.1711 6.66495 20.2116 6.70628 20.2521C6.85721 20.1263 6.99152 19.9936 7.1238 19.8483C7.34839 19.6043 7.58085 19.3689 7.81589 19.1352C7.92894 19.0224 8.04085 18.9102 8.14427 18.7883C8.29768 18.6078 8.46926 18.4442 8.63701 18.2775C8.84245 18.0744 8.84245 18.0744 9.03601 17.8599C9.19402 17.6736 9.37174 17.5051 9.54472 17.333C9.70882 17.1696 9.87178 17.0067 10.0212 16.8293C10.1136 16.7202 10.2168 16.6261 10.3247 16.5334C10.4298 16.4419 10.5202 16.3434 10.6099 16.2368C10.6616 16.176 10.7176 16.1207 10.7738 16.0641C10.8031 16.03 10.8321 15.9957 10.861 15.9613C10.9704 15.8318 11.0871 15.7162 11.2154 15.606C11.3197 15.5152 11.4094 15.4175 11.4984 15.3117C11.5601 15.2397 11.6275 15.174 11.6942 15.1068C11.7138 15.0815 11.7334 15.0562 11.7536 15.0302C11.813 14.9573 11.813 14.9573 11.8835 14.9012C11.966 14.8338 12.0284 14.7613 12.0963 14.6796C12.1954 14.5618 12.3077 14.4615 12.4235 14.3608C12.5277 14.2686 12.5987 14.1775 12.674 14.0598C12.7328 14.0093 12.7922 13.9595 12.8521 13.9102C12.9017 13.8505 12.9512 13.7907 13.0006 13.7308C13.05 13.6909 13.0995 13.651 13.149 13.6111C13.1735 13.5815 13.198 13.5519 13.2232 13.5214C13.2924 13.4377 13.3618 13.3793 13.4459 13.312C13.5359 13.22 13.5359 13.22 13.5647 13.1026C13.5825 13.0947 13.6004 13.0868 13.6188 13.0787C13.687 13.0408 13.7194 13.0068 13.7669 12.9455C13.8444 12.8502 13.9281 12.774 14.0222 12.6958C14.0863 12.6388 14.135 12.5716 14.1882 12.5043C14.2312 12.4686 14.2743 12.433 14.3177 12.3978C14.4306 12.2976 14.5242 12.1765 14.6196 12.0598C14.7094 11.951 14.8032 11.8584 14.9111 11.768C15.0495 11.6507 15.1662 11.5128 15.2848 11.3759C15.3524 11.3007 15.4229 11.2294 15.4945 11.1581C15.5258 11.1267 15.557 11.0952 15.5882 11.0637C15.6544 10.997 15.7206 10.9303 15.7868 10.8636C15.8026 10.8476 15.8185 10.8316 15.8348 10.8151C15.8765 10.7732 15.9184 10.7315 15.9603 10.6898C16.0205 10.6283 16.0772 10.5656 16.1328 10.5C16.2274 10.3885 16.3292 10.286 16.4332 10.1834C16.4847 10.1326 16.5361 10.0817 16.5875 10.0307C16.6141 10.0046 16.6141 10.0046 16.6412 9.97807C16.6857 9.93379 16.7286 9.88795 16.7712 9.84187C16.7712 9.82213 16.7712 9.80239 16.7712 9.78204C16.7887 9.77472 16.8062 9.76739 16.8242 9.75984C16.9213 9.70429 16.9748 9.6214 17.042 9.53314C17.0978 9.4829 17.0978 9.4829 17.1712 9.46771C17.2723 9.48819 17.3011 9.52962 17.365 9.61003C17.4482 9.71089 17.5296 9.79078 17.6322 9.87179C17.6817 9.93162 17.7312 9.99144 17.7806 10.0513C17.8155 10.079 17.8155 10.079 17.8512 10.1074C17.9604 10.1965 18.0459 10.3027 18.1369 10.4102C18.2588 10.5527 18.3756 10.6829 18.5229 10.7991C18.5724 10.859 18.6219 10.9188 18.6713 10.9786C18.7062 11.0064 18.7062 11.0064 18.7419 11.0347C18.8714 11.1403 18.9727 11.272 19.0798 11.4C19.1782 11.5161 19.2789 11.6186 19.3955 11.7161C19.5462 11.8432 19.6714 11.9959 19.7999 12.1449C19.8194 12.1648 19.8389 12.1847 19.8589 12.2051C19.8785 12.2051 19.8981 12.2051 19.9183 12.2051C19.9257 12.2218 19.933 12.2384 19.9406 12.2556C20.0247 12.4124 20.1439 12.519 20.2763 12.6335C20.4179 12.7569 20.5394 12.8973 20.6629 13.0385C20.7076 13.0887 20.7543 13.1371 20.8016 13.1848C20.8684 13.2521 20.8684 13.2521 20.9296 13.3307C20.9838 13.3975 21.0354 13.4432 21.1059 13.4914C21.2203 13.4445 21.2875 13.3703 21.3731 13.282C21.4063 13.2537 21.4397 13.2257 21.4733 13.1979C21.5682 13.1169 21.6481 13.0288 21.7287 12.9335C21.8028 12.8468 21.8791 12.7624 21.9558 12.6781C21.9693 12.6632 21.9828 12.6483 21.9968 12.6329C22.1131 12.5051 22.23 12.3796 22.364 12.2706C22.4644 12.1853 22.5484 12.0906 22.6333 11.99C22.6854 11.9289 22.7417 11.8732 22.7982 11.8162C22.8275 11.7821 22.8566 11.7478 22.8855 11.7134C23.0394 11.5313 23.214 11.3755 23.392 11.2179C23.3756 11.1088 23.3394 11.0689 23.2547 11.0011C23.1463 10.91 23.0553 10.8127 22.9639 10.7046C22.8673 10.5912 22.7609 10.4933 22.6479 10.3972C22.5485 10.3108 22.4847 10.2217 22.4123 10.1111C22.3618 10.064 22.3092 10.0205 22.2558 9.97672C22.2066 9.93347 22.1671 9.88954 22.1265 9.83813C22.0606 9.75173 22.0606 9.75173 21.9836 9.69417C21.9018 9.6278 21.8401 9.55582 21.7731 9.47483C21.6924 9.3792 21.6015 9.29368 21.5123 9.20619C21.4439 9.13569 21.3798 9.06359 21.3156 8.98931C21.2475 8.91128 21.181 8.83904 21.1003 8.7743C21.0099 8.6994 20.943 8.6162 20.8684 8.52563C20.8433 8.50589 20.8182 8.48615 20.7923 8.4658C20.7199 8.40597 20.7199 8.40597 20.6643 8.31997C20.5992 8.22348 20.5329 8.16283 20.4444 8.08953C20.327 7.99166 20.2279 7.87817 20.128 7.76281C20.0353 7.65667 19.9373 7.56895 19.8292 7.47862C19.7413 7.38399 19.6586 7.28495 19.577 7.18474C19.4803 7.06728 19.3764 6.96775 19.2613 6.86865C19.1172 6.74378 18.9954 6.60066 18.8723 6.45534C18.855 6.43764 18.8377 6.41994 18.8198 6.4017C18.8002 6.4017 18.7806 6.4017 18.7604 6.4017C18.7503 6.37764 18.7503 6.37764 18.74 6.35309C18.6475 6.18439 18.5153 6.06624 18.3718 5.94247C18.2399 5.82783 18.1264 5.69902 18.0135 5.56596C17.9485 5.49263 17.8795 5.4241 17.8103 5.35469C17.7604 5.30403 17.7104 5.25336 17.6605 5.20267C17.6185 5.16011 17.5764 5.11755 17.5344 5.07501C17.5053 5.04559 17.4763 5.01614 17.4473 4.98667C17.4052 4.94393 17.3631 4.90129 17.3209 4.85865C17.2959 4.83328 17.2709 4.80792 17.2451 4.78178C17.1243 4.66715 17.0419 4.83712 16.9475 4.93215ZM30.102 7.74786C30.0611 7.78643 30.0216 7.82644 29.9832 7.86751C29.9832 7.88726 29.9832 7.907 29.9832 7.92734C29.9673 7.93351 29.9514 7.93968 29.935 7.94604C29.8371 8.0031 29.7578 8.07836 29.6863 8.16666C29.6863 8.1864 29.6863 8.20615 29.6863 8.22649C29.6694 8.23343 29.6525 8.24037 29.6351 8.24752C29.5504 8.29619 29.5018 8.35415 29.4377 8.42841C29.242 8.65058 29.0315 8.85799 28.8218 9.06652C28.6498 9.23807 28.6498 9.23807 28.4879 9.4191C28.3961 9.5273 28.2977 9.62749 28.1973 9.72759C28.181 9.74386 28.1647 9.76013 28.1479 9.77689C28.0798 9.84461 28.0117 9.91222 27.9434 9.9797C27.8931 10.0295 27.8429 10.0795 27.7928 10.1296C27.7772 10.1449 27.7616 10.1602 27.7455 10.1759C27.7085 10.213 27.6729 10.2517 27.6377 10.2906C27.6377 10.3103 27.6377 10.3301 27.6377 10.3504C27.6181 10.3504 27.5985 10.3504 27.5783 10.3504C27.5297 10.3988 27.5297 10.3988 27.48 10.4607C27.3983 10.5589 27.3127 10.6494 27.222 10.7393C27.1341 10.8271 27.0463 10.915 26.9585 11.0029C26.9355 11.0259 26.9124 11.0489 26.8886 11.0726C26.7616 11.2001 26.6394 11.3297 26.5228 11.4669C26.4289 11.5765 26.3254 11.672 26.2163 11.7657C26.1112 11.8572 26.0209 11.9558 25.9311 12.0623C25.8794 12.1231 25.8234 12.1784 25.7672 12.235C25.738 12.2691 25.7089 12.3034 25.68 12.3379C25.5707 12.4673 25.454 12.5829 25.3256 12.6931C25.221 12.7839 25.1317 12.8817 25.044 12.989C24.9953 13.0427 24.9953 13.0427 24.9323 13.0903C24.8718 13.1302 24.8718 13.1302 24.8376 13.2016C24.7805 13.2933 24.7163 13.3456 24.634 13.4135C24.5623 13.4768 24.5035 13.5479 24.4427 13.6216C24.3654 13.7142 24.2805 13.7967 24.1896 13.8755C24.0333 14.0111 24.0333 14.0111 23.9042 14.172C23.8389 14.267 23.7786 14.3189 23.6889 14.3889C23.6644 14.4185 23.64 14.4481 23.6147 14.4786C23.5454 14.5625 23.4761 14.6203 23.392 14.688C23.3675 14.7176 23.3431 14.7473 23.3178 14.7778C23.2486 14.8614 23.1792 14.9198 23.0951 14.9872C23.0051 15.0791 23.0051 15.0791 22.9764 15.1966C22.9496 15.2084 22.9496 15.2084 22.9222 15.2204C22.8541 15.2584 22.8217 15.2923 22.7741 15.3536C22.6966 15.4489 22.6129 15.5251 22.5189 15.6033C22.4547 15.6603 22.406 15.7275 22.3529 15.7949C22.3099 15.8305 22.2668 15.8662 22.2233 15.9013C22.1105 16.0015 22.0169 16.1226 21.9215 16.2394C21.8317 16.3481 21.7378 16.4407 21.6299 16.5312C21.4915 16.6484 21.3748 16.7864 21.2562 16.9232C21.1887 16.9985 21.1182 17.0697 21.0465 17.141C21.0153 17.1725 20.984 17.2039 20.9528 17.2354C20.8866 17.3021 20.8205 17.3688 20.7543 17.4355C20.7384 17.4515 20.7225 17.4675 20.7062 17.484C20.6645 17.5259 20.6227 17.5677 20.5808 17.6094C20.5206 17.6709 20.4639 17.7335 20.4082 17.7991C20.3128 17.9116 20.2099 18.015 20.105 18.1185C20.0495 18.1734 19.9941 18.2284 19.9387 18.2834C19.91 18.3116 19.91 18.3116 19.8807 18.3403C19.8626 18.3584 19.8445 18.3764 19.8259 18.395C19.8094 18.4113 19.7929 18.4275 19.776 18.4443C19.7338 18.4855 19.7338 18.4855 19.7402 18.547C19.5604 18.518 19.5604 18.518 19.4841 18.4341C19.4542 18.3919 19.4248 18.3492 19.3958 18.3063C19.3427 18.2317 19.2777 18.184 19.2058 18.1282C19.1563 18.0684 19.1068 18.0085 19.0573 17.9487C19.0334 17.9296 19.0095 17.9105 18.9849 17.8908C18.9031 17.8244 18.8415 17.7525 18.7746 17.6714C18.7361 17.626 18.6946 17.5833 18.6528 17.5411C18.5823 17.4701 18.5823 17.4701 18.5247 17.3953C18.4635 17.3158 18.4635 17.3158 18.3744 17.2457C18.2912 17.1759 18.2338 17.106 18.1666 17.0214C18.1372 16.9967 18.1078 16.972 18.0775 16.9466C17.9945 16.8769 17.9366 16.8069 17.8697 16.7222C17.8471 16.7043 17.8244 16.6864 17.8011 16.668C17.6711 16.5614 17.569 16.4297 17.4612 16.3008C17.3644 16.1867 17.2665 16.0843 17.1504 15.9899C16.976 15.8393 16.8244 15.6613 16.6681 15.4922C16.5874 15.4052 16.5066 15.3189 16.423 15.2348C16.3589 15.1701 16.2996 15.1032 16.2405 15.0339C16.1511 14.9315 16.0585 14.8425 15.9538 14.7564C15.9008 14.7096 15.8625 14.6554 15.8211 14.5983C15.8015 14.5983 15.7819 14.5983 15.7617 14.5983C15.7519 14.5687 15.7421 14.5391 15.732 14.5085C15.6177 14.5555 15.5504 14.6297 15.4648 14.7179C15.4316 14.7462 15.3982 14.7743 15.3646 14.8021C15.2676 14.8846 15.1871 14.9755 15.1051 15.0728C15.0445 15.1421 14.9808 15.2066 14.9156 15.2714C14.8317 15.3546 14.7523 15.4389 14.6762 15.5294C14.5901 15.6307 14.4962 15.7151 14.3954 15.8012C14.315 15.8744 14.2462 15.9555 14.1761 16.0386C14.0939 16.1348 14.0031 16.2219 13.9117 16.309C13.8548 16.3582 13.8548 16.3582 13.8616 16.4231C13.8438 16.4308 13.826 16.4386 13.8077 16.4466C13.7379 16.4856 13.703 16.523 13.6537 16.5857C13.5904 16.6635 13.5302 16.7265 13.4459 16.782C13.4624 16.8912 13.4986 16.9311 13.5832 16.9989C13.6937 17.0913 13.7847 17.1904 13.8751 17.3025C13.9214 17.3583 13.9214 17.3583 14.01 17.3803C14.0309 17.4196 14.0505 17.4597 14.0694 17.5C14.1897 17.663 14.3327 17.7959 14.4832 17.93C14.5886 18.0249 14.6836 18.1213 14.7731 18.2313C14.8513 18.3257 14.9414 18.409 15.0287 18.4947C15.0971 18.5651 15.1612 18.6372 15.2254 18.7115C15.2935 18.7896 15.36 18.8618 15.4407 18.9265C15.5311 19.0014 15.5981 19.0846 15.6727 19.1752C15.6978 19.195 15.7229 19.2147 15.7487 19.235C15.8211 19.2949 15.8211 19.2949 15.8786 19.3827C15.9469 19.4849 16.0235 19.5466 16.118 19.6239C16.1576 19.6738 16.1972 19.7236 16.2368 19.7735C16.2808 19.8105 16.2808 19.8105 16.3258 19.8483C16.409 19.9181 16.4664 19.988 16.5337 20.0726C16.5767 20.1083 16.6198 20.1439 16.6632 20.1791C16.7757 20.2789 16.8692 20.3996 16.964 20.5161C17.0607 20.6336 17.1646 20.7331 17.2797 20.8322C17.4238 20.9571 17.5457 21.1002 17.6687 21.2455C17.6861 21.2632 17.7034 21.2809 17.7213 21.2991C17.7409 21.2991 17.7604 21.2991 17.7806 21.2991C17.7874 21.3152 17.7941 21.3312 17.8011 21.3477C17.8936 21.5164 18.0258 21.6346 18.1693 21.7584C18.3011 21.873 18.4146 22.0018 18.5275 22.1349C18.5926 22.2082 18.6615 22.2768 18.7307 22.3461C18.7625 22.378 18.7943 22.4099 18.8261 22.4418C18.8433 22.459 18.8604 22.4761 18.878 22.4938C18.9548 22.5708 19.0315 22.6478 19.1081 22.7248C19.1487 22.7655 19.1892 22.8061 19.2298 22.8467C19.2885 22.9055 19.3471 22.9644 19.4057 23.0233C19.4239 23.0415 19.4421 23.0597 19.4609 23.0785C19.5883 23.2069 19.5883 23.2069 19.6214 23.2735C19.6966 23.2432 19.7329 23.2283 19.7699 23.1538C19.8077 23.0776 19.8439 23.0717 19.9183 23.0342C19.9639 22.9937 19.9639 22.9937 20.0054 22.9457C20.0219 22.9275 20.0384 22.9094 20.0555 22.8906C20.0733 22.8707 20.0911 22.8509 20.1094 22.8304C20.3231 22.596 20.5449 22.3709 20.7697 22.1475C20.8795 22.038 20.9879 21.9289 21.0883 21.8105C21.242 21.6298 21.4138 21.4659 21.5818 21.2989C21.7868 21.0963 21.7868 21.0963 21.9798 20.8823C22.1288 20.7066 22.2956 20.5472 22.4587 20.3849C22.7423 20.1035 22.7423 20.1035 23.0061 19.8034C23.0897 19.7147 23.1772 19.634 23.2696 19.5547C23.3739 19.4639 23.4635 19.3662 23.5526 19.2604C23.6142 19.1884 23.6816 19.1228 23.7483 19.0555C23.7679 19.0309 23.7875 19.0062 23.8077 18.9808C23.9083 18.8541 24.0242 18.7485 24.1454 18.6424C24.2545 18.5456 24.3505 18.4437 24.4443 18.332C24.5055 18.2603 24.5727 18.1951 24.639 18.1282C24.6586 18.1029 24.6782 18.0776 24.6984 18.0515C24.7578 17.9786 24.7578 17.9786 24.8301 17.9207C24.9109 17.8594 24.9109 17.8594 24.9805 17.7692C25.0498 17.6854 25.1191 17.6276 25.2031 17.5598C25.2276 17.5302 25.2521 17.5006 25.2774 17.4701C25.3466 17.3864 25.4159 17.328 25.5 17.2607C25.5901 17.1687 25.5901 17.1687 25.6188 17.0513C25.6363 17.0438 25.6538 17.0363 25.6718 17.0286C25.7463 16.9865 25.7858 16.9419 25.8396 16.8755C25.918 16.7818 25.9983 16.7085 26.0938 16.6325C26.1183 16.6029 26.1428 16.5732 26.1681 16.5427C26.2423 16.453 26.2423 16.453 26.3128 16.3969C26.4423 16.2913 26.5437 16.1596 26.6507 16.0316C26.7491 15.9156 26.8497 15.8131 26.9663 15.7156C27.106 15.5978 27.2229 15.4579 27.343 15.3207C27.4254 15.228 27.5121 15.1411 27.6024 15.0563C27.6443 15.0185 27.6443 15.0185 27.6377 14.9573C27.655 14.95 27.6722 14.9428 27.69 14.9353C27.7685 14.8905 27.8119 14.8399 27.8697 14.7703C27.9572 14.6679 28.0458 14.5777 28.1502 14.4931C28.281 14.3806 28.3959 14.2511 28.5117 14.1234C28.5333 14.0997 28.5333 14.0997 28.5553 14.0755C28.6293 13.9939 28.7016 13.9114 28.7715 13.8261C28.8501 13.732 28.9389 13.6534 29.0323 13.5744C29.1654 13.4571 29.2836 13.3258 29.4024 13.1942C29.6238 12.9505 29.8569 12.7191 30.0903 12.4872C30.1645 12.4113 30.2353 12.3329 30.3061 12.2537C30.5152 12.0224 30.7366 11.8033 30.9575 11.5836C31.1353 11.4064 31.1353 11.4064 31.3029 11.2195C31.4612 11.033 31.639 10.8642 31.8122 10.692C32.1366 10.4059 32.1366 10.4059 32.3584 10.0513C32.3284 10.0266 32.2984 10.0019 32.2675 9.97649C32.1171 9.84673 31.9934 9.69657 31.8704 9.54086C31.7906 9.44875 31.7053 9.3721 31.6134 9.29278C31.4691 9.16734 31.3468 9.02415 31.2234 8.87841C31.206 8.86071 31.1887 8.84301 31.1708 8.82478C31.1512 8.82478 31.1316 8.82478 31.1114 8.82478C31.1047 8.80874 31.098 8.7927 31.091 8.77617C30.9985 8.60747 30.8663 8.48932 30.7228 8.36554C30.5895 8.24963 30.4756 8.11883 30.3605 7.98518C30.2454 7.84896 30.2454 7.84896 30.102 7.74786Z" fill="#06AF7F"/>
<path id="Vector_2" d="M94.1524 4.6251C94.1747 4.62497 94.1971 4.62484 94.2202 4.62471C94.2957 4.62438 94.3713 4.62469 94.4469 4.625C94.5014 4.6249 94.5559 4.62476 94.6103 4.62458C94.7606 4.6242 94.9108 4.62439 95.0611 4.62467C95.223 4.62487 95.3848 4.62456 95.5467 4.62431C95.8643 4.62391 96.1818 4.624 96.4993 4.62426C96.7577 4.62446 97.0161 4.62449 97.2745 4.62439C97.3112 4.62438 97.348 4.62436 97.3859 4.62435C97.4605 4.62432 97.5352 4.62429 97.6099 4.62426C98.2911 4.62401 98.9724 4.62427 99.6537 4.62474C100.274 4.62516 100.895 4.62513 101.515 4.6247C102.213 4.62422 102.91 4.62403 103.608 4.6243C103.683 4.62433 103.757 4.62436 103.832 4.62439C103.887 4.62441 103.887 4.62441 103.943 4.62443C104.201 4.62451 104.458 4.62438 104.715 4.62417C105.03 4.62391 105.345 4.62399 105.66 4.62446C105.82 4.6247 105.98 4.62479 106.14 4.62449C106.973 4.62306 107.78 4.65208 108.599 4.82149C108.62 4.82588 108.642 4.83027 108.664 4.83479C109.012 4.90575 109.34 5.00195 109.665 5.14655C109.735 5.17692 109.806 5.20431 109.877 5.23177C110.034 5.29476 110.18 5.37255 110.328 5.45531C110.353 5.46896 110.378 5.48261 110.404 5.49667C110.566 5.5869 110.714 5.68693 110.859 5.80307C110.903 5.83829 110.903 5.83829 110.948 5.87423C110.974 5.89578 111.001 5.91734 111.028 5.93955C111.067 5.972 111.067 5.972 111.108 6.00511C111.187 6.07392 111.26 6.14652 111.334 6.22187C111.353 6.24084 111.373 6.25981 111.393 6.27936C111.536 6.41975 111.66 6.56873 111.779 6.73042C111.802 6.7602 111.802 6.7602 111.825 6.7906C111.883 6.87106 111.929 6.95625 111.976 7.04358C112.003 7.09385 112.031 7.14372 112.06 7.19316C112.672 8.2653 112.791 9.75514 112.492 10.9484C112.359 11.3917 112.197 11.7981 111.928 12.1749C111.896 12.224 111.864 12.2732 111.833 12.3226C111.765 12.4254 111.689 12.5075 111.601 12.5937C111.582 12.6288 111.582 12.6288 111.562 12.6647C111.499 12.7637 111.42 12.8283 111.331 12.9037C111.271 12.9538 111.271 12.9538 111.209 13.0199C111.148 13.0802 111.081 13.1175 111.007 13.162C110.98 13.1904 110.98 13.1904 110.952 13.2192C110.887 13.2829 110.826 13.3238 110.748 13.3688C110.708 13.3919 110.708 13.3919 110.667 13.4154C110.639 13.4312 110.611 13.4469 110.582 13.4631C110.541 13.4868 110.541 13.4868 110.499 13.511C110.355 13.5935 110.211 13.6684 110.057 13.7304C110.077 13.7384 110.098 13.7465 110.118 13.7547C110.302 13.8297 110.482 13.911 110.66 13.9996C110.68 14.0092 110.699 14.0188 110.719 14.0286C110.837 14.0881 110.943 14.1554 111.049 14.2345C111.099 14.2724 111.099 14.2724 111.17 14.3121C111.273 14.3765 111.361 14.4545 111.453 14.5344C111.47 14.5498 111.488 14.5653 111.507 14.5812C111.612 14.6725 111.715 14.7642 111.809 14.8672C111.809 14.8869 111.809 14.9067 111.809 14.927C111.828 14.927 111.848 14.927 111.868 14.927C111.916 14.9827 111.916 14.9827 111.97 15.056C112.042 15.1538 112.042 15.1538 112.124 15.2431C112.17 15.2909 112.192 15.3339 112.219 15.3944C112.263 15.4883 112.314 15.5712 112.373 15.6562C112.45 15.7707 112.503 15.8836 112.551 16.0133C112.585 16.104 112.621 16.1932 112.659 16.2825C112.682 16.3392 112.706 16.3959 112.729 16.4526C112.739 16.4755 112.749 16.4984 112.759 16.522C112.79 16.6049 112.809 16.6842 112.826 16.7709C112.832 16.803 112.839 16.835 112.845 16.8681C112.852 16.9013 112.858 16.9345 112.865 16.9687C112.871 17.0014 112.878 17.0341 112.885 17.0679C112.937 17.3366 112.971 17.5982 112.973 17.8722C112.973 17.8953 112.973 17.9185 112.973 17.9424C112.974 18.0167 112.974 18.0909 112.974 18.1652C112.974 18.1907 112.974 18.2161 112.974 18.2423C112.974 18.6304 112.954 19.003 112.878 19.3843C112.869 19.4343 112.86 19.4844 112.851 19.5344C112.798 19.8163 112.725 20.0777 112.61 20.3415C112.601 20.3653 112.591 20.389 112.581 20.4135C112.454 20.7153 112.286 20.9966 112.106 21.2689C112.086 21.2689 112.067 21.2689 112.046 21.2689C112.039 21.2849 112.032 21.301 112.024 21.3175C111.936 21.4854 111.837 21.6031 111.693 21.7233C111.628 21.7788 111.628 21.7788 111.559 21.8501C111.483 21.9264 111.404 21.9951 111.321 22.0635C111.294 22.0857 111.267 22.108 111.239 22.1309C110.512 22.6993 109.601 23.0217 108.702 23.1761C108.638 23.1871 108.574 23.1985 108.51 23.2099C108.216 23.262 107.92 23.3057 107.623 23.333C107.595 23.3355 107.568 23.338 107.54 23.3406C107.157 23.3707 106.774 23.3682 106.39 23.369C106.31 23.3693 106.231 23.3696 106.151 23.3699C105.956 23.3707 105.762 23.3712 105.567 23.3718C105.337 23.3724 105.106 23.3732 104.875 23.374C104.403 23.3756 103.931 23.377 103.459 23.3784C103.099 23.3794 102.738 23.3805 102.377 23.3816C100.316 23.3881 98.2548 23.3937 96.1934 23.3947C96.143 23.3947 96.143 23.3947 96.0915 23.3947C94.779 23.3953 93.4665 23.3938 92.1541 23.3928C92.1541 19.9081 92.1541 16.4233 92.1541 12.833C94.9931 12.7985 94.9931 12.7985 95.9776 12.7979C96.1317 12.7978 96.2858 12.7975 96.4398 12.7973C96.7034 12.7968 96.967 12.7965 97.2305 12.7962C97.6478 12.7957 98.065 12.795 98.4822 12.7942C98.6265 12.794 98.7708 12.7937 98.9151 12.7935C98.9691 12.7934 98.9691 12.7934 99.0242 12.7933C99.4281 12.7926 99.832 12.7919 100.236 12.7913C100.291 12.7912 100.291 12.7912 100.347 12.7911C100.947 12.7902 101.547 12.7894 102.147 12.7887C102.769 12.7879 103.39 12.7868 104.011 12.7856C104.392 12.7849 104.773 12.7843 105.154 12.784C105.414 12.7838 105.673 12.7834 105.933 12.7828C106.082 12.7824 106.231 12.7822 106.381 12.7822C106.518 12.7822 106.655 12.7819 106.791 12.7815C106.841 12.7813 106.89 12.7813 106.939 12.7814C107.762 12.7827 108.508 12.5891 109.126 12.0116C109.585 11.5364 109.781 10.9401 109.82 10.2902C109.821 10.2614 109.823 10.2326 109.825 10.203C109.827 10.1217 109.824 10.0424 109.82 9.96118C109.819 9.93922 109.817 9.91726 109.816 9.89464C109.796 9.51206 109.737 9.1754 109.582 8.82443C109.56 8.77336 109.56 8.77336 109.537 8.72125C109.328 8.29476 109.026 7.99756 108.632 7.74751C108.604 7.72449 108.604 7.72449 108.575 7.701C108.488 7.63996 108.392 7.60606 108.292 7.56989C108.271 7.56213 108.25 7.55437 108.228 7.54638C108.185 7.53074 108.142 7.51523 108.099 7.49985C108.046 7.48114 107.994 7.46172 107.942 7.44217C107.757 7.37765 107.577 7.34499 107.383 7.32588C107.357 7.32333 107.331 7.32077 107.304 7.31814C107.008 7.29122 106.713 7.29066 106.416 7.2916C106.353 7.29157 106.29 7.29152 106.228 7.29144C106.057 7.29131 105.887 7.29155 105.717 7.29185C105.533 7.29211 105.348 7.29202 105.164 7.29197C104.845 7.29194 104.527 7.29213 104.208 7.29247C103.874 7.29282 103.54 7.29305 103.206 7.29312C103.175 7.29312 103.175 7.29312 103.143 7.29313C103.037 7.29315 102.931 7.29317 102.826 7.29318C102.078 7.29331 101.33 7.29371 100.582 7.29428C99.8563 7.29483 99.1303 7.29525 98.4043 7.29551C98.3818 7.29551 98.3594 7.29552 98.3363 7.29553C98.1113 7.29561 97.8862 7.29568 97.6611 7.29576C97.2026 7.29591 96.7442 7.29608 96.2857 7.29626C96.2541 7.29627 96.2541 7.29627 96.2219 7.29628C94.8165 7.29683 93.411 7.29778 92.0056 7.29879C92.0252 7.15571 92.0475 7.08886 92.1485 6.98469C92.2417 6.88482 92.3182 6.7864 92.3916 6.67059C92.4221 6.62666 92.453 6.58304 92.4844 6.53971C92.4991 6.51912 92.5139 6.49853 92.5291 6.47731C92.5425 6.46212 92.5559 6.44692 92.5697 6.43127C92.5893 6.43127 92.6089 6.43127 92.6291 6.43127C92.6317 6.41419 92.6342 6.3971 92.6369 6.3795C92.6649 6.29258 92.7094 6.24845 92.772 6.18261C92.8448 6.10298 92.909 6.02969 92.9594 5.93394C93.0025 5.85582 93.0359 5.80548 93.0934 5.74102C93.2103 5.60595 93.3154 5.46262 93.4215 5.31882C93.4411 5.29224 93.4608 5.26565 93.4811 5.23825C93.5176 5.18902 93.554 5.13976 93.5904 5.09047C93.6142 5.0582 93.6142 5.0582 93.6386 5.02529C93.6619 4.99149 93.6619 4.99149 93.6856 4.95701C93.7064 4.93158 93.7064 4.93158 93.7276 4.90563C93.7472 4.90563 93.7668 4.90563 93.787 4.90563C93.795 4.87786 93.8029 4.8501 93.8111 4.82149C93.8805 4.63385 93.9638 4.62321 94.1524 4.6251ZM94.9152 15.1065C94.9152 16.9723 94.9152 18.838 94.9152 20.7603C96.9944 20.7629 96.9944 20.7629 99.0736 20.7647C99.3546 20.7649 99.6356 20.7651 99.9165 20.7653C99.9693 20.7653 99.9693 20.7653 100.023 20.7653C100.59 20.7657 101.157 20.7664 101.724 20.7673C102.306 20.7681 102.889 20.7686 103.472 20.7688C103.831 20.7689 104.19 20.7693 104.549 20.77C104.795 20.7705 105.042 20.7706 105.289 20.7705C105.431 20.7705 105.573 20.7705 105.715 20.771C106.216 20.7727 106.715 20.7716 107.215 20.7211C107.248 20.7177 107.282 20.7144 107.317 20.7109C107.61 20.6767 107.881 20.5956 108.154 20.4859C108.208 20.4645 108.262 20.445 108.317 20.4259C108.88 20.2182 109.327 19.7859 109.612 19.2646C109.628 19.2371 109.645 19.2095 109.662 19.1812C110.021 18.5411 109.976 17.6726 109.812 16.9803C109.753 16.7712 109.657 16.5818 109.552 16.3928C109.539 16.3677 109.525 16.3427 109.511 16.3169C109.368 16.0695 109.157 15.8441 108.929 15.6749C108.909 15.6749 108.89 15.6749 108.87 15.6749C108.87 15.6551 108.87 15.6354 108.87 15.615C108.204 15.2381 107.577 15.0913 106.815 15.0957C106.763 15.0957 106.712 15.0956 106.66 15.0955C106.519 15.0953 106.379 15.0956 106.238 15.0961C106.086 15.0965 105.934 15.0963 105.781 15.0963C105.518 15.0962 105.255 15.0965 104.992 15.097C104.611 15.0977 104.231 15.098 103.85 15.0981C103.233 15.0983 102.615 15.0989 101.998 15.0997C101.398 15.1005 100.799 15.1012 100.199 15.1016C100.162 15.1016 100.124 15.1016 100.086 15.1016C99.7935 15.1018 99.5011 15.102 99.2086 15.1022C97.7775 15.103 96.3464 15.1048 94.9152 15.1065Z" fill="#E3F6F2"/>
<path id="Vector_3" d="M52.3649 4.63286C52.5036 4.63299 52.6423 4.63294 52.7811 4.63292C53.0206 4.6329 53.2602 4.633 53.4997 4.63317C53.8461 4.63341 54.1925 4.63349 54.5388 4.63352C55.1009 4.63359 55.6631 4.63379 56.2252 4.63407C56.7708 4.63435 57.3165 4.63456 57.8621 4.63469C57.8958 4.63469 57.9295 4.6347 57.9642 4.63471C58.1333 4.63475 58.3024 4.63479 58.4716 4.63482C59.8717 4.63513 61.2717 4.63568 62.6718 4.63633C62.6718 5.50505 62.6718 6.37376 62.6718 7.26881C62.3684 7.26956 62.065 7.27031 61.7524 7.27108C60.7755 7.27351 59.7985 7.27607 58.8216 7.27871C58.6692 7.27912 58.5168 7.27953 58.3644 7.27994C58.3189 7.28007 58.3189 7.28007 58.2725 7.28019C57.7849 7.2815 57.2973 7.28272 56.8096 7.2839C56.3073 7.28513 55.8049 7.28645 55.3025 7.28786C55.0212 7.28865 54.7399 7.28939 54.4585 7.29002C52.9996 7.29254 52.9996 7.29254 51.5408 7.3124C51.5115 7.31297 51.4823 7.31354 51.4521 7.31413C51.1744 7.31976 50.897 7.32804 50.6196 7.34312C50.5981 7.34428 50.5765 7.34544 50.5543 7.34664C50.3807 7.35683 50.2114 7.37873 50.0406 7.4109C50.0121 7.41609 49.9835 7.42127 49.9541 7.42662C49.6984 7.47471 49.4486 7.53969 49.1983 7.61015C49.1348 7.62734 49.0713 7.6428 49.0073 7.65758C48.7707 7.71238 48.5561 7.78478 48.3346 7.88603C48.2588 7.9197 48.1863 7.94641 48.1071 7.96993C47.9537 8.01815 47.8183 8.09915 47.6784 8.17746C47.5893 8.22607 47.5893 8.22607 47.4817 8.27094C47.359 8.32588 47.2514 8.39669 47.1394 8.47088C47.0782 8.51021 47.0157 8.5473 46.9524 8.58294C46.7929 8.67387 46.6525 8.79148 46.5092 8.90581C46.4661 8.94006 46.4227 8.97385 46.3792 9.00759C45.9336 9.36145 45.5649 9.78459 45.2357 10.248C45.2044 10.2921 45.1722 10.3357 45.1388 10.3782C45.085 10.4545 45.0472 10.5352 45.0063 10.6192C44.9727 10.6774 44.9387 10.7354 44.9043 10.7931C44.8325 10.9165 44.766 11.038 44.7117 11.1701C44.6875 11.2285 44.6616 11.2862 44.6347 11.3435C44.5025 11.6341 44.42 11.9346 44.3439 12.244C44.3388 12.2645 44.3337 12.2849 44.3285 12.306C44.2398 12.6673 44.1692 13.0228 44.1564 13.3957C44.1553 13.4243 44.1542 13.453 44.1531 13.4825C44.1455 13.6935 44.1397 13.9043 44.1442 14.1154C44.145 14.1616 44.1454 14.2077 44.1455 14.2539C44.1484 15.067 44.3096 15.9333 44.6688 16.6675C44.7068 16.7462 44.7384 16.8249 44.7688 16.9069C44.8202 17.0398 44.8873 17.1571 44.9624 17.2779C45.0014 17.342 45.0355 17.4065 45.0694 17.4734C45.1916 17.6974 45.3559 17.8965 45.511 18.0979C45.5338 18.1277 45.5566 18.1575 45.58 18.1882C45.974 18.6893 46.4759 19.1513 47.0252 19.4739C47.0877 19.5157 47.1502 19.5574 47.2126 19.5992C47.5554 19.8236 47.9208 19.9924 48.302 20.139C48.3578 20.1606 48.4133 20.1826 48.4689 20.2047C48.758 20.3184 49.0491 20.4067 49.3503 20.4817C49.3733 20.4875 49.3962 20.4933 49.4199 20.4992C49.8161 20.5984 50.2079 20.6631 50.6157 20.6934C50.6734 20.6979 50.731 20.7027 50.7886 20.7081C51.0038 20.7281 51.2168 20.7349 51.4328 20.7351C51.4682 20.7352 51.5037 20.7354 51.5402 20.7355C51.6376 20.7359 51.735 20.7362 51.8323 20.7363C51.9377 20.7366 52.0431 20.737 52.1485 20.7374C52.3308 20.738 52.513 20.7386 52.6953 20.739C52.9588 20.7397 53.2223 20.7406 53.4858 20.7415C53.9134 20.7429 54.341 20.7442 54.7686 20.7454C55.1837 20.7466 55.5989 20.7478 56.0141 20.7491C56.04 20.7492 56.0659 20.7493 56.0925 20.7494C56.295 20.75 56.4975 20.7507 56.6999 20.7513C57.691 20.7545 58.6821 20.7574 59.6732 20.7603C59.6732 18.8353 59.6732 16.9103 59.6732 14.9269C56.1656 14.9269 52.658 14.9269 49.0441 14.9269C49.0866 14.8413 49.1198 14.7809 49.1766 14.7082C49.1906 14.6902 49.2046 14.6722 49.219 14.6537C49.2336 14.6353 49.2481 14.6169 49.2631 14.5979C49.2774 14.5794 49.2917 14.561 49.3065 14.542C49.367 14.4648 49.4268 14.3918 49.4962 14.3223C49.5475 14.2702 49.5762 14.2257 49.6083 14.1604C49.6683 14.0583 49.6854 14.0437 49.7864 13.9996C49.8198 13.9447 49.8198 13.9447 49.8458 13.8799C49.896 13.7841 49.9545 13.7059 50.0258 13.6256C50.1328 13.5051 50.2304 13.3783 50.3275 13.2497C50.4232 13.1231 50.5213 12.9986 50.6211 12.8752C50.6829 12.8014 50.6829 12.8014 50.7256 12.6954C50.7849 12.6129 50.8166 12.5955 50.9169 12.5743C51.0428 12.567 51.1672 12.5667 51.2931 12.5684C51.3421 12.5683 51.3911 12.5681 51.4401 12.5679C51.5748 12.5674 51.7096 12.5682 51.8443 12.5693C51.9895 12.5702 52.1348 12.5699 52.28 12.5697C52.5317 12.5696 52.7834 12.5703 53.0351 12.5715C53.399 12.5732 53.7629 12.5737 54.1268 12.574C54.7172 12.5744 55.3076 12.5758 55.898 12.5778C56.4716 12.5797 57.0451 12.5812 57.6187 12.5821C57.6544 12.5821 57.6901 12.5822 57.7269 12.5823C58.0062 12.5827 58.2854 12.5831 58.5646 12.5835C59.9337 12.5855 61.3028 12.5897 62.6718 12.5936C62.6718 16.1474 62.6718 19.7013 62.6718 23.3628C59.7424 23.3664 59.7424 23.3664 58.5149 23.3672C58.234 23.3674 57.9531 23.3676 57.6722 23.3678C57.637 23.3678 57.6018 23.3678 57.5655 23.3678C56.9989 23.3682 56.4322 23.3689 55.8656 23.3697C55.2831 23.3706 54.7006 23.3711 54.1181 23.3713C53.7593 23.3714 53.4005 23.3718 53.0418 23.3725C52.795 23.373 52.5482 23.3731 52.3014 23.373C52.1595 23.373 52.0176 23.373 51.8757 23.3735C51.0198 23.3763 50.1878 23.3251 49.3429 23.1759C49.3173 23.1714 49.2916 23.167 49.2652 23.1624C48.877 23.0948 48.504 23.0056 48.1309 22.8763C48.0307 22.8431 47.9293 22.8181 47.8269 22.7926C47.6001 22.7334 47.3892 22.6461 47.1737 22.5551C47.1236 22.5357 47.0735 22.5164 47.0234 22.4972C46.8647 22.4335 46.7137 22.3549 46.5619 22.2764C46.495 22.243 46.4272 22.2115 46.3585 22.1821C46.2457 22.133 46.1386 22.0774 46.0306 22.0185C46.0121 22.0085 45.9935 21.9985 45.9744 21.9882C45.8035 21.8957 45.6344 21.7999 45.4684 21.6988C45.4482 21.6867 45.428 21.6746 45.4072 21.6621C45.3925 21.6508 45.3778 21.6395 45.3626 21.6278C45.3626 21.608 45.3626 21.5883 45.3626 21.568C45.341 21.565 45.3194 21.5621 45.2972 21.5591C45.2024 21.5351 45.1508 21.5002 45.0731 21.4408C45.0306 21.4085 45.0306 21.4085 44.9872 21.3755C44.9636 21.3573 44.9636 21.3573 44.9396 21.3387C44.8822 21.2946 44.8244 21.2513 44.7666 21.2079C44.5352 21.0334 44.3138 20.8543 44.1041 20.6537C44.0465 20.5995 43.989 20.5499 43.9276 20.5004C43.9015 20.4775 43.8753 20.4547 43.8484 20.4312C43.8484 20.4115 43.8484 20.3917 43.8484 20.3714C43.822 20.3595 43.822 20.3595 43.7951 20.3474C43.727 20.3101 43.6851 20.2724 43.6321 20.2157C43.6141 20.1965 43.596 20.1772 43.5774 20.1574C43.5585 20.1367 43.5395 20.116 43.52 20.0947C43.5003 20.0733 43.4806 20.052 43.4603 20.03C43.2808 19.8334 43.1178 19.6267 42.9577 19.4141C42.9188 19.3648 42.8798 19.3156 42.8408 19.2664C42.7728 19.1783 42.7158 19.0893 42.6631 18.9909C42.6243 18.9236 42.5799 18.862 42.5346 18.799C42.302 18.4677 42.1232 18.1034 41.9482 17.7389C41.9338 17.7089 41.9338 17.7089 41.9191 17.6784C41.8267 17.4858 41.7397 17.2953 41.6743 17.0915C41.651 17.0199 41.626 16.9492 41.6003 16.8785C41.5085 16.6236 41.4249 16.3745 41.3745 16.1074C41.3561 16.0125 41.3341 15.9196 41.3107 15.8259C40.9812 14.4903 41.0053 12.9034 41.3797 11.5841C41.4053 11.4934 41.4242 11.4033 41.4408 11.3105C41.4718 11.1491 41.5262 11.0016 41.5864 10.8492C41.6079 10.7937 41.6295 10.7382 41.651 10.6827C41.6614 10.6562 41.6717 10.6298 41.6824 10.6025C41.7178 10.5113 41.7513 10.4194 41.785 10.3276C41.9325 9.94372 42.1141 9.58951 42.3342 9.24317C42.3562 9.20643 42.3781 9.16962 42.3999 9.13274C42.4106 9.11462 42.4214 9.09651 42.4324 9.07785C42.4625 9.02717 42.4924 8.97642 42.5223 8.92567C42.5386 8.90211 42.5549 8.87855 42.5717 8.85428C42.5913 8.85428 42.6109 8.85428 42.6311 8.85428C42.6385 8.81818 42.6385 8.81818 42.646 8.78136C42.6997 8.65281 42.7747 8.57287 42.8694 8.47275C42.9291 8.4043 42.9709 8.33402 43.0171 8.25599C43.0639 8.20399 43.0639 8.20399 43.1136 8.15689C43.2548 8.01885 43.3826 7.8707 43.5051 7.71566C43.5805 7.6286 43.659 7.55666 43.7461 7.48206C43.8031 7.43212 43.8585 7.38143 43.9136 7.32945C43.9304 7.31363 43.9471 7.2978 43.9644 7.2815C43.9977 7.25008 44.0308 7.21856 44.0638 7.18694C44.187 7.07077 44.3095 6.96439 44.4719 6.90983C44.4866 6.86541 44.4866 6.86541 44.5016 6.82009C44.5806 6.76044 44.6682 6.70043 44.7688 6.70043C44.7835 6.65601 44.7835 6.65601 44.7985 6.61069C44.8733 6.55799 44.8733 6.55799 44.9711 6.50038C45.0066 6.47918 45.0421 6.45791 45.0775 6.43658C45.1045 6.42037 45.1045 6.42037 45.132 6.40383C45.2102 6.35541 45.2853 6.30252 45.3607 6.24984C45.5509 6.12067 45.7499 6.02239 45.9564 5.92265C45.9935 5.90385 46.0306 5.885 46.0677 5.8661C46.4068 5.69487 46.7539 5.52298 47.1173 5.41177C47.2039 5.38402 47.2881 5.35169 47.3727 5.31832C47.5857 5.23466 47.7979 5.16948 48.0208 5.11706C48.121 5.09344 48.2202 5.06721 48.3195 5.03994C48.598 4.96362 48.8701 4.89204 49.1577 4.86045C49.2912 4.84572 49.4234 4.82361 49.5559 4.80214C50.4911 4.65116 51.42 4.63174 52.3649 4.63286Z" fill="#E3F6F2"/>
<path id="Vector_4" d="M86.3405 4.62257C86.3872 4.62232 86.3872 4.62232 86.4349 4.62207C86.4689 4.6225 86.5029 4.62293 86.5379 4.62337C86.5739 4.62336 86.6098 4.62334 86.6468 4.62332C86.7452 4.62339 86.8436 4.62399 86.9419 4.62483C87.0448 4.62557 87.1477 4.62564 87.2505 4.62579C87.4453 4.62616 87.64 4.62714 87.8347 4.62834C88.0565 4.62968 88.2782 4.63034 88.4999 4.63094C88.956 4.63219 89.412 4.63429 89.868 4.63696C89.868 4.7267 89.868 4.7267 89.8223 4.77286C89.7917 4.79721 89.7917 4.79721 89.7604 4.82205C89.6528 4.91249 89.5737 5.00623 89.4925 5.12062C89.4366 5.19692 89.372 5.25959 89.3039 5.32499C89.1627 5.4644 89.0249 5.60407 88.8982 5.75712C88.8393 5.82621 88.774 5.88881 88.7101 5.9532C88.6905 5.97849 88.6709 6.00379 88.6508 6.02985C88.5914 6.10277 88.5914 6.10277 88.519 6.16073C88.4306 6.23242 88.3662 6.31345 88.2945 6.40192C88.245 6.45177 88.1955 6.50163 88.146 6.55149C88.1185 6.58758 88.1185 6.58758 88.0904 6.6244C88.0382 6.6878 87.9913 6.73343 87.9289 6.7852C87.8094 6.88555 87.7114 7.00004 87.6116 7.11986C87.5807 7.15668 87.5498 7.19345 87.5188 7.23017C87.5059 7.24571 87.493 7.26125 87.4796 7.27727C87.4044 7.362 87.3233 7.44074 87.243 7.52059C87.0804 7.68256 86.9199 7.84388 86.7716 8.01952C86.6915 8.11053 86.6047 8.19449 86.5188 8.27987C86.4412 8.35913 86.3696 8.44244 86.2977 8.5269C86.2243 8.61007 86.1455 8.68712 86.0668 8.76516C85.992 8.84172 85.9232 8.92266 85.8538 9.00413C85.7782 9.0895 85.6972 9.16878 85.6162 9.24882C85.5576 9.30724 85.5576 9.30724 85.4925 9.39337C85.4766 9.41311 85.4606 9.43286 85.4442 9.4532C85.4246 9.4532 85.405 9.4532 85.3849 9.4532C85.3787 9.46924 85.3726 9.48528 85.3663 9.50181C85.3097 9.60037 85.235 9.68036 85.1473 9.75234C85.1277 9.75234 85.1081 9.75234 85.088 9.75234C85.0853 9.77012 85.0826 9.7879 85.0798 9.80621C85.0528 9.8888 85.0182 9.91414 84.9506 9.96735C84.8355 10.0639 84.7494 10.1686 84.6598 10.2889C84.5851 10.3872 84.5004 10.4696 84.4067 10.5494C84.2833 10.6547 84.1971 10.7517 84.1082 10.8891C84.065 10.9252 84.065 10.9252 84.021 10.962C83.9469 11.0245 83.9077 11.0656 83.8558 11.1434C83.7857 11.2483 83.701 11.3178 83.6035 11.3976C83.5533 11.4569 83.5038 11.5167 83.455 11.5771C83.4055 11.627 83.356 11.6768 83.3066 11.7267C83.2781 11.7637 83.2781 11.7637 83.249 11.8015C83.191 11.8724 83.1291 11.9254 83.0583 11.9827C82.945 12.0832 82.8513 12.2049 82.7553 12.3218C82.6858 12.4057 82.6204 12.4773 82.5365 12.5475C82.4037 12.6594 82.2969 12.7911 82.187 12.9254C82.1634 12.954 82.1634 12.954 82.1394 12.9831C82.1254 13.0004 82.1114 13.0177 82.097 13.0355C82.0596 13.0729 82.0596 13.0729 82.0002 13.0729C81.9939 13.0891 81.9876 13.1052 81.9811 13.1219C81.9263 13.218 81.8506 13.2884 81.772 13.3645C81.6508 13.484 81.5354 13.6051 81.4254 13.7352C81.3533 13.8175 81.2752 13.8933 81.1976 13.9703C81.1229 14.0468 81.0542 14.1276 80.9848 14.209C80.9085 14.2953 80.8267 14.3756 80.7443 14.4561C80.6882 14.5115 80.6882 14.5115 80.6345 14.5985C80.6149 14.5985 80.5953 14.5985 80.5751 14.5985C80.569 14.6145 80.5628 14.6306 80.5565 14.6471C80.4999 14.7457 80.4252 14.8257 80.3376 14.8976C80.318 14.8976 80.2984 14.8976 80.2782 14.8976C80.2727 14.9186 80.2672 14.9396 80.2615 14.9612C80.2112 15.0625 80.1537 15.1073 80.0677 15.1775C79.9913 15.2438 79.9286 15.3185 79.8633 15.3957C79.7886 15.483 79.7116 15.568 79.6343 15.653C79.6205 15.6682 79.6067 15.6833 79.5926 15.699C79.5334 15.7639 79.4737 15.8278 79.4118 15.8901C79.3526 15.9482 79.3526 15.9482 79.2854 16.0325C79.1928 16.1441 79.0967 16.2453 78.9832 16.3355C78.8842 16.4583 78.8916 16.5509 78.8935 16.7047C78.8932 16.7332 78.893 16.7617 78.8927 16.791C78.8921 16.8865 78.8925 16.9819 78.8929 17.0773C78.8926 17.1457 78.8923 17.2141 78.8919 17.2825C78.8911 17.4683 78.8912 17.6541 78.8914 17.8399C78.8915 18.034 78.8908 18.2281 78.8901 18.4222C78.8891 18.7481 78.8886 19.0739 78.8886 19.3997C78.8885 19.7353 78.8881 20.0709 78.8873 20.4065C78.8872 20.4272 78.8872 20.4479 78.8871 20.4692C78.8869 20.573 78.8866 20.6768 78.8864 20.7806C78.8842 21.6416 78.8833 22.5025 78.8828 23.3635C77.9324 23.3635 76.982 23.3635 76.0028 23.3635C75.9687 22.1597 75.9687 22.1597 75.9698 21.6566C75.9698 21.5984 75.9698 21.5402 75.9698 21.482C75.9698 21.3281 75.9699 21.1742 75.9701 21.0203C75.9703 20.8579 75.9703 20.6955 75.9704 20.5332C75.9705 20.2276 75.9707 19.9219 75.971 19.6163C75.9713 19.2676 75.9715 18.9189 75.9716 18.5702C75.972 17.8545 75.9725 17.1389 75.9731 16.4233C75.9437 16.4134 75.9144 16.4035 75.8841 16.3934C75.8448 16.3455 75.8448 16.3455 75.8043 16.2849C75.7223 16.17 75.6315 16.0829 75.5243 15.9921C75.3912 15.8791 75.2826 15.7499 75.1715 15.6156C75.1482 15.5921 75.125 15.5687 75.101 15.5445C75.0384 15.4815 74.9818 15.418 74.9247 15.3501C74.8359 15.2465 74.7401 15.1593 74.6366 15.0709C74.5556 14.9972 74.4861 14.9155 74.4157 14.8316C74.3673 14.7734 74.3673 14.7734 74.2975 14.7069C74.2511 14.6583 74.2511 14.6583 74.2511 14.5985C74.2272 14.5892 74.2272 14.5892 74.2029 14.5798C74.1051 14.5227 74.0257 14.4475 73.9542 14.3592C73.9542 14.3394 73.9542 14.3197 73.9542 14.2994C73.9366 14.2917 73.919 14.2841 73.9009 14.2762C73.8287 14.2357 73.7912 14.1951 73.739 14.1311C73.6292 14.0004 73.5113 13.8807 73.3901 13.7609C73.2533 13.6257 73.1226 13.4884 72.9975 13.3421C72.9055 13.2377 72.8062 13.1407 72.7072 13.0429C72.5702 12.9075 72.4392 12.7699 72.3139 12.6233C72.2262 12.5237 72.1317 12.4312 72.0374 12.3381C71.9121 12.2144 71.7924 12.0895 71.6795 11.9542C71.6199 11.8845 71.5553 11.8208 71.49 11.7566C71.4608 11.7274 71.4318 11.6981 71.4027 11.6687C71.3878 11.6537 71.3729 11.6387 71.3575 11.6232C71.2209 11.4855 71.2209 11.4855 71.1765 11.4407C71.1364 11.4003 71.0961 11.3602 71.0557 11.3201C70.9901 11.253 70.9279 11.1844 70.8665 11.1135C70.7803 11.0152 70.6924 10.9209 70.5993 10.8293C70.3378 10.5707 70.3378 10.5707 70.2504 10.4628C70.1446 10.3325 70.0259 10.2229 69.8997 10.1132C69.7953 10.0209 69.7252 9.92955 69.6492 9.81217C69.598 9.76441 69.5448 9.72019 69.4908 9.6758C69.4253 9.61871 69.3761 9.55142 69.3226 9.48311C69.2981 9.46398 69.2736 9.44486 69.2484 9.42515C69.1741 9.36345 69.1741 9.36345 69.1185 9.27745C69.053 9.18048 68.986 9.12074 68.8968 9.04748C68.8315 8.99044 68.7825 8.923 68.7288 8.85491C68.6858 8.81925 68.6427 8.78362 68.5992 8.74845C68.4867 8.64863 68.3933 8.52799 68.2984 8.41145C68.2018 8.29406 68.0979 8.1946 67.9829 8.09547C67.8724 7.99984 67.7798 7.90079 67.6952 7.78172C67.6144 7.67029 67.5234 7.5848 67.4188 7.49625C67.2787 7.37737 67.145 7.23918 67.0365 7.08995C67.0365 7.07021 67.0365 7.05046 67.0365 7.03012C67.0126 7.02087 67.0126 7.02087 66.9882 7.01142C66.8904 6.95436 66.811 6.87911 66.7396 6.7908C66.7396 6.77106 66.7396 6.75132 66.7396 6.73098C66.7221 6.7233 66.7047 6.71563 66.6868 6.70772C66.6147 6.66776 66.5712 6.62549 66.5157 6.56458C66.4962 6.54333 66.4766 6.52209 66.4565 6.5002C66.436 6.47764 66.4155 6.45507 66.3944 6.43183C66.352 6.38563 66.3096 6.33948 66.2671 6.29336C66.2464 6.27095 66.2258 6.24854 66.2045 6.22545C66.1052 6.11926 66.0016 6.01783 65.8971 5.91686C65.8489 5.86345 65.8489 5.86345 65.8489 5.80362C65.8313 5.79599 65.8137 5.78835 65.7955 5.78049C65.7234 5.74002 65.6858 5.69942 65.6336 5.63536C65.5238 5.50471 65.406 5.38496 65.2848 5.26516C64.8706 4.85588 64.8706 4.85588 64.78 4.66687C65.2665 4.65987 65.753 4.6546 66.2395 4.65137C66.4655 4.64983 66.6914 4.64774 66.9173 4.64431C67.1143 4.64131 67.3113 4.63939 67.5083 4.63873C67.6125 4.63834 67.7167 4.63743 67.821 4.63524C67.9376 4.63282 68.0542 4.63277 68.1708 4.63291C68.205 4.63184 68.2392 4.63076 68.2744 4.62965C68.4746 4.63222 68.5726 4.66793 68.7167 4.81144C68.7613 4.86212 68.805 4.9136 68.8476 4.96602C68.8803 5.00405 68.9131 5.04207 68.9459 5.08007C68.9597 5.09669 68.9735 5.11331 68.9877 5.13043C69.0459 5.19938 69.1099 5.26172 69.1741 5.32499C69.436 5.58396 69.436 5.58396 69.523 5.69331C69.5858 5.77445 69.5858 5.77445 69.6603 5.8298C69.7696 5.91894 69.8551 6.02511 69.9461 6.13268C70.068 6.27515 70.1848 6.40529 70.3321 6.52157C70.3821 6.58088 70.4316 6.64073 70.4805 6.70106C70.5056 6.72636 70.5307 6.75165 70.5566 6.77772C70.629 6.85063 70.629 6.85063 70.6865 6.92542C70.7474 7.00457 70.7474 7.00457 70.8349 7.07312C70.9279 7.15151 70.998 7.23465 71.0743 7.32927C71.1449 7.4022 71.2171 7.47326 71.2896 7.54428C71.3871 7.6448 71.4788 7.74991 71.5707 7.85569C71.6382 7.92734 71.7103 7.9857 71.7869 8.04721C71.7997 8.07004 71.8126 8.09287 71.8258 8.11639C71.8882 8.21648 71.9655 8.27978 72.0545 8.35571C72.1815 8.4645 72.2892 8.58683 72.3964 8.71468C72.4339 8.75808 72.4739 8.79927 72.5143 8.83995C72.5716 8.8977 72.6224 8.95487 72.6738 9.01757C72.7344 9.08993 72.7962 9.15189 72.8687 9.21201C72.9423 9.27351 73.0054 9.33667 73.0672 9.41019C73.1643 9.52544 73.2686 9.6313 73.3753 9.73739C73.4771 9.83879 73.5778 9.93937 73.6703 10.0496C73.7685 10.1664 73.876 10.2729 73.9839 10.3805C74.1087 10.5049 74.2293 10.6297 74.3423 10.7651C74.4426 10.8774 74.5511 10.9819 74.6589 11.0868C74.7022 11.1295 74.744 11.1737 74.7855 11.2182C74.7855 11.2379 74.7855 11.2576 74.7855 11.278C74.8051 11.278 74.8247 11.278 74.8449 11.278C74.8816 11.3156 74.8816 11.3156 74.9266 11.3715C75.0318 11.4966 75.1448 11.6116 75.2606 11.7267C75.3908 11.8565 75.517 11.9872 75.6357 12.1279C75.695 12.1974 75.7595 12.2609 75.8247 12.325C75.9559 12.4544 76.0821 12.585 76.2002 12.7266C76.2594 12.7961 76.3238 12.8593 76.3888 12.9233C76.6506 13.1822 76.6506 13.1822 76.7377 13.2916C76.8008 13.373 76.8008 13.373 76.8768 13.43C76.9587 13.4963 77.0203 13.5683 77.0873 13.6493C77.1475 13.7205 77.213 13.7854 77.2795 13.8506C77.3046 13.8784 77.3297 13.9062 77.3556 13.9348C77.4265 14.0135 77.4265 14.0135 77.5467 14.0002C77.6022 13.95 77.6022 13.95 77.6506 13.8843C77.7203 13.7953 77.7727 13.7499 77.8733 13.7011C77.8813 13.6788 77.8892 13.6566 77.8974 13.6338C77.9342 13.548 77.9571 13.5258 78.0273 13.4692C78.1372 13.3801 78.216 13.2786 78.3004 13.1654C78.36 13.0875 78.4261 13.021 78.4968 12.9532C78.6364 12.8159 78.7697 12.6757 78.8969 12.5267C78.949 12.4667 79.005 12.4113 79.0609 12.3549C79.0848 12.3253 79.1087 12.2957 79.1333 12.2652C79.2093 12.1754 79.2093 12.1754 79.2873 12.1137C79.3607 12.0603 79.3607 12.0603 79.3986 11.9847C79.4439 11.911 79.4782 11.8759 79.5434 11.8221C79.6642 11.7221 79.7622 11.6078 79.8625 11.4874C79.9673 11.3625 80.0742 11.2442 80.1891 11.1284C80.2176 11.0914 80.2176 11.0914 80.2466 11.0536C80.3048 10.9826 80.3669 10.9295 80.4379 10.872C80.4914 10.8245 80.5362 10.7736 80.5825 10.719C80.6878 10.5963 80.7967 10.4778 80.9072 10.36C80.9464 10.3181 80.9855 10.2762 81.0246 10.2342C81.0439 10.2136 81.0632 10.1929 81.083 10.1717C81.1658 10.0827 81.2482 9.99336 81.3303 9.90378C81.3448 9.88808 81.3592 9.87237 81.3741 9.85618C81.4812 9.73913 81.5853 9.61968 81.6878 9.49842C81.733 9.4532 81.733 9.4532 81.7924 9.4532C81.7991 9.43716 81.8058 9.42111 81.8128 9.40459C81.9192 9.2105 82.088 9.05434 82.2563 8.91474C82.3203 8.86047 82.3574 8.82342 82.401 8.75021C82.4452 8.67605 82.482 8.64137 82.5476 8.58755C82.6447 8.50773 82.703 8.42205 82.7721 8.31645C82.8009 8.29238 82.8297 8.26832 82.8594 8.24353C82.9478 8.16895 82.9993 8.1007 83.0628 8.00596C83.1141 7.93675 83.1798 7.89079 83.2472 7.83781C83.2949 7.78301 83.3407 7.72706 83.3858 7.67001C83.3988 7.65628 83.4119 7.64255 83.4253 7.62841C83.4449 7.62841 83.4645 7.62841 83.4847 7.62841C83.4914 7.61237 83.4982 7.59633 83.5051 7.5798C83.5735 7.45514 83.6579 7.35647 83.7686 7.26944C83.8456 7.21192 83.8456 7.21192 83.8967 7.1236C83.961 7.0283 84.0249 6.97148 84.1122 6.89948C84.2275 6.79773 84.3236 6.6763 84.4194 6.55616C84.4531 6.51384 84.4884 6.4727 84.5238 6.43183C84.5434 6.43183 84.563 6.43183 84.5832 6.43183C84.5902 6.41502 84.5971 6.3982 84.6042 6.38088C84.6521 6.2952 84.7115 6.23821 84.7818 6.17008C84.8918 6.06317 84.9934 5.95209 85.0933 5.83577C85.18 5.73612 85.2704 5.64003 85.3607 5.54374C85.4743 5.42251 85.5876 5.30121 85.6987 5.17764C85.7231 5.15052 85.7231 5.15052 85.7481 5.12286C85.7787 5.08875 85.8093 5.05452 85.8397 5.02016C85.8749 4.98105 85.9118 4.94345 85.949 4.90619C85.9686 4.90619 85.9882 4.90619 86.0083 4.90619C86.0157 4.88398 86.023 4.86177 86.0306 4.83888C86.0996 4.68607 86.1728 4.62188 86.3405 4.62257Z" fill="#E3F6F2"/>
</g>
<defs>
<clipPath id="clip0_266_75">
<rect width="113" height="28" fill="white"/>
</clipPath>
</defs>
</svg>
