<svg width="96" height="97" viewBox="0 0 96 97" fill="none" xmlns="http://www.w3.org/2000/svg">
<path d="M0 16C0 7.16345 7.16344 0 16 0H80C88.8366 0 96 7.16344 96 16V81C96 89.8366 88.8366 97 80 97H16C7.16345 97 0 89.8366 0 81V16Z" fill="url(#paint0_linear_417_18500)"/>
<path d="M66.1873 28.4941H29.8123C28.8476 28.4941 27.9224 28.8774 27.2402 29.5595C26.558 30.2417 26.1748 31.1669 26.1748 32.1316V44.8629C26.1748 56.8485 31.9766 64.1121 36.844 68.0951C42.0866 72.3828 47.3019 73.8378 47.5292 73.8992C47.8418 73.9843 48.1714 73.9843 48.484 73.8992C48.7114 73.8378 53.9198 72.3828 59.1692 68.0951C64.023 64.1121 69.8248 56.8485 69.8248 44.8629V32.1316C69.8248 31.1669 69.4416 30.2417 68.7594 29.5595C68.0772 28.8774 67.152 28.4941 66.1873 28.4941ZM66.1873 44.8629C66.1873 53.2905 63.0818 60.1313 56.9571 65.192C54.291 67.3875 51.2589 69.0959 47.9998 70.239C44.7834 69.1158 41.7887 67.4377 39.1516 65.2806C32.9542 60.2109 29.8123 53.3428 29.8123 44.8629V32.1316H66.1873V44.8629ZM37.6193 51.6059C37.278 51.2646 37.0863 50.8018 37.0863 50.3191C37.0863 49.8365 37.278 49.3736 37.6193 49.0324C37.9606 48.6911 38.4234 48.4994 38.9061 48.4994C39.3887 48.4994 39.8515 48.6911 40.1928 49.0324L44.3623 53.2041L55.8068 41.7574C55.9758 41.5884 56.1764 41.4544 56.3972 41.3629C56.6179 41.2714 56.8546 41.2244 57.0936 41.2244C57.3325 41.2244 57.5692 41.2714 57.7899 41.3629C58.0107 41.4544 58.2113 41.5884 58.3803 41.7574C58.5493 41.9264 58.6833 42.127 58.7748 42.3477C58.8662 42.5685 58.9133 42.8052 58.9133 43.0441C58.9133 43.2831 58.8662 43.5197 58.7748 43.7405C58.6833 43.9613 58.5493 44.1619 58.3803 44.3309L45.6491 57.0622C45.4802 57.2313 45.2796 57.3654 45.0588 57.4569C44.838 57.5485 44.6013 57.5956 44.3623 57.5956C44.1233 57.5956 43.8866 57.5485 43.6658 57.4569C43.445 57.3654 43.2445 57.2313 43.0755 57.0622L37.6193 51.6059Z" fill="#0F1413"/>
<defs>
<linearGradient id="paint0_linear_417_18500" x1="0" y1="0" x2="108.444" y2="16.8338" gradientUnits="userSpaceOnUse">
<stop stop-color="#6DDCFF"/>
<stop offset="1" stop-color="#6CF977"/>
</linearGradient>
</defs>
</svg>
