<svg width="96" height="97" viewBox="0 0 96 97" fill="none" xmlns="http://www.w3.org/2000/svg">
<path d="M0 16C0 7.16345 7.16344 0 16 0H80C88.8366 0 96 7.16344 96 16V81C96 89.8366 88.8366 97 80 97H16C7.16345 97 0 89.8366 0 81V16Z" fill="url(#paint0_linear_417_18510)"/>
<path d="M68.0063 26.6758H38.9063C38.4239 26.6758 37.9613 26.8674 37.6202 27.2085C37.2792 27.5496 37.0875 28.0122 37.0875 28.4945V37.5883H27.9938C27.5114 37.5883 27.0488 37.7799 26.7077 38.121C26.3667 38.4621 26.175 38.9247 26.175 39.407V68.507C26.175 68.9894 26.3667 69.452 26.7077 69.7931C27.0488 70.1342 27.5114 70.3258 27.9938 70.3258H57.0938C57.5762 70.3258 58.0388 70.1342 58.3798 69.7931C58.7209 69.452 58.9125 68.9894 58.9125 68.507V59.4133H68.0063C68.4887 59.4133 68.9513 59.2217 69.2923 58.8806C69.6334 58.5395 69.825 58.0769 69.825 57.5945V28.4945C69.825 28.0122 69.6334 27.5496 69.2923 27.2085C68.9513 26.8674 68.4887 26.6758 68.0063 26.6758ZM55.275 66.6883H29.8125V41.2258H55.275V66.6883ZM66.1875 55.7758H58.9125V39.407C58.9125 38.9247 58.7209 38.4621 58.3798 38.121C58.0388 37.7799 57.5762 37.5883 57.0938 37.5883H40.725V30.3133H66.1875V55.7758Z" fill="#0F1413"/>
<defs>
<linearGradient id="paint0_linear_417_18510" x1="0" y1="0" x2="108.444" y2="16.8338" gradientUnits="userSpaceOnUse">
<stop stop-color="#6DDCFF"/>
<stop offset="1" stop-color="#6CF977"/>
</linearGradient>
</defs>
</svg>
