<svg width="96" height="97" viewBox="0 0 96 97" fill="none" xmlns="http://www.w3.org/2000/svg">
<path d="M0 16C0 7.16345 7.16344 0 16 0H80C88.8366 0 96 7.16344 96 16V81C96 89.8366 88.8366 97 80 97H16C7.16345 97 0 89.8366 0 81V16Z" fill="url(#paint0_linear_417_18512)"/>
<g clip-path="url(#clip0_417_18512)">
<path d="M75.4334 45.4681L55.3839 32.7005C54.8383 32.3516 54.2091 32.1557 53.562 32.1331C52.9148 32.1104 52.2734 32.262 51.7048 32.5718C51.1362 32.8817 50.6612 33.3385 50.3294 33.8946C49.9976 34.4507 49.8212 35.0857 49.8186 35.7332V44.2132L31.7402 32.7005C31.1946 32.3516 30.5654 32.1557 29.9182 32.1331C29.271 32.1104 28.6297 32.262 28.0611 32.5718C27.4924 32.8817 27.0174 33.3385 26.6856 33.8946C26.3539 34.4507 26.1774 35.0857 26.1748 35.7332V61.2685C26.1782 61.9157 26.355 62.5503 26.687 63.1059C27.019 63.6616 27.4939 64.118 28.0622 64.4278C28.6306 64.7375 29.2716 64.8891 29.9185 64.8669C30.5654 64.8446 31.1944 64.6493 31.7402 64.3012L49.8186 52.7886V61.2685C49.8219 61.9157 49.9988 62.5503 50.3308 63.1059C50.6627 63.6616 51.1376 64.118 51.706 64.4278C52.2743 64.7375 52.9153 64.8891 53.5622 64.8669C54.2091 64.8446 54.8382 64.6493 55.3839 64.3012L75.4334 51.5336C75.9442 51.2094 76.3648 50.7614 76.6563 50.2313C76.9477 49.7011 77.1006 49.1059 77.1006 48.5009C77.1006 47.8958 76.9477 47.3006 76.6563 46.7705C76.3648 46.2403 75.9442 45.7923 75.4334 45.4681ZM29.8123 61.2185V35.7855L49.7776 48.5009L29.8123 61.2185ZM53.4561 61.2185V35.7855L73.4214 48.5009L53.4561 61.2185Z" fill="#0F1413"/>
</g>
<defs>
<linearGradient id="paint0_linear_417_18512" x1="0" y1="0" x2="108.444" y2="16.8338" gradientUnits="userSpaceOnUse">
<stop stop-color="#6DDCFF"/>
<stop offset="1" stop-color="#6CF977"/>
</linearGradient>
<clipPath id="clip0_417_18512">
<rect width="58.2" height="58.2" fill="white" transform="translate(18.8999 19.4004)"/>
</clipPath>
</defs>
</svg>
