<svg width="96" height="97" viewBox="0 0 96 97" fill="none" xmlns="http://www.w3.org/2000/svg">
<path d="M0 16C0 7.16345 7.16344 0 16 0H80C88.8366 0 96 7.16344 96 16V81C96 89.8366 88.8366 97 80 97H16C7.16345 97 0 89.8366 0 81V16Z" fill="url(#paint0_linear_417_18511)"/>
<path d="M64.3687 44.8629C64.3687 45.3453 64.1771 45.8079 63.836 46.1489C63.4949 46.49 63.0323 46.6816 62.55 46.6816H53.4562C52.9738 46.6816 52.5112 46.49 52.1702 46.1489C51.8291 45.8079 51.6375 45.3453 51.6375 44.8629C51.6375 44.3805 51.8291 43.9179 52.1702 43.5768C52.5112 43.2358 52.9738 43.0441 53.4562 43.0441H62.55C63.0323 43.0441 63.4949 43.2358 63.836 43.5768C64.1771 43.9179 64.3687 44.3805 64.3687 44.8629ZM62.55 50.3191H53.4562C52.9738 50.3191 52.5112 50.5108 52.1702 50.8518C51.8291 51.1929 51.6375 51.6555 51.6375 52.1379C51.6375 52.6203 51.8291 53.0829 52.1702 53.4239C52.5112 53.765 52.9738 53.9566 53.4562 53.9566H62.55C63.0323 53.9566 63.4949 53.765 63.836 53.4239C64.1771 53.0829 64.3687 52.6203 64.3687 52.1379C64.3687 51.6555 64.1771 51.1929 63.836 50.8518C63.4949 50.5108 63.0323 50.3191 62.55 50.3191ZM71.6437 32.1316V64.8691C71.6437 65.8339 71.2605 66.7591 70.5783 67.4412C69.8961 68.1234 68.9709 68.5066 68.0062 68.5066H27.9937C27.029 68.5066 26.1038 68.1234 25.4216 67.4412C24.7394 66.7591 24.3562 65.8339 24.3562 64.8691V32.1316C24.3562 31.1669 24.7394 30.2417 25.4216 29.5595C26.1038 28.8774 27.029 28.4941 27.9937 28.4941H68.0062C68.9709 28.4941 69.8961 28.8774 70.5783 29.5595C71.2605 30.2417 71.6437 31.1669 71.6437 32.1316ZM68.0062 64.8691V32.1316H27.9937V64.8691H68.0062ZM49.7596 57.1395C49.8802 57.6067 49.8102 58.1028 49.5651 58.5185C49.3199 58.9342 48.9197 59.2355 48.4524 59.3561C47.9851 59.4766 47.489 59.4067 47.0733 59.1615C46.6576 58.9164 46.3564 58.5161 46.2358 58.0488C45.6379 55.7163 43.2667 53.9566 40.7227 53.9566C38.1787 53.9566 35.8098 55.7163 35.2096 58.0488C35.089 58.5161 34.7877 58.9164 34.372 59.1615C33.9563 59.4067 33.4603 59.4766 32.993 59.3561C32.5257 59.2355 32.1255 58.9342 31.8803 58.5185C31.6352 58.1028 31.5652 57.6067 31.6858 57.1395C32.2759 54.9427 33.6711 53.0485 35.5938 51.8332C34.572 50.8176 33.8749 49.5214 33.5907 48.109C33.3064 46.6966 33.448 45.2316 33.9973 43.8997C34.5467 42.5679 35.4791 41.4291 36.6764 40.6278C37.8737 39.8265 39.282 39.3988 40.7227 39.3988C42.1634 39.3988 43.5716 39.8265 44.769 40.6278C45.9663 41.4291 46.8987 42.5679 47.448 43.8997C47.9974 45.2316 48.1389 46.6966 47.8547 48.109C47.5705 49.5214 46.8733 50.8176 45.8516 51.8332C47.7764 53.0468 49.1728 54.9416 49.7619 57.1395H49.7596ZM40.725 50.3191C41.4444 50.3191 42.1477 50.1058 42.7458 49.7061C43.344 49.3064 43.8103 48.7383 44.0856 48.0737C44.3609 47.409 44.4329 46.6776 44.2926 45.972C44.1522 45.2664 43.8058 44.6183 43.2971 44.1095C42.7883 43.6008 42.1402 43.2544 41.4346 43.114C40.729 42.9737 39.9976 43.0457 39.3329 43.321C38.6683 43.5963 38.1002 44.0626 37.7005 44.6608C37.3008 45.2589 37.0875 45.9622 37.0875 46.6816C37.0875 47.6464 37.4707 48.5716 38.1529 49.2537C38.835 49.9359 39.7602 50.3191 40.725 50.3191Z" fill="#0F1413"/>
<defs>
<linearGradient id="paint0_linear_417_18511" x1="0" y1="0" x2="108.444" y2="16.8338" gradientUnits="userSpaceOnUse">
<stop stop-color="#6DDCFF"/>
<stop offset="1" stop-color="#6CF977"/>
</linearGradient>
</defs>
</svg>
