<svg width="96" height="97" viewBox="0 0 96 97" fill="none" xmlns="http://www.w3.org/2000/svg">
<path d="M0 16C0 7.16345 7.16344 0 16 0H80C88.8366 0 96 7.16344 96 16V81C96 89.8366 88.8366 97 80 97H16C7.16345 97 0 89.8366 0 81V16Z" fill="url(#paint0_linear_330_11798)"/>
<path d="M71.6438 41.2248C71.6448 41.0557 71.6218 40.8873 71.5756 40.7246L68.3132 29.312C68.094 28.5547 67.6356 27.8887 67.0067 27.4134C66.3777 26.9381 65.6119 26.679 64.8235 26.6748H31.1766C30.3883 26.679 29.6225 26.9381 28.9935 27.4134C28.3645 27.8887 27.9062 28.5547 27.6869 29.312L24.4268 40.7246C24.3798 40.8872 24.3561 41.0556 24.3563 41.2248V44.8623C24.3563 46.2741 24.685 47.6664 25.3164 48.9292C25.9477 50.1919 26.8644 51.2902 27.9938 52.1373V68.506C27.9938 68.9884 28.1854 69.451 28.5265 69.7921C28.8676 70.1332 29.3302 70.3248 29.8126 70.3248H66.1876C66.6699 70.3248 67.1325 70.1332 67.4736 69.7921C67.8147 69.451 68.0063 68.9884 68.0063 68.506V52.1373C69.1357 51.2902 70.0524 50.1919 70.6838 48.9292C71.3151 47.6664 71.6438 46.2741 71.6438 44.8623V41.2248ZM31.1766 30.3123H64.8235L67.4198 39.4061H28.5872L31.1766 30.3123ZM42.5438 43.0436H53.4563V44.8623C53.4563 46.3094 52.8815 47.6972 51.8582 48.7205C50.835 49.7437 49.4472 50.3186 48.0001 50.3186C46.553 50.3186 45.1652 49.7437 44.1419 48.7205C43.1187 47.6972 42.5438 46.3094 42.5438 44.8623V43.0436ZM38.9063 43.0436V44.8623C38.906 45.8006 38.6637 46.7229 38.2029 47.5402C37.7421 48.3575 37.0783 49.0421 36.2756 49.528C35.473 50.0139 34.5586 50.2846 33.6208 50.314C32.683 50.3433 31.7535 50.1304 30.922 49.6956C30.7955 49.5971 30.6563 49.5161 30.5082 49.4546C29.7377 48.9614 29.1036 48.2822 28.6642 47.4798C28.2248 46.6773 27.9943 45.7772 27.9938 44.8623V43.0436H38.9063ZM64.3688 66.6873H31.6313V53.7742C32.2301 53.8949 32.8393 53.9558 33.4501 53.9561C34.8618 53.9561 36.2542 53.6274 37.5169 52.996C38.7796 52.3646 39.878 51.448 40.7251 50.3186C41.5721 51.448 42.6705 52.3646 43.9332 52.996C45.1959 53.6274 46.5883 53.9561 48.0001 53.9561C49.4118 53.9561 50.8042 53.6274 52.0669 52.996C53.3296 52.3646 54.428 51.448 55.2751 50.3186C56.1221 51.448 57.2205 52.3646 58.4832 52.996C59.7459 53.6274 61.1383 53.9561 62.5501 53.9561C63.1609 53.9558 63.7701 53.8949 64.3688 53.7742V66.6873ZM65.4896 49.4546C65.3435 49.5162 65.2059 49.5965 65.0804 49.6934C64.249 50.1285 63.3195 50.3419 62.3815 50.3129C61.4436 50.284 60.529 50.0136 59.7261 49.5279C58.9231 49.0422 58.2591 48.3577 57.798 47.5404C57.3369 46.7231 57.0943 45.8007 57.0938 44.8623V43.0436H68.0063V44.8623C68.0056 45.7774 67.7747 46.6776 67.3349 47.4801C66.8951 48.2826 66.2606 48.9616 65.4896 49.4546Z" fill="#0F1413"/>
<defs>
<linearGradient id="paint0_linear_330_11798" x1="0" y1="0" x2="108.444" y2="16.8338" gradientUnits="userSpaceOnUse">
<stop stop-color="#6DDCFF"/>
<stop offset="1" stop-color="#6CF977"/>
</linearGradient>
</defs>
</svg>
