<svg width="96" height="97" viewBox="0 0 96 97" fill="none" xmlns="http://www.w3.org/2000/svg">
<path d="M0 16C0 7.16345 7.16344 0 16 0H80C88.8366 0 96 7.16344 96 16V81C96 89.8366 88.8366 97 80 97H16C7.16345 97 0 89.8366 0 81V16Z" fill="url(#paint0_linear_330_11797)"/>
<path d="M35.2687 52.1374H26.175C25.6926 52.1374 25.23 51.9458 24.8889 51.6047C24.5478 51.2636 24.3562 50.801 24.3562 50.3187C24.3562 49.8363 24.5478 49.3737 24.8889 49.0326C25.23 48.6915 25.6926 48.4999 26.175 48.4999H34.2957L37.3921 43.853C37.5581 43.6035 37.7832 43.3989 38.0474 43.2574C38.3115 43.1159 38.6066 43.0419 38.9062 43.0419C39.2059 43.0419 39.5009 43.1159 39.7651 43.2574C40.0292 43.3989 40.2543 43.6035 40.4203 43.853L46.1812 52.4921L48.3046 49.3092C48.4708 49.0601 48.696 48.8559 48.9602 48.7147C49.2243 48.5735 49.5192 48.4997 49.8187 48.4999H55.275C55.7573 48.4999 56.2199 48.6915 56.561 49.0326C56.9021 49.3737 57.0937 49.8363 57.0937 50.3187C57.0937 50.801 56.9021 51.2636 56.561 51.6047C56.2199 51.9458 55.7573 52.1374 55.275 52.1374H50.7918L47.6953 56.7843C47.5293 57.0338 47.3042 57.2384 47.0401 57.3799C46.7759 57.5214 46.4809 57.5954 46.1812 57.5954C45.8816 57.5954 45.5865 57.5214 45.3224 57.3799C45.0582 57.2384 44.8331 57.0338 44.6671 56.7843L38.9062 48.1407L36.7828 51.3235C36.6171 51.5735 36.3922 51.7786 36.128 51.9206C35.8638 52.0626 35.5686 52.1371 35.2687 52.1374ZM59.3672 28.4937C54.6725 28.4937 50.5621 30.5125 48 33.9249C45.4378 30.5125 41.3274 28.4937 36.6328 28.4937C32.8958 28.4979 29.313 29.9843 26.6705 32.6267C24.0281 35.2692 22.5417 38.8519 22.5375 42.589C22.5375 42.7595 22.5375 42.93 22.5375 43.1005C22.5525 43.5828 22.7586 44.0395 23.1104 44.3699C23.4621 44.7003 23.9307 44.8775 24.4131 44.8624C24.8954 44.8473 25.352 44.6413 25.6825 44.2895C26.0129 43.9378 26.19 43.4692 26.175 42.9868C26.175 42.855 26.175 42.7208 26.175 42.589C26.1786 39.8165 27.2815 37.1586 29.242 35.1982C31.2024 33.2377 33.8603 32.1348 36.6328 32.1312C41.0546 32.1312 44.7671 34.4864 46.3176 38.2694C46.4547 38.603 46.6878 38.8883 46.9873 39.0891C47.2869 39.2899 47.6394 39.3971 48 39.3971C48.3606 39.3971 48.7131 39.2899 49.0126 39.0891C49.3122 38.8883 49.5453 38.603 49.6823 38.2694C51.2328 34.4796 54.9453 32.1312 59.3672 32.1312C62.1396 32.1348 64.7975 33.2377 66.758 35.1982C68.7184 37.1586 69.8214 39.8165 69.825 42.589C69.825 54.7769 52.1467 65.8121 48 68.2333C45.5378 66.7988 38.3083 62.3224 32.8407 56.3637C32.6792 56.1876 32.4845 56.045 32.2679 55.944C32.0513 55.8431 31.8169 55.7858 31.5781 55.7755C31.3394 55.7652 31.1009 55.8019 30.8764 55.8838C30.6518 55.9656 30.4456 56.0908 30.2694 56.2523C30.0933 56.4138 29.9507 56.6085 29.8498 56.8251C29.7488 57.0417 29.6916 57.2761 29.6812 57.5149C29.6709 57.7536 29.7077 57.9921 29.7895 58.2167C29.8713 58.4412 29.9965 58.6474 30.158 58.8236C37.2443 66.5533 46.7382 71.7094 47.1383 71.9254C47.4032 72.0679 47.6992 72.1424 48 72.1424C48.3007 72.1424 48.5968 72.0679 48.8616 71.9254C49.8665 71.3843 73.4625 58.503 73.4625 42.589C73.4583 38.8519 71.9719 35.2692 69.3294 32.6267C66.6869 29.9843 63.1042 28.4979 59.3672 28.4937Z" fill="#0F1413"/>
<defs>
<linearGradient id="paint0_linear_330_11797" x1="0" y1="0" x2="108.444" y2="16.8338" gradientUnits="userSpaceOnUse">
<stop stop-color="#6DDCFF"/>
<stop offset="1" stop-color="#6CF977"/>
</linearGradient>
</defs>
</svg>
