<svg width="96" height="97" viewBox="0 0 96 97" fill="none" xmlns="http://www.w3.org/2000/svg">
<path d="M0 16C0 7.16345 7.16344 0 16 0H80C88.8366 0 96 7.16344 96 16V81C96 89.8366 88.8366 97 80 97H16C7.16345 97 0 89.8366 0 81V16Z" fill="url(#paint0_linear_330_11636)"/>
<path d="M74.2173 45.9288L70.5798 42.2913C69.9628 41.675 69.1451 41.3009 68.2755 41.2371C67.4058 41.1732 66.5422 41.4239 65.8419 41.9434L54.5566 30.6581C55.0764 29.958 55.3274 29.0946 55.264 28.225C55.2006 27.3553 54.8269 26.5374 54.211 25.9202L50.5735 22.2827C50.2357 21.9449 49.8347 21.6769 49.3933 21.494C48.9519 21.3112 48.4789 21.217 48.0011 21.217C47.5234 21.217 47.0503 21.3112 46.6089 21.494C46.1675 21.6769 45.7665 21.9449 45.4287 22.2827L30.8787 36.8327C30.5409 37.1705 30.2729 37.5716 30.09 38.0129C29.9071 38.4543 29.813 38.9274 29.813 39.4051C29.813 39.8829 29.9071 40.356 30.09 40.7973C30.2729 41.2387 30.5409 41.6397 30.8787 41.9775L34.5162 45.615C35.1333 46.2303 35.9507 46.6036 36.8198 46.667C37.6889 46.7305 38.5519 46.4798 39.2518 45.9606L40.8818 47.5906L26.0181 62.4544C25.0306 63.5344 24.4978 64.9536 24.5305 66.4167C24.5632 67.8797 25.159 69.2737 26.1937 70.3085C27.2285 71.3433 28.6226 71.9391 30.0856 71.9718C31.5486 72.0045 32.9679 71.4716 34.0479 70.4842L48.9094 55.6204L50.5394 57.2482C50.0196 57.9482 49.7686 58.8117 49.832 59.6813C49.8954 60.5509 50.2691 61.3688 50.885 61.986L54.5225 65.6235C54.8603 65.9614 55.2613 66.2294 55.7027 66.4123C56.144 66.5951 56.6171 66.6892 57.0949 66.6892C57.5726 66.6892 58.0457 66.5951 58.4871 66.4123C58.9284 66.2294 59.3295 65.9614 59.6673 65.6235L74.2173 51.0735C74.5551 50.7358 74.8231 50.3347 75.006 49.8934C75.1888 49.452 75.283 48.9789 75.283 48.5012C75.283 48.0234 75.1888 47.5503 75.006 47.1089C74.8231 46.6676 74.5551 46.2665 74.2173 45.9288ZM37.0875 43.0438L33.45 39.4063L48 24.8563L51.6375 28.4938L37.0875 43.0438ZM31.4766 67.9106C31.0933 68.2917 30.5747 68.5056 30.0341 68.5056C29.4936 68.5056 28.975 68.2917 28.5916 67.9106C28.2112 67.5274 27.9978 67.0093 27.9978 66.4693C27.9978 65.9293 28.2112 65.4112 28.5916 65.0279L43.4531 50.1642L46.3381 53.0469L31.4766 67.9106ZM41.8617 43.4212L52.0149 33.268L63.232 44.4851L53.0811 54.6383L41.8617 43.4212ZM57.0937 63.05L53.4562 59.4125L54.3656 58.5031L67.0969 45.7719L68.0062 44.8625L71.6437 48.5L57.0937 63.05Z" fill="#0F1413"/>
<defs>
<linearGradient id="paint0_linear_330_11636" x1="0" y1="0" x2="108.444" y2="16.8338" gradientUnits="userSpaceOnUse">
<stop stop-color="#6DDCFF"/>
<stop offset="1" stop-color="#6CF977"/>
</linearGradient>
</defs>
</svg>
