<svg width="96" height="97" viewBox="0 0 96 97" fill="none" xmlns="http://www.w3.org/2000/svg">
<path d="M0 16C0 7.16345 7.16344 0 16 0H80C88.8366 0 96 7.16344 96 16V81C96 89.8366 88.8366 97 80 97H16C7.16345 97 0 89.8366 0 81V16Z" fill="url(#paint0_linear_330_11796)"/>
<path d="M74.8266 41.8455L62.0954 27.2955C61.9251 27.101 61.7154 26.9451 61.4802 26.8381C61.245 26.7311 60.9897 26.6754 60.7313 26.6748H35.2688C35.0104 26.6754 34.7551 26.7311 34.5199 26.8381C34.2847 26.9451 34.075 27.101 33.9047 27.2955L21.1735 41.8455C20.8765 42.1846 20.716 42.6219 20.7231 43.0726C20.7303 43.5233 20.9045 43.9553 21.2121 44.2849L46.6746 71.5661C46.8448 71.7485 47.0507 71.894 47.2795 71.9935C47.5083 72.0929 47.7551 72.1443 48.0046 72.1443C48.2541 72.1443 48.5009 72.0929 48.7297 71.9935C48.9585 71.894 49.1644 71.7485 49.3346 71.5661L74.7971 44.2849C75.1034 43.9542 75.276 43.5216 75.2815 43.0708C75.287 42.6201 75.1249 42.1834 74.8266 41.8455ZM69.4545 41.2248H59.8219L51.6376 30.3123H59.906L69.4545 41.2248ZM35.8554 44.8623L42.7052 61.9881L26.723 44.8623H35.8554ZM56.2253 44.8623L48.0001 65.4278L39.7748 44.8623H56.2253ZM40.7251 41.2248L48.0001 31.524L55.2751 41.2248H40.7251ZM60.1448 44.8623H69.2772L53.2949 61.9881L60.1448 44.8623ZM36.0941 30.3123H44.3626L36.1782 41.2248H26.5456L36.0941 30.3123Z" fill="#0F1413"/>
<defs>
<linearGradient id="paint0_linear_330_11796" x1="0" y1="0" x2="108.444" y2="16.8338" gradientUnits="userSpaceOnUse">
<stop stop-color="#6DDCFF"/>
<stop offset="1" stop-color="#6CF977"/>
</linearGradient>
</defs>
</svg>
